;TYPE=PLATED
;Layer: PTH_Through_Via
;EasyEDA Pro v2.1.51.8c9149c1.e57db4, 2024-03-19 13:05:23
;Gerber Generator version 0.3
M48
METRIC,LZ,000.00000
;Hole size 1 = 0.30480 METRIC
T01C0.30480
;Hole size 2 = 0.30500 METRIC
T02C0.30500
;Hole size 3 = 0.40640 METRIC
T03C0.40640
;Hole size 4 = 0.45720 METRIC
T04C0.45720
;Hole size 5 = 0.50800 METRIC
T05C0.50800
%
G05
G90
T01
X03962400Y-03429000
X05358206Y-03746500
X03575050Y-04489210
X03721100Y-04489210
X03429000Y-04489210
X03575050Y-04590810
X03721100Y-04590810
X03429000Y-04590810
X09017000Y-04203700
X08890000Y-04203700
X09144000Y-04203700
X08509000Y-04343400
X08636000Y-04343400
X08636000Y-04203700
X08509000Y-04203700
X08763000Y-04203700
X08763000Y-04343400
X08509000Y-04622800
X08636000Y-04622800
X08636000Y-04483100
X08509000Y-04483100
X08763000Y-04483100
X08763000Y-04622800
X08890000Y-04076700
X09017000Y-04076700
X09017000Y-03937000
X08890000Y-03937000
X09144000Y-03937000
X09144000Y-04076700
X07277100Y-04051300
X07404100Y-04051300
X07404100Y-03911600
X07277100Y-03911600
X07531100Y-03911600
X07531100Y-04051300
X06921500Y-04597400
X06921500Y-04457700
X07048500Y-04457700
X07048500Y-04597400
X06667500Y-04330700
X06794500Y-04330700
X06794500Y-04191000
X06667500Y-04191000
X06921500Y-04191000
X06921500Y-04330700
X05092700Y-04597400
X05219700Y-04597400
X05346700Y-04597400
X04965700Y-04597400
X06210300Y-03657600
X06337300Y-03657600
X06464300Y-03657600
X06083300Y-03657600
X07277100Y-03632200
X07277100Y-03492500
X07404100Y-03632200
X07404100Y-03492500
X07531100Y-03492500
X07531100Y-03632200
X07759700Y-02895600
X07759700Y-02755900
X07886700Y-02895600
X07886700Y-02755900
X08013700Y-02755900
X08013700Y-02895600
X08953500Y-02730500
X08826500Y-02730500
X08699500Y-02730500
X06464300Y-03365500
X05346700Y-02679700
X05473700Y-02679700
X05600700Y-02679700
X05108194Y-02908300
X06337300Y-03530600
X06464300Y-03530600
X06210300Y-03530600
X06083300Y-03530600
X05892800Y-03352800
X05892800Y-03606800
X03365500Y-03709186
X03485773Y-03708400
X03365500Y-03822700
X03485773Y-03821914
X03619500Y-03708400
X03739773Y-03707614
X03619500Y-03822700
X03739773Y-03821914
X03365500Y-04013200
X02120900Y-03911600
X06197600Y-03968598
X06654800Y-04547796
X04575242Y-04191000
X04699000Y-03784294
X04749800Y-04076700
X08210530Y-02755900
X08210530Y-02851601
X02336800Y-02417528
X01732788Y-02247900
X03924300Y-04208805
X02908300Y-04127500
X05061102Y-02641600
X03455449Y-02679700
X02971410Y-03035690
X03822700Y-00177800
X03822700Y-00292100
X03822700Y-00409225
X03953146Y-00409225
X03953146Y-00292100
X03953146Y-00177800
X04083591Y-00177800
X04083591Y-00292100
X04083591Y-00409225
X04229100Y-00177800
X04229100Y-00292100
X04229100Y-00409225
X04359546Y-00409225
X04359546Y-00292100
X04359546Y-00177800
X04489991Y-00177800
X04489991Y-00292100
X04489991Y-00409225
X04622800Y-00177800
X04622800Y-00292100
X04622800Y-00409225
X04753246Y-00409225
X04753246Y-00292100
X04753246Y-00177800
X04883691Y-00177800
X04883691Y-00292100
X04883691Y-00409225
X05969000Y-00177800
X05969000Y-00292100
X05969000Y-00409225
X06099446Y-00409225
X06099446Y-00292100
X06099446Y-00177800
X06229891Y-00177800
X06229891Y-00292100
X06229891Y-00409225
X06375400Y-00177800
X06375400Y-00292100
X06375400Y-00409225
X06505846Y-00409225
X06505846Y-00292100
X06505846Y-00177800
X06636291Y-00177800
X06636291Y-00292100
X06636291Y-00409225
X06781800Y-00177800
X06781800Y-00292100
X06781800Y-00409225
X06912246Y-00409225
X06912246Y-00292100
X06912246Y-00177800
X07042691Y-00177800
X07042691Y-00292100
X07042691Y-00409225
X02667000Y-04064000
X03289300Y-04102100
X02705100Y-03721100
X04559300Y-03060700
X04114800Y-03517900
X04921098Y-02628900
X06078315Y-03149600
X02908300Y-01612900
X03038746Y-01612900
X03169191Y-01612900
X03169191Y-01727200
X03038746Y-01727200
X02908300Y-01727200
X02908300Y-01844325
X03038746Y-01844325
X03169191Y-01844325
X02908300Y-01993900
X03038746Y-01993900
X03169191Y-01993900
X03169191Y-02108200
X03038746Y-02108200
X02908300Y-02108200
X02619646Y-01993900
X02750091Y-01993900
X02750091Y-02108200
X01854200Y-02832100
X01984646Y-02832100
X02115091Y-02832100
X02115091Y-02946400
X01984646Y-02946400
X01854200Y-02946400
X01854200Y-03063525
X01984646Y-03063525
X02115091Y-03063525
X00368300Y-02377725
X00498746Y-02377725
X00629191Y-02377725
X07772400Y-02044700
X07902846Y-02044700
X08033291Y-02044700
X08033291Y-02159000
X07902846Y-02159000
X07772400Y-02159000
X07772400Y-02276125
X07902846Y-02276125
X08033291Y-02276125
X08153400Y-02044700
X08283846Y-02044700
X08414291Y-02044700
X08414291Y-02159000
X08283846Y-02159000
X08153400Y-02159000
X08153400Y-02276125
X08283846Y-02276125
X08414291Y-02276125
X07772400Y-02400300
X07902846Y-02400300
X08033291Y-02400300
X08033291Y-02514600
X07902846Y-02514600
X07772400Y-02514600
X08153400Y-02400300
X08283846Y-02400300
X08414291Y-02400300
X08414291Y-02514600
X08283846Y-02514600
X08153400Y-02514600
X07607300Y-01625600
X07737746Y-01625600
X07868191Y-01625600
X07868191Y-01739900
X07737746Y-01739900
X07607300Y-01739900
X07607300Y-01857025
X07737746Y-01857025
X07868191Y-01857025
X08382000Y-00152400
X08512446Y-00152400
X08642891Y-00152400
X08642891Y-00266700
X08512446Y-00266700
X08382000Y-00266700
X08382000Y-00383825
X08512446Y-00383825
X08642891Y-00383825
X07632700Y-00152400
X07763146Y-00152400
X07893591Y-00152400
X07893591Y-00266700
X07763146Y-00266700
X07632700Y-00266700
X07632700Y-00383825
X07763146Y-00383825
X07893591Y-00383825
X07200900Y-00152400
X07331346Y-00152400
X07461791Y-00152400
X07461791Y-00266700
X07331346Y-00266700
X07200900Y-00266700
X07200900Y-00383825
X07331346Y-00383825
X07461791Y-00383825
X03214586Y-00101600
X03345032Y-00101600
X03475477Y-00101600
X03475477Y-00215900
X03345032Y-00215900
X03214586Y-00215900
X03214586Y-00333025
X03345032Y-00333025
X03475477Y-00333025
X02369091Y-00088900
X02238646Y-00088900
X02108200Y-00088900
X02108200Y-00206025
X02238646Y-00206025
X02369091Y-00206025
X01886491Y-00088900
X01756046Y-00088900
X01625600Y-00088900
X01625600Y-00206025
X01756046Y-00206025
X01886491Y-00206025
X00362491Y-00685800
X00362491Y-00800100
X00362491Y-00917225
X00362491Y-01021455
X00362491Y-01135755
X00362491Y-01252881
X00362491Y-01358900
X00362491Y-01473200
X00362491Y-01590325
X05537200Y-03416300
X05410200Y-03416300
X05283200Y-03416300
X05283200Y-03302000
X05410200Y-03302000
X05537200Y-03302000
X05410200Y-03644900
X05283200Y-03644900
X05537200Y-03644900
X01930400Y-01778000
X02060846Y-01778000
X02060846Y-01892300
X01930400Y-01892300
X00368300Y-02489200
X00498746Y-02489200
X00629191Y-02489200
X00774700Y-02374900
X00905146Y-02374900
X01035591Y-02374900
X00774700Y-02489200
X00905146Y-02489200
X01035591Y-02489200
X00431800Y-02044700
X00548798Y-02044700
X00665796Y-02044700
X00782794Y-02044700
X00431800Y-02171700
X00548798Y-02171700
X00665796Y-02171700
X00782794Y-02171700
X01714500Y-01752600
X00330200Y-01841500
X08938675Y-02387600
X09194800Y-02251095
X08839200Y-02477343
X07073900Y-03530600
X05905500Y-03442106
X08837889Y-01663090
X08851900Y-00736600
X08997950Y-00736600
X09144000Y-00736600
X09144000Y-01107032
X08851900Y-01107032
X08997950Y-01107032
X09144000Y-00921816
X08851900Y-00921816
X08997950Y-00921816
X09144000Y-01292248
X08851900Y-01292248
X08997950Y-01292248
X09271000Y-00736600
X09417050Y-00736600
X08999848Y-01447904
X08853798Y-01447904
X02798144Y-02503983
X02798144Y-02389683
X02928589Y-02389683
X02928589Y-02503983
X02798144Y-02727501
X02798144Y-02613201
X02928589Y-02613201
X02928589Y-02727501
X09493933Y-04164789
X09366933Y-04164789
X09498204Y-03754769
X09371204Y-03754769
X09371204Y-03894469
X09498204Y-03894469
X09498204Y-04021469
X09371204Y-04021469
X09496780Y-03341902
X09369780Y-03341902
X09369780Y-03481602
X09496780Y-03481602
X09496780Y-03608602
X09369780Y-03608602
X09498204Y-02886324
X09371204Y-02886324
X09371204Y-03026024
X09498204Y-03026024
X09498204Y-03153024
X09371204Y-03153024
X09496780Y-02453525
X09369780Y-02453525
X09369780Y-02593225
X09496780Y-02593225
X09496780Y-02720225
X09369780Y-02720225
X09496780Y-02026421
X09369780Y-02026421
X09369780Y-02166121
X09496780Y-02166121
X09496780Y-02293121
X09369780Y-02293121
X00952500Y-04013200
X01016000Y-04013200
X00952500Y-04076700
X01016000Y-04076700
X01282971Y-04111638
X01282971Y-04032305
X00677852Y-03810000
X00749300Y-04584700
X00812800Y-04178300
X04178300Y-04203700
X04178300Y-04483100
X01689100Y-04152900
X01765300Y-04152900
X01765300Y-04232300
T02
X02616200Y-02482526
X01739900Y-02349500
X01828800Y-02171700
X01667789Y-01168400
X03365500Y-02184400
X03416300Y-02933700
X03209879Y-02959100
X07251700Y-02692400
X06667500Y-03276600
X06388100Y-03009900
X06261100Y-03149600
X06261100Y-02501900
X07162800Y-02755797
X07493000Y-02768600
X07594600Y-03352800
X03213100Y-02590800
X03060700Y-03111500
X06769100Y-02552700
X06505878Y-02654300
X07590135Y-02044700
X07073900Y-01905000
X08760750Y-02921000
X07861300Y-04470400
X05511800Y-02895600
X02641600Y-02641600
X02114093Y-02349500
X01282700Y-02324100
X07264400Y-04508500
X01993900Y-01651000
X04178300Y-02933700
X04406900Y-02933700
X00546100Y-01246236
X00546100Y-01147176
X00546100Y-01048116
X00546100Y-00949056
X00546100Y-00849996
X00546100Y-00750936
X00630937Y-00949056
X00630937Y-00849996
X00630937Y-00750936
X02679700Y-03098800
X05473700Y-03492500
X03988664Y-02628900
X04584700Y-03213100
X05208194Y-03175000
X05118100Y-03175000
X03975100Y-03640324
X03581400Y-03470991
X03505200Y-03301657
X05041900Y-03441700
X04711700Y-03441700
X05016500Y-03302000
X02515464Y-04356100
X02375764Y-04356100
X02247900Y-01968500
T03
X04229100Y-01587500
X03683000Y-02197100
X01245169Y-00732066
X01245169Y-00831126
X01245169Y-00930186
X01243271Y-00358812
X01243271Y-00475906
X01245169Y-00593948
X02230756Y-00691503
X02230756Y-00564503
X02230756Y-00437503
X02370456Y-00437503
X02370456Y-00564503
X02370456Y-00691503
X02235200Y-01130300
X02235200Y-01003300
X02235200Y-00876300
X02374900Y-00876300
X02374900Y-01003300
X02374900Y-01130300
X02374900Y-01422400
X02247900Y-01422400
X02120900Y-01422400
X02120900Y-01282700
X02247900Y-01282700
X02374900Y-01282700
X02908300Y-00901700
X02908300Y-00774700
X02908300Y-00647700
X03048000Y-00647700
X03048000Y-00774700
X03048000Y-00901700
X02908300Y-01320800
X02908300Y-01193800
X02908300Y-01066800
X03048000Y-01066800
X03048000Y-01193800
X03048000Y-01320800
X04433545Y-01070590
X04433545Y-01184890
X04433545Y-01302015
X04694436Y-01070590
X04694436Y-01184890
X04694436Y-01302015
X04563991Y-01302015
X04563991Y-01184890
X04563991Y-01070590
X04433192Y-01723871
X04433192Y-01606745
X04433192Y-01492445
X04563637Y-01492445
X04563637Y-01606745
X04563637Y-01723871
X04694083Y-01723871
X04694083Y-01606745
X04694083Y-01492445
X04434605Y-02177369
X04434605Y-02060243
X04434605Y-01945943
X04565050Y-01945943
X04565050Y-02060243
X04565050Y-02177369
X04695496Y-02177369
X04695496Y-02060243
X04695496Y-01945943
X03828528Y-02109203
X03828528Y-01992077
X03828528Y-01877777
X03958974Y-01877777
X03958974Y-01992077
X03958974Y-02109203
X04089419Y-02109203
X04089419Y-01992077
X04089419Y-01877777
X03702792Y-01523173
X03833237Y-01523173
X03833237Y-01637473
X03702792Y-01637473
X06063038Y-01064465
X06323929Y-01064465
X06193484Y-01064465
X06063038Y-01178765
X06323929Y-01178765
X06193484Y-01178765
X06063038Y-01295891
X06323929Y-01295891
X06193484Y-01295891
X06062685Y-01717746
X06193130Y-01717746
X06323576Y-01717746
X06064098Y-02171244
X06064098Y-02054119
X06064098Y-01939819
X06194543Y-01939819
X06194543Y-02054119
X06194543Y-02171244
X06324989Y-02171244
X06324989Y-02054119
X06324989Y-01939819
X06323576Y-01600621
X06323576Y-01486321
X06062685Y-01600621
X06062685Y-01486321
X06193130Y-01486321
X06193130Y-01600621
X06671366Y-01893879
X06932257Y-01893879
X06801812Y-01893879
X06671366Y-02008179
X06932257Y-02008179
X06801812Y-02008179
X06671366Y-02125305
X06932257Y-02125305
X06801812Y-02125305
X06679137Y-00918364
X06940028Y-00918364
X06809582Y-00918364
X06679137Y-01032664
X06940028Y-01032664
X06809582Y-01032664
X06679137Y-01149790
X06940028Y-01149790
X06809582Y-01149790
X01308599Y-02750495
X01308599Y-02864795
X01308599Y-02981920
X01439044Y-02981920
X01439044Y-02864795
X01439044Y-02750495
X01569490Y-02750495
X01569490Y-02864795
X01569490Y-02981920
X00855101Y-02750495
X00855101Y-02864795
X00855101Y-02981920
X00985546Y-02981920
X00985546Y-02864795
X00985546Y-02750495
X01115992Y-02750495
X01115992Y-02864795
X01115992Y-02981920
X07819707Y-00823662
X07819707Y-00954107
X07934007Y-00954107
X07934007Y-00823662
X07819707Y-00693217
X07934007Y-00693217
X07823200Y-01228455
X07823200Y-01358900
X07937500Y-01358900
X07937500Y-01228455
X07823200Y-01098009
X07937500Y-01098009
X08299268Y-01227068
X08299268Y-01357513
X08413568Y-01357513
X08413568Y-01227068
X08299268Y-01096622
X08413568Y-01096622
X08299268Y-00821319
X08299268Y-00951764
X08413568Y-00951764
X08413568Y-00821319
X08299268Y-00690873
X08413568Y-00690873
X07579123Y-00997381
X07579123Y-01127826
X07693423Y-01127826
X07693423Y-00997381
X07579123Y-00866935
X07693423Y-00866935
X07305776Y-01008770
X07305776Y-01139215
X07420076Y-01139215
X07420076Y-01008770
X07305776Y-00878324
X07420076Y-00878324
X04089419Y-01145925
X03828528Y-00914500
X03958974Y-00914500
X03828528Y-01145925
X03828528Y-01028800
X03958974Y-01028800
X03958974Y-01145925
X04089419Y-01028800
X04089419Y-00914500
X01498498Y-03352800
X01498498Y-03238500
X01498498Y-03469925
X01333500Y-03378200
X01333500Y-03263900
X01333500Y-03495325
X01460602Y-04549425
X01460602Y-04432300
X01460602Y-04318000
X01931416Y-03721100
X01930400Y-04007358
X01930392Y-03866860
X02120900Y-04216400
X02235200Y-04216400
X02120900Y-04318000
X02235200Y-04318000
X01981200Y-04432300
X01981200Y-04584700
X02946400Y-04292600
X02197100Y-04445000
T04
X01828800Y-03505200
X01828800Y-03276600
X01828800Y-03393084
X01333500Y-03784600
X01447800Y-03784600
X01447800Y-03911600
X01333500Y-03911600
X01066800Y-03378200
X01066800Y-03149600
X01181100Y-03149600
X01181100Y-03263900
X01066800Y-03263900
X01181100Y-03378200
X00355600Y-04191000
X00495300Y-04191000
X00495300Y-04305300
X00355600Y-04305300
T05
X07759700Y-03124200
M30