G04 Layer: InnerLayer1*
G04 EasyEDA Pro v2.1.51.8c9149c1.e57db4, 2024-03-19 13:05:20*
G04 Gerber Generator version 0.3*
G04 Scale: 100 percent, Rotated: No, Reflected: No*
G04 Dimensions in millimeters*
G04 Leading zeros omitted, absolute positions, 3 integers and 5 decimals*
%FSLAX35Y35*%
%MOMM*%
%ADD8191C,0.2032*%
%ADD10C,1.6*%
%ADD11C,2.49999*%
%ADD12C,3.19999*%
%ADD13C,1.9*%
%ADD14C,3.2013*%
%ADD15C,3.2004*%
%ADD16C,0.61*%
%ADD17C,0.7112*%
%ADD18C,0.6096*%
%ADD19C,0.889*%
%ADD20C,0.762*%
%ADD21C,0.254*%
%ADD22C,0.381*%
G75*


G04 Copper Start*
G36*
G01X495300Y-4813046D02*
G02X266954Y-4584700I0J228346D01*
G01Y-266700D01*
G02X495300Y-38354I228346J-0D01*
G01X9334500D01*
G02X9562846Y-266700I0J-228346D01*
G01Y-4584700D01*
G02X9334500Y-4813046I-228346J0D01*
G01X495300D01*
G37*
%LPC*%
G36*
G01X3060700Y-3172734D02*
G03X3121934Y-3111500I0J61234D01*
G03X3110484Y-3075847I-61234J0D01*
G01Y-2598721D01*
G01X3335321Y-2373884D01*
G01X3556000D01*
G03X3591203Y-2359303I0J49784D01*
G01X3687247Y-2263258D01*
G03X3749294Y-2197100I-4247J66158D01*
G03X3683000Y-2130806I-66294J0D01*
G03X3616842Y-2192853I0J-66294D01*
G01X3535379Y-2274316D01*
G01X3314700D01*
G03X3279497Y-2288897I0J-49784D01*
G01X3025497Y-2542897D01*
G03X3010916Y-2578100I35203J-35203D01*
G01Y-2988931D01*
G03X2971410Y-2974476I-39506J-46759D01*
G03X2910196Y-3035690I0J-61214D01*
G03X2971410Y-3096904I61214J0D01*
G03X3004498Y-3087191I0J61214D01*
G03X2999466Y-3111500I56202J-24309D01*
G03X3060700Y-3172734I61234J0D01*
G37*
G36*
G01X1930400Y-4073652D02*
G03X1996694Y-4007358I0J66294D01*
G03X1930400Y-3941064I-66294J0D01*
G03X1925698Y-3941231I0J-66294D01*
G01X1916051Y-3931584D01*
G03X1930392Y-3933154I14342J64724D01*
G03X1996686Y-3866860I0J66294D01*
G03X1930392Y-3800566I-66294J0D01*
G03X1864098Y-3866860I0J-66294D01*
G03X1865668Y-3881201I66294J0D01*
G01X1636754Y-3652288D01*
G03X1606042Y-3639566I-30712J-30712D01*
G01X804852D01*
G03X774140Y-3652288I0J-43434D01*
G01X677641Y-3748786D01*
G03X616638Y-3810000I211J-61214D01*
G03X677852Y-3871214I61214J0D01*
G03X739066Y-3810211I0J61214D01*
G01X822843Y-3726434D01*
G01X1588051D01*
G01X1864273Y-4002656D01*
G03X1864106Y-4007358I66127J-4702D01*
G03X1930400Y-4073652I66294J0D01*
G37*
G36*
G01X6606266Y-3276600D02*
G03X6667500Y-3337834I61234J0D01*
G03X6726949Y-3291275I0J61234D01*
G01X7002991Y-3015234D01*
G01X7112000D01*
G03X7142712Y-3002512I0J43434D01*
G01X7282412Y-2862812D01*
G03X7295134Y-2832100I-30712J30712D01*
G01Y-2735564D01*
G03X7312934Y-2692400I-43434J43164D01*
G03X7251700Y-2631166I-61234J0D01*
G03X7190466Y-2692400I0J-61234D01*
G03X7191149Y-2701521I61234J0D01*
G03X7162800Y-2694563I-28349J-54277D01*
G03X7101566Y-2755797I0J-61234D01*
G03X7162800Y-2817031I61234J0D01*
G03X7208266Y-2796815I0J61234D01*
G01Y-2814109D01*
G01X7094009Y-2928366D01*
G01X6985000D01*
G03X6954288Y-2941088I0J-43434D01*
G01X6678932Y-3216443D01*
G03X6667500Y-3215366I-11432J-60157D01*
G03X6606266Y-3276600I0J-61234D01*
G37*
G36*
G01X6083300Y-3591814D02*
G03X6144514Y-3530600I0J61214D01*
G03X6124288Y-3485134I-61214J0D01*
G01X6169312D01*
G03X6149086Y-3530600I40988J-45466D01*
G03X6210300Y-3591814I61214J0D01*
G03X6271514Y-3530600I0J61214D01*
G03X6251288Y-3485134I-61214J0D01*
G01X6296312D01*
G03X6276086Y-3530600I40988J-45466D01*
G03X6337300Y-3591814I61214J0D01*
G03X6398514Y-3530600I0J61214D01*
G03X6378288Y-3485134I-61214J0D01*
G01X6423312D01*
G03X6403086Y-3530600I40988J-45466D01*
G03X6464300Y-3591814I61214J0D01*
G03X6525514Y-3530600I0J61214D01*
G03X6505288Y-3485134I-61214J0D01*
G01X6509809D01*
G01X6585988Y-3561312D01*
G03X6616700Y-3574034I30712J30712D01*
G01X7030765D01*
G03X7073900Y-3591814I43135J43434D01*
G03X7135114Y-3530600I0J61214D01*
G03X7073900Y-3469386I-61214J0D01*
G03X7030765Y-3487166I0J-61214D01*
G01X6932214D01*
G03X6970925Y-3396413I-87022J90753D01*
G03X6845191Y-3270679I-125734J0D01*
G03X6719457Y-3396413I0J-125734D01*
G03X6758169Y-3487166I125734J0D01*
G01X6634691D01*
G01X6558512Y-3410988D01*
G03X6527800Y-3398266I-30712J-30712D01*
G01X6516006D01*
G03X6525514Y-3365500I-51706J32766D01*
G03X6464300Y-3304286I-61214J0D01*
G03X6403086Y-3365500I0J-61214D01*
G03X6412594Y-3398266I61214J0D01*
G01X5948222D01*
G03X5940125Y-3391626I-42722J-43840D01*
G03X5954014Y-3352800I-47325J38826D01*
G03X5892800Y-3291586I-61214J0D01*
G03X5831586Y-3352800I0J-61214D01*
G03X5858175Y-3403280I61214J0D01*
G03X5844286Y-3442106I47325J-38826D01*
G03X5905500Y-3503320I61214J0D01*
G03X5949041Y-3485134I0J61214D01*
G01X6042312D01*
G03X6022086Y-3530600I40988J-45466D01*
G03X6083300Y-3591814I61214J0D01*
G37*
G36*
G01X4584700Y-3274334D02*
G03X4645934Y-3213291I0J61234D01*
G01X4907491Y-2951734D01*
G01X5065059D01*
G03X5108194Y-2969514I43135J43434D01*
G03X5169408Y-2908300I0J61214D01*
G03X5108194Y-2847086I-61214J0D01*
G03X5065059Y-2864866I0J-61214D01*
G01X4889500D01*
G03X4858788Y-2877588I0J-43434D01*
G01X4584509Y-3151866D01*
G03X4523466Y-3213100I191J-61234D01*
G03X4584700Y-3274334I61234J0D01*
G37*
G36*
G01X4699000Y-3845508D02*
G03X4760214Y-3784294I0J61214D01*
G03X4699000Y-3723080I-61214J0D01*
G03X4655865Y-3740860I0J-61214D01*
G01X4399185D01*
G01X4176014Y-3517689D01*
G03X4114800Y-3456686I-61214J-211D01*
G03X4053586Y-3517900I0J-61214D01*
G03X4114589Y-3579114I61214J0D01*
G01X4350482Y-3815007D01*
G03X4381194Y-3827728I30712J30712D01*
G01X4655865D01*
G03X4699000Y-3845508I43135J43434D01*
G37*
G36*
G01X310896Y-4578350D02*
G03X501650Y-4769104I190754J0D01*
G03X690828Y-4602817I0J190754D01*
G03X749300Y-4645914I58472J18117D01*
G03X810514Y-4584700I0J61214D01*
G03X749300Y-4523486I-61214J0D01*
G03X691834Y-4563610I0J-61214D01*
G03X501650Y-4387596I-190184J-14740D01*
G03X310896Y-4578350I0J-190754D01*
G37*
G36*
G01X8089900Y-1444234D02*
G03X8200634Y-1333500I0J110734D01*
G03X8089900Y-1222766I-110734J0D01*
G03X7981784Y-1309566I0J-110734D01*
G03X7949370Y-1293677I-44284J-49334D01*
G03X8003794Y-1228455I-11870J65223D01*
G03X7949370Y-1163232I-66294J0D01*
G03X8003794Y-1098009I-11870J65223D01*
G03X7937500Y-1031715I-66294J0D01*
G03X7880350Y-1064412I0J-66294D01*
G03X7823200Y-1031715I-57150J-33597D01*
G03X7756906Y-1098009I0J-66294D01*
G03X7811330Y-1163232I66294J0D01*
G03X7756906Y-1228455I11870J-65223D01*
G03X7811330Y-1293677I66294J0D01*
G03X7756906Y-1358900I11870J-65223D01*
G03X7823200Y-1425194I66294J0D01*
G03X7880350Y-1392497I0J66294D01*
G03X7937500Y-1425194I57150J33597D01*
G03X7995390Y-1391205I0J66294D01*
G03X8089900Y-1444234I94510J57705D01*
G37*
G36*
G01X7753413Y-954107D02*
G03X7819707Y-1020401I66294J0D01*
G03X7876857Y-987705I0J66294D01*
G03X7934007Y-1020401I57150J33597D01*
G03X8000301Y-954107I0J66294D01*
G03X7945877Y-888885I-66294J0D01*
G03X7996248Y-846487I-11870J65223D01*
G03X8089900Y-898134I93652J59087D01*
G03X8200634Y-787400I0J110734D01*
G03X8089900Y-676666I-110734J0D01*
G03X7979785Y-775711I0J-110734D01*
G03X7945876Y-758439I-45778J-47951D01*
G03X8000301Y-693217I-11870J65223D01*
G03X7934007Y-626923I-66294J0D01*
G03X7876857Y-659619I0J-66294D01*
G03X7819707Y-626923I-57150J-33597D01*
G03X7753413Y-693217I0J-66294D01*
G03X7807837Y-758439I66294J0D01*
G03X7753413Y-823662I11870J-65223D01*
G03X7807836Y-888885I66294J0D01*
G03X7753413Y-954107I11870J-65223D01*
G37*
G36*
G01X9328150Y-4756404D02*
G03X9518904Y-4565650I0J190754D01*
G03X9328150Y-4374896I-190754J0D01*
G03X9137396Y-4565650I0J-190754D01*
G03X9328150Y-4756404I190754J0D01*
G37*
G36*
G01X501650Y-463804D02*
G03X692404Y-273050I0J190754D01*
G03X501650Y-82296I-190754J0D01*
G03X310896Y-273050I0J-190754D01*
G03X501650Y-463804I190754J0D01*
G37*
G36*
G01X9137396Y-273050D02*
G03X9328150Y-463804I190754J0D01*
G03X9518904Y-273050I0J190754D01*
G03X9328150Y-82296I-190754J0D01*
G03X9137396Y-273050I0J-190754D01*
G37*
G36*
G01X774466Y-897699D02*
G03X965200Y-1088433I190734J0D01*
G03X1155934Y-897699I0J190734D01*
G03X965200Y-706966I-190734J0D01*
G03X774466Y-897699I0J-190734D01*
G37*
G36*
G01X855101Y-3048214D02*
G03X920324Y-2993790I0J66294D01*
G03X985546Y-3048214I65223J11870D01*
G03X1050769Y-2993791I0J66294D01*
G03X1115992Y-3048214I65223J11870D01*
G03X1182286Y-2981920I0J66294D01*
G03X1147061Y-2923358I-66294J0D01*
G03X1182286Y-2864795I-31069J58563D01*
G03X1149589Y-2807645I-66294J0D01*
G03X1182286Y-2750495I-33597J57150D01*
G03X1115992Y-2684201I-66294J0D01*
G03X1050769Y-2738624I0J-66294D01*
G03X985546Y-2684201I-65223J-11870D01*
G03X920324Y-2738625I0J-66294D01*
G03X855101Y-2684201I-65223J-11870D01*
G03X788807Y-2750495I0J-66294D01*
G03X821504Y-2807645I66294J0D01*
G03X788807Y-2864795I33597J-57150D01*
G03X824032Y-2923358I66294J0D01*
G03X788807Y-2981920I31069J-58563D01*
G03X855101Y-3048214I66294J0D01*
G37*
G36*
G01X1308599Y-3048214D02*
G03X1373822Y-2993790I0J66294D01*
G03X1439044Y-3048214I65223J11870D01*
G03X1504267Y-2993791I0J66294D01*
G03X1569490Y-3048214I65223J11870D01*
G03X1635784Y-2981920I0J66294D01*
G03X1600559Y-2923358I-66294J0D01*
G03X1635784Y-2864795I-31069J58563D01*
G03X1603087Y-2807645I-66294J0D01*
G03X1635784Y-2750495I-33597J57150D01*
G03X1569490Y-2684201I-66294J0D01*
G03X1504267Y-2738624I0J-66294D01*
G03X1439044Y-2684201I-65223J-11870D01*
G03X1373822Y-2738625I0J-66294D01*
G03X1308599Y-2684201I-65223J-11870D01*
G03X1242305Y-2750495I0J-66294D01*
G03X1275002Y-2807645I66294J0D01*
G03X1242305Y-2864795I33597J-57150D01*
G03X1277530Y-2923358I66294J0D01*
G03X1242305Y-2981920I31069J-58563D01*
G03X1308599Y-3048214I66294J0D01*
G37*
G36*
G01X6127908Y-1729616D02*
G03X6193130Y-1784040I65223J11870D01*
G03X6258353Y-1729616I0J66294D01*
G03X6323576Y-1784040I65223J11870D01*
G03X6389870Y-1717746I0J66294D01*
G03X6354645Y-1659183I-66294J0D01*
G03X6389870Y-1600621I-31069J58563D01*
G03X6357173Y-1543471I-66294J0D01*
G03X6389870Y-1486321I-33597J57150D01*
G03X6323576Y-1420027I-66294J0D01*
G03X6258353Y-1474451I0J-66294D01*
G03X6193130Y-1420027I-65223J-11870D01*
G03X6127908Y-1474450I0J-66294D01*
G03X6062685Y-1420027I-65223J-11870D01*
G03X5996391Y-1486321I0J-66294D01*
G03X6029088Y-1543471I66294J0D01*
G03X5996391Y-1600621I33597J-57150D01*
G03X6031616Y-1659183I66294J0D01*
G03X5996391Y-1717746I31069J-58563D01*
G03X6062685Y-1784040I66294J0D01*
G03X6127908Y-1729616I0J66294D01*
G37*
G36*
G01X4498768Y-1313885D02*
G03X4563991Y-1368309I65223J11870D01*
G03X4629213Y-1313885I0J66294D01*
G03X4694436Y-1368309I65223J11870D01*
G03X4760730Y-1302015I0J66294D01*
G03X4725505Y-1243452I-66294J0D01*
G03X4760730Y-1184890I-31069J58563D01*
G03X4728033Y-1127740I-66294J0D01*
G03X4760730Y-1070590I-33597J57150D01*
G03X4694436Y-1004296I-66294J0D01*
G03X4629213Y-1058719I0J-66294D01*
G03X4563991Y-1004296I-65223J-11870D01*
G03X4498768Y-1058720I0J-66294D01*
G03X4433545Y-1004296I-65223J-11870D01*
G03X4367251Y-1070590I0J-66294D01*
G03X4399948Y-1127740I66294J0D01*
G03X4367251Y-1184890I33597J-57150D01*
G03X4402476Y-1243452I66294J0D01*
G03X4367251Y-1302015I31069J-58563D01*
G03X4433545Y-1368309I66294J0D01*
G03X4498768Y-1313885I0J66294D01*
G37*
G36*
G01X4499827Y-2189239D02*
G03X4565050Y-2243663I65223J11870D01*
G03X4630273Y-2189238I0J66294D01*
G03X4695496Y-2243663I65223J11870D01*
G03X4761790Y-2177369I0J66294D01*
G03X4726565Y-2118806I-66294J0D01*
G03X4761790Y-2060243I-31069J58563D01*
G03X4729093Y-2003093I-66294J0D01*
G03X4761790Y-1945943I-33597J57150D01*
G03X4695496Y-1879649I-66294J0D01*
G03X4630273Y-1934073I0J-66294D01*
G03X4565050Y-1879649I-65223J-11870D01*
G03X4499827Y-1934073I0J-66294D01*
G03X4434605Y-1879649I-65223J-11870D01*
G03X4368311Y-1945943I0J-66294D01*
G03X4401008Y-2003093I66294J0D01*
G03X4368311Y-2060243I33597J-57150D01*
G03X4403536Y-2118806I66294J0D01*
G03X4368311Y-2177369I31069J-58563D01*
G03X4434605Y-2243663I66294J0D01*
G03X4499827Y-2189239I0J66294D01*
G37*
G36*
G01X5997804Y-2171244D02*
G03X6064098Y-2237538I66294J0D01*
G03X6129320Y-2183114I0J66294D01*
G03X6194543Y-2237538I65223J11870D01*
G03X6259766Y-2183114I0J66294D01*
G03X6324989Y-2237538I65223J11870D01*
G03X6391283Y-2171244I0J66294D01*
G03X6356058Y-2112681I-66294J0D01*
G03X6391283Y-2054119I-31069J58563D01*
G03X6358586Y-1996969I-66294J0D01*
G03X6391283Y-1939819I-33597J57150D01*
G03X6324989Y-1873525I-66294J0D01*
G03X6259766Y-1927949I0J-66294D01*
G03X6194543Y-1873525I-65223J-11870D01*
G03X6129320Y-1927948I0J-66294D01*
G03X6064098Y-1873525I-65223J-11870D01*
G03X5997804Y-1939819I0J-66294D01*
G03X6030501Y-1996969I66294J0D01*
G03X5997804Y-2054119I33597J-57150D01*
G03X6033029Y-2112681I66294J0D01*
G03X5997804Y-2171244I31069J-58563D01*
G37*
G36*
G01X5996744Y-1295891D02*
G03X6063038Y-1362185I66294J0D01*
G03X6128261Y-1307760I0J66294D01*
G03X6193484Y-1362185I65223J11870D01*
G03X6258706Y-1307761I0J66294D01*
G03X6323929Y-1362185I65223J11870D01*
G03X6390223Y-1295891I0J66294D01*
G03X6354998Y-1237328I-66294J0D01*
G03X6390223Y-1178765I-31069J58563D01*
G03X6357526Y-1121615I-66294J0D01*
G03X6390223Y-1064465I-33597J57150D01*
G03X6323929Y-998171I-66294J0D01*
G03X6258706Y-1052595I0J-66294D01*
G03X6193484Y-998171I-65223J-11870D01*
G03X6128261Y-1052596I0J-66294D01*
G03X6063038Y-998171I-65223J-11870D01*
G03X5996744Y-1064465I0J-66294D01*
G03X6029441Y-1121615I66294J0D01*
G03X5996744Y-1178765I33597J-57150D01*
G03X6031969Y-1237328I66294J0D01*
G03X5996744Y-1295891I31069J-58563D01*
G37*
G36*
G01X3762234Y-2109203D02*
G03X3828528Y-2175497I66294J0D01*
G03X3893751Y-2121073I0J66294D01*
G03X3958974Y-2175497I65223J11870D01*
G03X4024196Y-2121072I0J66294D01*
G03X4089419Y-2175497I65223J11870D01*
G03X4155713Y-2109203I0J66294D01*
G03X4120488Y-2050640I-66294J0D01*
G03X4155713Y-1992077I-31069J58563D01*
G03X4123016Y-1934927I-66294J0D01*
G03X4155713Y-1877777I-33597J57150D01*
G03X4089419Y-1811483I-66294J0D01*
G03X4024196Y-1865907I0J-66294D01*
G03X3958974Y-1811483I-65223J-11870D01*
G03X3893751Y-1865907I0J-66294D01*
G03X3828528Y-1811483I-65223J-11870D01*
G03X3762234Y-1877777I0J-66294D01*
G03X3794931Y-1934927I66294J0D01*
G03X3762234Y-1992077I33597J-57150D01*
G03X3797459Y-2050640I66294J0D01*
G03X3762234Y-2109203I31069J-58563D01*
G37*
G36*
G01X3828528Y-1212219D02*
G03X3893751Y-1157796I0J66294D01*
G03X3958974Y-1212219I65223J11870D01*
G03X4024196Y-1157795I0J66294D01*
G03X4089419Y-1212219I65223J11870D01*
G03X4155713Y-1145925I0J66294D01*
G03X4120488Y-1087363I-66294J0D01*
G03X4155713Y-1028800I-31069J58563D01*
G03X4123016Y-971650I-66294J0D01*
G03X4155713Y-914500I-33597J57150D01*
G03X4089419Y-848206I-66294J0D01*
G03X4024196Y-902630I0J-66294D01*
G03X3958974Y-848206I-65223J-11870D01*
G03X3893751Y-902630I0J-66294D01*
G03X3828528Y-848206I-65223J-11870D01*
G03X3762234Y-914500I0J-66294D01*
G03X3794931Y-971650I66294J0D01*
G03X3762234Y-1028800I33597J-57150D01*
G03X3797459Y-1087363I66294J0D01*
G03X3762234Y-1145925I31069J-58563D01*
G03X3828528Y-1212219I66294J0D01*
G37*
G36*
G01X4694083Y-1790165D02*
G03X4760377Y-1723871I0J66294D01*
G03X4725152Y-1665308I-66294J0D01*
G03X4760377Y-1606745I-31069J58563D01*
G03X4727680Y-1549595I-66294J0D01*
G03X4760377Y-1492445I-33597J57150D01*
G03X4694083Y-1426151I-66294J0D01*
G03X4628860Y-1480576I0J-66294D01*
G03X4563637Y-1426151I-65223J-11870D01*
G03X4498415Y-1480575I0J-66294D01*
G03X4433192Y-1426151I-65223J-11870D01*
G03X4366898Y-1492445I0J-66294D01*
G03X4399595Y-1549595I66294J0D01*
G03X4366898Y-1606745I33597J-57150D01*
G03X4402123Y-1665308I66294J0D01*
G03X4366898Y-1723871I31069J-58563D01*
G03X4433192Y-1790165I66294J0D01*
G03X4498415Y-1735741I0J66294D01*
G03X4563637Y-1790165I65223J11870D01*
G03X4628860Y-1735740I0J66294D01*
G03X4694083Y-1790165I65223J11870D01*
G37*
G36*
G01X6605072Y-2125305D02*
G03X6671366Y-2191599I66294J0D01*
G03X6736589Y-2137174I0J66294D01*
G03X6801812Y-2191599I65223J11870D01*
G03X6867035Y-2137175I0J66294D01*
G03X6932257Y-2191599I65223J11870D01*
G03X6998551Y-2125305I0J66294D01*
G03X6963326Y-2066742I-66294J0D01*
G03X6998551Y-2008179I-31069J58563D01*
G03X6965854Y-1951029I-66294J0D01*
G03X6998551Y-1893879I-33597J57150D01*
G03X6932257Y-1827585I-66294J0D01*
G03X6867035Y-1882009I0J-66294D01*
G03X6801812Y-1827585I-65223J-11870D01*
G03X6736589Y-1882010I0J-66294D01*
G03X6671366Y-1827585I-65223J-11870D01*
G03X6605072Y-1893879I0J-66294D01*
G03X6637769Y-1951029I66294J0D01*
G03X6605072Y-2008179I33597J-57150D01*
G03X6640297Y-2066742I66294J0D01*
G03X6605072Y-2125305I31069J-58563D01*
G37*
G36*
G01X6612843Y-1149790D02*
G03X6679137Y-1216084I66294J0D01*
G03X6744359Y-1161660I0J66294D01*
G03X6809582Y-1216084I65223J11870D01*
G03X6874805Y-1161659I0J66294D01*
G03X6940028Y-1216084I65223J11870D01*
G03X7006322Y-1149790I0J66294D01*
G03X6971097Y-1091227I-66294J0D01*
G03X7006322Y-1032664I-31069J58563D01*
G03X6973625Y-975514I-66294J0D01*
G03X7006322Y-918364I-33597J57150D01*
G03X6940028Y-852070I-66294J0D01*
G03X6874805Y-906495I0J-66294D01*
G03X6809582Y-852070I-65223J-11870D01*
G03X6744359Y-906494I0J-66294D01*
G03X6679137Y-852070I-65223J-11870D01*
G03X6612843Y-918364I0J-66294D01*
G03X6645540Y-975514I66294J0D01*
G03X6612843Y-1032664I33597J-57150D01*
G03X6648067Y-1091227I66294J0D01*
G03X6612843Y-1149790I31069J-58563D01*
G37*
G36*
G01X546100Y-1307470D02*
G03X607334Y-1246236I0J61234D01*
G03X582105Y-1196706I-61234J0D01*
G03X607334Y-1147176I-36005J49530D01*
G03X582105Y-1097646I-61234J0D01*
G03X607334Y-1048116I-36005J49530D01*
G03X582105Y-998586I-61234J0D01*
G03X588518Y-993218I-36005J49530D01*
G03X630937Y-1010290I42418J44162D01*
G03X692171Y-949056I0J61234D01*
G03X666942Y-899526I-61234J0D01*
G03X692171Y-849996I-36005J49530D01*
G03X666942Y-800466I-61234J0D01*
G03X692171Y-750936I-36005J49530D01*
G03X630937Y-689701I-61234J0D01*
G03X588518Y-706773I0J-61234D01*
G03X546100Y-689701I-42418J-44162D01*
G03X484866Y-750936I0J-61234D01*
G03X510095Y-800466I61234J0D01*
G03X484866Y-849996I36005J-49530D01*
G03X510095Y-899526I61234J0D01*
G03X484866Y-949056I36005J-49530D01*
G03X510095Y-998586I61234J0D01*
G03X484866Y-1048116I36005J-49530D01*
G03X510095Y-1097646I61234J0D01*
G03X484866Y-1147176I36005J-49530D01*
G03X510095Y-1196706I61234J0D01*
G03X484866Y-1246236I36005J-49530D01*
G03X546100Y-1307470I61234J0D01*
G37*
G36*
G01X9296400Y-1183735D02*
G03X9452134Y-1028001I0J155734D01*
G03X9296400Y-872268I-155734J0D01*
G03X9202492Y-903766I0J-155734D01*
G03X9144000Y-860602I-58492J-18050D01*
G03X9082786Y-921816I0J-61214D01*
G03X9144000Y-983030I61214J0D01*
G03X9147328Y-982939I0J61214D01*
G03X9140666Y-1028001I149072J-45062D01*
G03X9141694Y-1045861I155734J0D01*
G03X9082786Y-1107032I2306J-61171D01*
G03X9144000Y-1168246I61214J0D01*
G03X9192669Y-1144160I0J61214D01*
G03X9296400Y-1183735I103731J116159D01*
G37*
G36*
G01X8232974Y-1357513D02*
G03X8299268Y-1423807I66294J0D01*
G03X8356418Y-1391110I0J66294D01*
G03X8413568Y-1423807I57150J33597D01*
G03X8479862Y-1357513I0J66294D01*
G03X8425438Y-1292290I-66294J0D01*
G03X8479862Y-1227068I-11870J65223D01*
G03X8425437Y-1161845I-66294J0D01*
G03X8479862Y-1096622I-11870J65223D01*
G03X8413568Y-1030328I-66294J0D01*
G03X8356418Y-1063025I0J-66294D01*
G03X8299268Y-1030328I-57150J-33597D01*
G03X8232974Y-1096622I0J-66294D01*
G03X8287398Y-1161845I66294J0D01*
G03X8232974Y-1227068I11870J-65223D01*
G03X8287397Y-1292290I66294J0D01*
G03X8232974Y-1357513I11870J-65223D01*
G37*
G36*
G01X7636273Y-1161423D02*
G03X7693423Y-1194120I57150J33597D01*
G03X7759717Y-1127826I0J66294D01*
G03X7705293Y-1062603I-66294J0D01*
G03X7759717Y-997381I-11870J65223D01*
G03X7705292Y-932158I-66294J0D01*
G03X7759717Y-866935I-11870J65223D01*
G03X7693423Y-800641I-66294J0D01*
G03X7636273Y-833338I0J-66294D01*
G03X7579123Y-800641I-57150J-33597D01*
G03X7512829Y-866935I0J-66294D01*
G03X7567253Y-932158I66294J0D01*
G03X7512829Y-997381I11870J-65223D01*
G03X7567252Y-1062603I66294J0D01*
G03X7512829Y-1127826I11870J-65223D01*
G03X7579123Y-1194120I66294J0D01*
G03X7636273Y-1161423I0J66294D01*
G37*
G36*
G01X7239482Y-1139215D02*
G03X7305776Y-1205509I66294J0D01*
G03X7362926Y-1172812I0J66294D01*
G03X7420076Y-1205509I57150J33597D01*
G03X7486370Y-1139215I0J66294D01*
G03X7431946Y-1073993I-66294J0D01*
G03X7486370Y-1008770I-11870J65223D01*
G03X7431945Y-943547I-66294J0D01*
G03X7486370Y-878324I-11870J65223D01*
G03X7420076Y-812030I-66294J0D01*
G03X7362926Y-844727I0J-66294D01*
G03X7305776Y-812030I-57150J-33597D01*
G03X7239482Y-878324I0J-66294D01*
G03X7293906Y-943547I66294J0D01*
G03X7239482Y-1008770I11870J-65223D01*
G03X7293906Y-1073993I66294J0D01*
G03X7239482Y-1139215I11870J-65223D01*
G37*
G36*
G01X8232974Y-951764D02*
G03X8299268Y-1018058I66294J0D01*
G03X8356418Y-985361I0J66294D01*
G03X8413568Y-1018058I57150J33597D01*
G03X8479862Y-951764I0J66294D01*
G03X8425438Y-886541I-66294J0D01*
G03X8479862Y-821319I-11870J65223D01*
G03X8425437Y-756096I-66294J0D01*
G03X8479862Y-690873I-11870J65223D01*
G03X8413568Y-624579I-66294J0D01*
G03X8356418Y-657276I0J-66294D01*
G03X8299268Y-624579I-57150J-33597D01*
G03X8232974Y-690873I0J-66294D01*
G03X8287398Y-756096I66294J0D01*
G03X8232974Y-821319I11870J-65223D01*
G03X8287397Y-886541I66294J0D01*
G03X8232974Y-951764I11870J-65223D01*
G37*
G36*
G01X563088Y-2975270D02*
G03X718822Y-2819536I0J155734D01*
G03X563088Y-2663802I-155734J0D01*
G03X407354Y-2819536I0J-155734D01*
G03X563088Y-2975270I155734J0D01*
G37*
G36*
G01X5473700Y-3553734D02*
G03X5534934Y-3492500I0J61234D01*
G03X5533036Y-3477372I-61234J0D01*
G03X5537200Y-3477514I4164J61072D01*
G03X5598414Y-3416300I0J61214D01*
G03X5559132Y-3359150I-61214J0D01*
G03X5598414Y-3302000I-21932J57150D01*
G03X5537200Y-3240786I-61214J0D01*
G03X5475986Y-3302000I0J-61214D01*
G03X5515268Y-3359150I61214J0D01*
G03X5475986Y-3416300I21932J-57150D01*
G03X5477880Y-3431409I61214J0D01*
G03X5473700Y-3431266I-4180J-61091D01*
G03X5469520Y-3431409I0J-61234D01*
G03X5471414Y-3416300I-59320J15109D01*
G03X5432132Y-3359150I-61214J0D01*
G03X5471414Y-3302000I-21932J57150D01*
G03X5410200Y-3240786I-61214J0D01*
G03X5348986Y-3302000I0J-61214D01*
G03X5388268Y-3359150I61214J0D01*
G03X5348986Y-3416300I21932J-57150D01*
G03X5410200Y-3477514I61214J0D01*
G03X5414364Y-3477372I0J61214D01*
G03X5412466Y-3492500I59336J-15128D01*
G03X5473700Y-3553734I61234J0D01*
G37*
G36*
G01X2667000Y-4125214D02*
G03X2728214Y-4064211I0J61214D01*
G01X2735812Y-4056612D01*
G03X2748534Y-4025900I-30712J30712D01*
G01Y-3764235D01*
G03X2766314Y-3721100I-43434J43135D01*
G03X2705100Y-3659886I-61214J0D01*
G03X2643886Y-3721100I0J-61214D01*
G03X2661666Y-3764235I61214J0D01*
G01Y-4003019D01*
G03X2605786Y-4064000I5334J-60981D01*
G03X2667000Y-4125214I61214J0D01*
G37*
G36*
G01X3833237Y-1703767D02*
G03X3899531Y-1637473I0J66294D01*
G03X3866835Y-1580323I-66294J0D01*
G03X3899531Y-1523173I-33597J57150D01*
G03X3833237Y-1456879I-66294J0D01*
G03X3768015Y-1511303I0J-66294D01*
G03X3702792Y-1456879I-65223J-11870D01*
G03X3636498Y-1523173I0J-66294D01*
G03X3669195Y-1580323I66294J0D01*
G03X3636498Y-1637473I33597J-57150D01*
G03X3702792Y-1703767I66294J0D01*
G03X3768015Y-1649342I0J66294D01*
G03X3833237Y-1703767I65223J11870D01*
G37*
G36*
G01X3683357Y-3397933D02*
G03X3809091Y-3523667I125734J0D01*
G03X3934825Y-3397933I0J125734D01*
G03X3809091Y-3272199I-125734J0D01*
G03X3683357Y-3397933I0J-125734D01*
G37*
G36*
G01X607297Y-2189728D02*
G03X665796Y-2232914I58499J18028D01*
G03X724295Y-2189728I0J61214D01*
G03X782794Y-2232914I58499J18028D01*
G03X844008Y-2171700I0J61214D01*
G03X782794Y-2110486I-61214J0D01*
G03X724295Y-2153672I0J-61214D01*
G03X665796Y-2110486I-58499J-18028D01*
G03X607297Y-2153672I0J-61214D01*
G03X548798Y-2110486I-58499J-18028D01*
G03X490299Y-2153672I0J-61214D01*
G03X431800Y-2110486I-58499J-18028D01*
G03X370586Y-2171700I0J-61214D01*
G03X431800Y-2232914I61214J0D01*
G03X490299Y-2189728I0J61214D01*
G03X548798Y-2232914I58499J18028D01*
G03X607297Y-2189728I0J61214D01*
G37*
G36*
G01X548798Y-2105914D02*
G03X607297Y-2062728I0J61214D01*
G03X665796Y-2105914I58499J18028D01*
G03X724295Y-2062728I0J61214D01*
G03X782794Y-2105914I58499J18028D01*
G03X844008Y-2044700I0J61214D01*
G03X782794Y-1983486I-61214J0D01*
G03X724295Y-2026672I0J-61214D01*
G03X665796Y-1983486I-58499J-18028D01*
G03X607297Y-2026672I0J-61214D01*
G03X548798Y-1983486I-58499J-18028D01*
G03X490299Y-2026672I0J-61214D01*
G03X431800Y-1983486I-58499J-18028D01*
G03X370586Y-2044700I0J-61214D01*
G03X431800Y-2105914I61214J0D01*
G03X490299Y-2062728I0J61214D01*
G03X548798Y-2105914I58499J18028D01*
G37*
G36*
G01X2054606Y-4318000D02*
G03X2120900Y-4384294I66294J0D01*
G03X2178050Y-4351597I0J66294D01*
G03X2235200Y-4384294I57150J33597D01*
G03X2301494Y-4318000I0J66294D01*
G03X2277794Y-4267200I-66294J0D01*
G03X2301494Y-4216400I-42594J50800D01*
G03X2235200Y-4150106I-66294J0D01*
G03X2178050Y-4182803I0J-66294D01*
G03X2120900Y-4150106I-57150J-33597D01*
G03X2054606Y-4216400I0J-66294D01*
G03X2078306Y-4267200I66294J0D01*
G03X2054606Y-4318000I42594J-50800D01*
G37*
G36*
G01X3619500Y-3883914D02*
G03X3679711Y-3833736I0J61214D01*
G03X3739773Y-3883128I60062J11822D01*
G03X3800987Y-3821914I0J61214D01*
G03X3761705Y-3764764I-61214J0D01*
G03X3800987Y-3707614I-21932J57150D01*
G03X3739773Y-3646400I-61214J0D01*
G03X3679562Y-3696578I0J-61214D01*
G03X3619500Y-3647186I-60062J-11822D01*
G03X3558286Y-3708400I0J-61214D01*
G03X3597568Y-3765550I61214J0D01*
G03X3558286Y-3822700I21932J-57150D01*
G03X3619500Y-3883914I61214J0D01*
G37*
G36*
G01X3365500Y-3883914D02*
G03X3425711Y-3833736I0J61214D01*
G03X3485773Y-3883128I60062J11822D01*
G03X3546987Y-3821914I0J61214D01*
G03X3508703Y-3765157I-61214J0D01*
G03X3546987Y-3708400I-22930J56757D01*
G03X3485773Y-3647186I-61214J0D01*
G03X3425562Y-3697364I0J-61214D01*
G03X3365500Y-3647972I-60062J-11822D01*
G03X3304286Y-3709186I0J-61214D01*
G03X3342570Y-3765943I61214J0D01*
G03X3304286Y-3822700I22930J-56757D01*
G03X3365500Y-3883914I61214J0D01*
G37*
G36*
G01X2311400Y-1301743D02*
G03X2374900Y-1348994I63500J19043D01*
G03X2441194Y-1282700I0J66294D01*
G03X2374900Y-1216406I-66294J0D01*
G03X2311400Y-1263657I0J-66294D01*
G03X2247900Y-1216406I-63500J-19043D01*
G03X2184400Y-1263657I0J-66294D01*
G03X2120900Y-1216406I-63500J-19043D01*
G03X2054606Y-1282700I0J-66294D01*
G03X2120900Y-1348994I66294J0D01*
G03X2184400Y-1301743I0J66294D01*
G03X2247900Y-1348994I63500J19043D01*
G03X2311400Y-1301743I0J66294D01*
G37*
G36*
G01X2908300Y-1387094D02*
G03X2974594Y-1320800I0J66294D01*
G03X2927343Y-1257300I-66294J0D01*
G03X2974594Y-1193800I-19043J63500D01*
G03X2927343Y-1130300I-66294J0D01*
G03X2974594Y-1066800I-19043J63500D01*
G03X2908300Y-1000506I-66294J0D01*
G03X2842006Y-1066800I0J-66294D01*
G03X2889257Y-1130300I66294J0D01*
G03X2842006Y-1193800I19043J-63500D01*
G03X2889257Y-1257300I66294J0D01*
G03X2842006Y-1320800I19043J-63500D01*
G03X2908300Y-1387094I66294J0D01*
G37*
G36*
G01X2304162Y-691503D02*
G03X2370456Y-757797I66294J0D01*
G03X2436750Y-691503I0J66294D01*
G03X2389499Y-628003I-66294J0D01*
G03X2436750Y-564503I-19043J63500D01*
G03X2389499Y-501003I-66294J0D01*
G03X2436750Y-437503I-19043J63500D01*
G03X2370456Y-371209I-66294J0D01*
G03X2304162Y-437503I0J-66294D01*
G03X2351413Y-501003I66294J0D01*
G03X2304162Y-564503I19043J-63500D01*
G03X2351413Y-628003I66294J0D01*
G03X2304162Y-691503I19043J-63500D01*
G37*
G36*
G01X2230756Y-757797D02*
G03X2297050Y-691503I0J66294D01*
G03X2249799Y-628003I-66294J0D01*
G03X2297050Y-564503I-19043J63500D01*
G03X2249799Y-501003I-66294J0D01*
G03X2297050Y-437503I-19043J63500D01*
G03X2230756Y-371209I-66294J0D01*
G03X2164462Y-437503I0J-66294D01*
G03X2211713Y-501003I66294J0D01*
G03X2164462Y-564503I19043J-63500D01*
G03X2211713Y-628003I66294J0D01*
G03X2164462Y-691503I19043J-63500D01*
G03X2230756Y-757797I66294J0D01*
G37*
G36*
G01X2311400Y-1441443D02*
G03X2374900Y-1488694I63500J19043D01*
G03X2441194Y-1422400I0J66294D01*
G03X2374900Y-1356106I-66294J0D01*
G03X2311400Y-1403357I0J-66294D01*
G03X2247900Y-1356106I-63500J-19043D01*
G03X2184400Y-1403357I0J-66294D01*
G03X2120900Y-1356106I-63500J-19043D01*
G03X2054606Y-1422400I0J-66294D01*
G03X2120900Y-1488694I66294J0D01*
G03X2184400Y-1441443I0J66294D01*
G03X2247900Y-1488694I63500J19043D01*
G03X2311400Y-1441443I0J66294D01*
G37*
G36*
G01X2168906Y-1130300D02*
G03X2235200Y-1196594I66294J0D01*
G03X2301494Y-1130300I0J66294D01*
G03X2254243Y-1066800I-66294J0D01*
G03X2301494Y-1003300I-19043J63500D01*
G03X2254243Y-939800I-66294J0D01*
G03X2301494Y-876300I-19043J63500D01*
G03X2235200Y-810006I-66294J0D01*
G03X2168906Y-876300I0J-66294D01*
G03X2216157Y-939800I66294J0D01*
G03X2168906Y-1003300I19043J-63500D01*
G03X2216157Y-1066800I66294J0D01*
G03X2168906Y-1130300I19043J-63500D01*
G37*
G36*
G01X3048000Y-967994D02*
G03X3114294Y-901700I0J66294D01*
G03X3067043Y-838200I-66294J0D01*
G03X3114294Y-774700I-19043J63500D01*
G03X3067043Y-711200I-66294J0D01*
G03X3114294Y-647700I-19043J63500D01*
G03X3048000Y-581406I-66294J0D01*
G03X2981706Y-647700I0J-66294D01*
G03X3028957Y-711200I66294J0D01*
G03X2981706Y-774700I19043J-63500D01*
G03X3028957Y-838200I66294J0D01*
G03X2981706Y-901700I19043J-63500D01*
G03X3048000Y-967994I66294J0D01*
G37*
G36*
G01X3048000Y-1387094D02*
G03X3114294Y-1320800I0J66294D01*
G03X3067043Y-1257300I-66294J0D01*
G03X3114294Y-1193800I-19043J63500D01*
G03X3067043Y-1130300I-66294J0D01*
G03X3114294Y-1066800I-19043J63500D01*
G03X3048000Y-1000506I-66294J0D01*
G03X2981706Y-1066800I0J-66294D01*
G03X3028957Y-1130300I66294J0D01*
G03X2981706Y-1193800I19043J-63500D01*
G03X3028957Y-1257300I66294J0D01*
G03X2981706Y-1320800I19043J-63500D01*
G03X3048000Y-1387094I66294J0D01*
G37*
G36*
G01X2374900Y-1196594D02*
G03X2441194Y-1130300I0J66294D01*
G03X2393943Y-1066800I-66294J0D01*
G03X2441194Y-1003300I-19043J63500D01*
G03X2393943Y-939800I-66294J0D01*
G03X2441194Y-876300I-19043J63500D01*
G03X2374900Y-810006I-66294J0D01*
G03X2308606Y-876300I0J-66294D01*
G03X2355857Y-939800I66294J0D01*
G03X2308606Y-1003300I19043J-63500D01*
G03X2355857Y-1066800I66294J0D01*
G03X2308606Y-1130300I19043J-63500D01*
G03X2374900Y-1196594I66294J0D01*
G37*
G36*
G01X2908300Y-967994D02*
G03X2974594Y-901700I0J66294D01*
G03X2927343Y-838200I-66294J0D01*
G03X2974594Y-774700I-19043J63500D01*
G03X2927343Y-711200I-66294J0D01*
G03X2974594Y-647700I-19043J63500D01*
G03X2908300Y-581406I-66294J0D01*
G03X2842006Y-647700I0J-66294D01*
G03X2889257Y-711200I66294J0D01*
G03X2842006Y-774700I19043J-63500D01*
G03X2889257Y-838200I66294J0D01*
G03X2842006Y-901700I19043J-63500D01*
G03X2908300Y-967994I66294J0D01*
G37*
G36*
G01X1828800Y-3574034D02*
G03X1897634Y-3505200I0J68834D01*
G03X1868745Y-3449142I-68834J0D01*
G03X1897634Y-3393084I-39945J56058D01*
G03X1865488Y-3334842I-68834J0D01*
G03X1897634Y-3276600I-36688J58242D01*
G03X1828800Y-3207766I-68834J0D01*
G03X1759966Y-3276600I0J-68834D01*
G03X1792112Y-3334842I68834J0D01*
G03X1759966Y-3393084I36688J-58242D01*
G03X1788855Y-3449142I68834J0D01*
G03X1759966Y-3505200I39945J-56058D01*
G03X1828800Y-3574034I68834J0D01*
G37*
G36*
G01X1245169Y-660242D02*
G03X1311463Y-593948I0J66294D01*
G03X1274390Y-534442I-66294J0D01*
G03X1309565Y-475906I-31119J58536D01*
G03X1274370Y-417359I-66294J0D01*
G03X1309565Y-358812I-31100J58547D01*
G03X1243271Y-292518I-66294J0D01*
G03X1176977Y-358812I0J-66294D01*
G03X1212171Y-417359I66294J0D01*
G03X1176977Y-475906I31100J-58547D01*
G03X1214049Y-535412I66294J0D01*
G03X1178875Y-593948I31119J-58536D01*
G03X1245169Y-660242I66294J0D01*
G37*
G36*
G01X2705100Y-1444234D02*
G03X2815834Y-1333500I0J110734D01*
G03X2705100Y-1222766I-110734J0D01*
G03X2594366Y-1333500I0J-110734D01*
G03X2705100Y-1444234I110734J0D01*
G37*
G36*
G01X2705100Y-898134D02*
G03X2815834Y-787400I0J110734D01*
G03X2705100Y-676666I-110734J0D01*
G03X2594366Y-787400I0J-110734D01*
G03X2705100Y-898134I110734J0D01*
G37*
G36*
G01X1460602Y-4615719D02*
G03X1526896Y-4549425I0J66294D01*
G03X1491671Y-4490863I-66294J0D01*
G03X1526896Y-4432300I-31069J58563D01*
G03X1494199Y-4375150I-66294J0D01*
G03X1526896Y-4318000I-33597J57150D01*
G03X1460602Y-4251706I-66294J0D01*
G03X1394308Y-4318000I0J-66294D01*
G03X1427004Y-4375150I66294J0D01*
G03X1394308Y-4432300I33597J-57150D01*
G03X1429532Y-4490863I66294J0D01*
G03X1394308Y-4549425I31069J-58563D01*
G03X1460602Y-4615719I66294J0D01*
G37*
G36*
G01X1333500Y-3561619D02*
G03X1399794Y-3495325I0J66294D01*
G03X1364569Y-3436763I-66294J0D01*
G03X1399794Y-3378200I-31069J58563D01*
G03X1367097Y-3321050I-66294J0D01*
G03X1399794Y-3263900I-33597J57150D01*
G03X1333500Y-3197606I-66294J0D01*
G03X1267206Y-3263900I0J-66294D01*
G03X1299903Y-3321050I66294J0D01*
G03X1267206Y-3378200I33597J-57150D01*
G03X1302431Y-3436763I66294J0D01*
G03X1267206Y-3495325I31069J-58563D01*
G03X1333500Y-3561619I66294J0D01*
G37*
G36*
G01X1498498Y-3536219D02*
G03X1564792Y-3469925I0J66294D01*
G03X1529568Y-3411363I-66294J0D01*
G03X1564792Y-3352800I-31069J58563D01*
G03X1532096Y-3295650I-66294J0D01*
G03X1564792Y-3238500I-33597J57150D01*
G03X1498498Y-3172206I-66294J0D01*
G03X1432204Y-3238500I0J-66294D01*
G03X1464901Y-3295650I66294J0D01*
G03X1432204Y-3352800I33597J-57150D01*
G03X1467429Y-3411363I66294J0D01*
G03X1432204Y-3469925I31069J-58563D01*
G03X1498498Y-3536219I66294J0D01*
G37*
G36*
G01X1178875Y-930186D02*
G03X1245169Y-996480I66294J0D01*
G03X1311463Y-930186I0J66294D01*
G03X1289233Y-880656I-66294J0D01*
G03X1311463Y-831126I-44064J49530D01*
G03X1289233Y-781596I-66294J0D01*
G03X1311463Y-732066I-44064J49530D01*
G03X1245169Y-665772I-66294J0D01*
G03X1178875Y-732066I0J-66294D01*
G03X1201105Y-781596I66294J0D01*
G03X1178875Y-831126I44064J-49530D01*
G03X1201105Y-880656I66294J0D01*
G03X1178875Y-930186I44064J-49530D01*
G37*
G36*
G01X3289300Y-4163314D02*
G03X3350514Y-4102100I0J61214D01*
G03X3340977Y-4069287I-61214J0D01*
G03X3365500Y-4074414I24523J56087D01*
G03X3426714Y-4013200I0J61214D01*
G03X3365500Y-3951986I-61214J0D01*
G03X3304286Y-4013200I0J-61214D01*
G03X3313823Y-4046013I61214J0D01*
G03X3289300Y-4040886I-24523J-56087D01*
G03X3228086Y-4102100I0J-61214D01*
G03X3289300Y-4163314I61214J0D01*
G37*
G36*
G01X1765300Y-4293514D02*
G03X1826514Y-4232300I0J61214D01*
G03X1811895Y-4192600I-61214J0D01*
G03X1826514Y-4152900I-46595J39700D01*
G03X1765300Y-4091686I-61214J0D01*
G03X1727200Y-4104988I0J-61214D01*
G03X1689100Y-4091686I-38100J-47912D01*
G03X1627886Y-4152900I0J-61214D01*
G03X1689100Y-4214114I61214J0D01*
G03X1707848Y-4211172I0J61214D01*
G03X1704086Y-4232300I57452J-21128D01*
G03X1765300Y-4293514I61214J0D01*
G37*
G36*
G01X5358206Y-3807714D02*
G03X5419420Y-3746500I0J61214D01*
G03X5403922Y-3705791I-61214J0D01*
G03X5410200Y-3706114I6278J60891D01*
G03X5471414Y-3644900I0J61214D01*
G03X5410200Y-3583686I-61214J0D01*
G03X5348986Y-3644900I0J-61214D01*
G03X5364484Y-3685609I61214J0D01*
G03X5358206Y-3685286I-6278J-60891D01*
G03X5296992Y-3746500I0J-61214D01*
G03X5358206Y-3807714I61214J0D01*
G37*
G36*
G01X952500Y-4137914D02*
G03X984250Y-4129036I0J61214D01*
G03X1016000Y-4137914I31750J52336D01*
G03X1077214Y-4076700I0J61214D01*
G03X1068336Y-4044950I-61214J0D01*
G03X1077214Y-4013200I-52336J31750D01*
G03X1016000Y-3951986I-61214J0D01*
G03X984250Y-3960864I0J-61214D01*
G03X952500Y-3951986I-31750J-52336D01*
G03X891286Y-4013200I0J-61214D01*
G03X900164Y-4044950I61214J0D01*
G03X891286Y-4076700I52336J-31750D01*
G03X952500Y-4137914I61214J0D01*
G37*
G36*
G01X5221986Y-3416300D02*
G03X5283200Y-3477514I61214J0D01*
G03X5344414Y-3416300I0J61214D01*
G03X5305132Y-3359150I-61214J0D01*
G03X5344414Y-3302000I-21932J57150D01*
G03X5283200Y-3240786I-61214J0D01*
G03X5221986Y-3302000I0J-61214D01*
G03X5261268Y-3359150I61214J0D01*
G03X5221986Y-3416300I21932J-57150D01*
G37*
G36*
G01X3429000Y-4652024D02*
G03X3490214Y-4590810I0J61214D01*
G03X3463154Y-4540010I-61214J0D01*
G03X3490214Y-4489210I-34154J50800D01*
G03X3429000Y-4427996I-61214J0D01*
G03X3367786Y-4489210I0J-61214D01*
G03X3394846Y-4540010I61214J0D01*
G03X3367786Y-4590810I34154J-50800D01*
G03X3429000Y-4652024I61214J0D01*
G37*
G36*
G01X3513836Y-4590810D02*
G03X3575050Y-4652024I61214J0D01*
G03X3636264Y-4590810I0J61214D01*
G03X3609204Y-4540010I-61214J0D01*
G03X3636264Y-4489210I-34154J50800D01*
G03X3575050Y-4427996I-61214J0D01*
G03X3513836Y-4489210I0J-61214D01*
G03X3540896Y-4540010I61214J0D01*
G03X3513836Y-4590810I34154J-50800D01*
G37*
G36*
G01X3721100Y-4652024D02*
G03X3782314Y-4590810I0J61214D01*
G03X3755254Y-4540010I-61214J0D01*
G03X3782314Y-4489210I-34154J50800D01*
G03X3721100Y-4427996I-61214J0D01*
G03X3659886Y-4489210I0J-61214D01*
G03X3686946Y-4540010I61214J0D01*
G03X3659886Y-4590810I34154J-50800D01*
G03X3721100Y-4652024I61214J0D01*
G37*
G36*
G01X8210530Y-2912815D02*
G03X8271744Y-2851601I0J61214D01*
G03X8248707Y-2803750I-61214J0D01*
G03X8271744Y-2755900I-38177J47850D01*
G03X8210530Y-2694686I-61214J0D01*
G03X8149316Y-2755900I0J-61214D01*
G03X8172353Y-2803750I61214J0D01*
G03X8149316Y-2851601I38177J-47850D01*
G03X8210530Y-2912815I61214J0D01*
G37*
G36*
G01X5056866Y-3175000D02*
G03X5118100Y-3236234I61234J0D01*
G03X5163147Y-3216478I0J61234D01*
G03X5208194Y-3236234I45047J41478D01*
G03X5269428Y-3175000I0J61234D01*
G03X5208194Y-3113766I-61234J0D01*
G03X5163147Y-3133522I0J-61234D01*
G03X5118100Y-3113766I-45047J-41478D01*
G03X5056866Y-3175000I0J-61234D01*
G37*
G36*
G01X1282971Y-4172852D02*
G03X1344185Y-4111638I0J61214D01*
G03X1329594Y-4071971I-61214J0D01*
G03X1344185Y-4032305I-46623J39667D01*
G03X1282971Y-3971091I-61214J0D01*
G03X1221757Y-4032305I0J-61214D01*
G03X1236347Y-4071971I61214J0D01*
G03X1221757Y-4111638I46623J-39667D01*
G03X1282971Y-4172852I61214J0D01*
G37*
G36*
G01X7759700Y-3199384D02*
G03X7834884Y-3124200I0J75184D01*
G03X7759700Y-3049016I-75184J0D01*
G03X7684516Y-3124200I0J-75184D01*
G03X7759700Y-3199384I75184J0D01*
G37*
G36*
G01X5905500Y-4726869D02*
G03X5976155Y-4656214I0J70655D01*
G03X5905500Y-4585559I-70655J0D01*
G03X5834845Y-4656214I0J-70655D01*
G03X5905500Y-4726869I70655J0D01*
G37*
G36*
G01X5905500Y-4456841D02*
G03X5976155Y-4386186I0J70655D01*
G03X5905500Y-4315531I-70655J0D01*
G03X5834845Y-4386186I0J-70655D01*
G03X5905500Y-4456841I70655J0D01*
G37*
G36*
G01X2880106Y-4292600D02*
G03X2946400Y-4358894I66294J0D01*
G03X3012694Y-4292600I0J66294D01*
G03X2946400Y-4226306I-66294J0D01*
G03X2880106Y-4292600I0J-66294D01*
G37*
G36*
G01X1931416Y-3787394D02*
G03X1997710Y-3721100I0J66294D01*
G03X1931416Y-3654806I-66294J0D01*
G03X1865122Y-3721100I0J-66294D01*
G03X1931416Y-3787394I66294J0D01*
G37*
G36*
G01X2197100Y-4511294D02*
G03X2263394Y-4445000I0J66294D01*
G03X2197100Y-4378706I-66294J0D01*
G03X2130806Y-4445000I0J-66294D01*
G03X2197100Y-4511294I66294J0D01*
G37*
G36*
G01X4229100Y-1653794D02*
G03X4295394Y-1587500I0J66294D01*
G03X4229100Y-1521206I-66294J0D01*
G03X4162806Y-1587500I0J-66294D01*
G03X4229100Y-1653794I66294J0D01*
G37*
G36*
G01X1914906Y-4432300D02*
G03X1981200Y-4498594I66294J0D01*
G03X2047494Y-4432300I0J66294D01*
G03X1981200Y-4366006I-66294J0D01*
G03X1914906Y-4432300I0J-66294D01*
G37*
G36*
G01X1981200Y-4650994D02*
G03X2047494Y-4584700I0J66294D01*
G03X1981200Y-4518406I-66294J0D01*
G03X1914906Y-4584700I0J-66294D01*
G03X1981200Y-4650994I66294J0D01*
G37*
G36*
G01X7528901Y-2044700D02*
G03X7590135Y-2105934I61234J0D01*
G03X7651369Y-2044700I0J61234D01*
G03X7590135Y-1983466I-61234J0D01*
G03X7528901Y-2044700I0J-61234D01*
G37*
G36*
G01X7493000Y-2829834D02*
G03X7554234Y-2768600I0J61234D01*
G03X7493000Y-2707366I-61234J0D01*
G03X7431766Y-2768600I0J-61234D01*
G03X7493000Y-2829834I61234J0D01*
G37*
G36*
G01X7073900Y-1966234D02*
G03X7135134Y-1905000I0J61234D01*
G03X7073900Y-1843766I-61234J0D01*
G03X7012666Y-1905000I0J-61234D01*
G03X7073900Y-1966234I61234J0D01*
G37*
G36*
G01X6505878Y-2715534D02*
G03X6567112Y-2654300I0J61234D01*
G03X6505878Y-2593066I-61234J0D01*
G03X6444644Y-2654300I0J-61234D01*
G03X6505878Y-2715534I61234J0D01*
G37*
G36*
G01X3209879Y-3020334D02*
G03X3271113Y-2959100I0J61234D01*
G03X3209879Y-2897866I-61234J0D01*
G03X3148644Y-2959100I0J-61234D01*
G03X3209879Y-3020334I61234J0D01*
G37*
G36*
G01X7203166Y-4508500D02*
G03X7264400Y-4569734I61234J0D01*
G03X7325634Y-4508500I0J61234D01*
G03X7264400Y-4447266I-61234J0D01*
G03X7203166Y-4508500I0J-61234D01*
G37*
G36*
G01X2679700Y-3160034D02*
G03X2740934Y-3098800I0J61234D01*
G03X2679700Y-3037566I-61234J0D01*
G03X2618466Y-3098800I0J-61234D01*
G03X2679700Y-3160034I61234J0D01*
G37*
G36*
G01X1932666Y-1651000D02*
G03X1993900Y-1712234I61234J0D01*
G03X2055134Y-1651000I0J61234D01*
G03X1993900Y-1589766I-61234J0D01*
G03X1932666Y-1651000I0J-61234D01*
G37*
G36*
G01X3365500Y-2245634D02*
G03X3426734Y-2184400I0J61234D01*
G03X3365500Y-2123166I-61234J0D01*
G03X3304266Y-2184400I0J-61234D01*
G03X3365500Y-2245634I61234J0D01*
G37*
G36*
G01X2515464Y-4417334D02*
G03X2576698Y-4356100I0J61234D01*
G03X2515464Y-4294866I-61234J0D01*
G03X2454230Y-4356100I0J-61234D01*
G03X2515464Y-4417334I61234J0D01*
G37*
G36*
G01X3416300Y-2994934D02*
G03X3477534Y-2933700I0J61234D01*
G03X3416300Y-2872466I-61234J0D01*
G03X3355066Y-2933700I0J-61234D01*
G03X3416300Y-2994934I61234J0D01*
G37*
G36*
G01X2375764Y-4417334D02*
G03X2436998Y-4356100I0J61234D01*
G03X2375764Y-4294866I-61234J0D01*
G03X2314530Y-4356100I0J-61234D01*
G03X2375764Y-4417334I61234J0D01*
G37*
G36*
G01X5511800Y-2956834D02*
G03X5573034Y-2895600I0J61234D01*
G03X5511800Y-2834366I-61234J0D01*
G03X5450566Y-2895600I0J-61234D01*
G03X5511800Y-2956834I61234J0D01*
G37*
G36*
G01X3443966Y-3301657D02*
G03X3505200Y-3362891I61234J0D01*
G03X3566434Y-3301657I0J61234D01*
G03X3505200Y-3240423I-61234J0D01*
G03X3443966Y-3301657I0J-61234D01*
G37*
G36*
G01X4955266Y-3302000D02*
G03X5016500Y-3363234I61234J0D01*
G03X5077734Y-3302000I0J61234D01*
G03X5016500Y-3240766I-61234J0D01*
G03X4955266Y-3302000I0J-61234D01*
G37*
G36*
G01X3975100Y-3701558D02*
G03X4036334Y-3640324I0J61234D01*
G03X3975100Y-3579090I-61234J0D01*
G03X3913866Y-3640324I0J-61234D01*
G03X3975100Y-3701558I61234J0D01*
G37*
G36*
G01X4650466Y-3441700D02*
G03X4711700Y-3502934I61234J0D01*
G03X4772934Y-3441700I0J61234D01*
G03X4711700Y-3380466I-61234J0D01*
G03X4650466Y-3441700I0J-61234D01*
G37*
G36*
G01X4980666Y-3441700D02*
G03X5041900Y-3502934I61234J0D01*
G03X5103134Y-3441700I0J61234D01*
G03X5041900Y-3380466I-61234J0D01*
G03X4980666Y-3441700I0J-61234D01*
G37*
G36*
G01X3581400Y-3532225D02*
G03X3642634Y-3470991I0J61234D01*
G03X3581400Y-3409756I-61234J0D01*
G03X3520166Y-3470991I0J-61234D01*
G03X3581400Y-3532225I61234J0D01*
G37*
G36*
G01X8997950Y-983030D02*
G03X9059164Y-921816I0J61214D01*
G03X8997950Y-860602I-61214J0D01*
G03X8936736Y-921816I0J-61214D01*
G03X8997950Y-983030I61214J0D01*
G37*
G36*
G01X8851900Y-983030D02*
G03X8913114Y-921816I0J61214D01*
G03X8851900Y-860602I-61214J0D01*
G03X8790686Y-921816I0J-61214D01*
G03X8851900Y-983030I61214J0D01*
G37*
G36*
G01X9417050Y-797814D02*
G03X9478264Y-736600I0J61214D01*
G03X9417050Y-675386I-61214J0D01*
G03X9355836Y-736600I0J-61214D01*
G03X9417050Y-797814I61214J0D01*
G37*
G36*
G01X8851900Y-797814D02*
G03X8913114Y-736600I0J61214D01*
G03X8851900Y-675386I-61214J0D01*
G03X8790686Y-736600I0J-61214D01*
G03X8851900Y-797814I61214J0D01*
G37*
G36*
G01X9271000Y-797814D02*
G03X9332214Y-736600I0J61214D01*
G03X9271000Y-675386I-61214J0D01*
G03X9209786Y-736600I0J-61214D01*
G03X9271000Y-797814I61214J0D01*
G37*
G36*
G01X8997950Y-797814D02*
G03X9059164Y-736600I0J61214D01*
G03X8997950Y-675386I-61214J0D01*
G03X8936736Y-736600I0J-61214D01*
G03X8997950Y-797814I61214J0D01*
G37*
G36*
G01X9082786Y-736600D02*
G03X9144000Y-797814I61214J0D01*
G03X9205214Y-736600I0J61214D01*
G03X9144000Y-675386I-61214J0D01*
G03X9082786Y-736600I0J-61214D01*
G37*
G36*
G01X7469886Y-3632200D02*
G03X7531100Y-3693414I61214J0D01*
G03X7592314Y-3632200I0J61214D01*
G03X7531100Y-3570986I-61214J0D01*
G03X7469886Y-3632200I0J-61214D01*
G37*
G36*
G01X8955786Y-3937000D02*
G03X9017000Y-3998214I61214J0D01*
G03X9078214Y-3937000I0J61214D01*
G03X9017000Y-3875786I-61214J0D01*
G03X8955786Y-3937000I0J-61214D01*
G37*
G36*
G01X7048500Y-4518914D02*
G03X7109714Y-4457700I0J61214D01*
G03X7048500Y-4396486I-61214J0D01*
G03X6987286Y-4457700I0J-61214D01*
G03X7048500Y-4518914I61214J0D01*
G37*
G36*
G01X6860286Y-4457700D02*
G03X6921500Y-4518914I61214J0D01*
G03X6982714Y-4457700I0J61214D01*
G03X6921500Y-4396486I-61214J0D01*
G03X6860286Y-4457700I0J-61214D01*
G37*
G36*
G01X8763000Y-4404614D02*
G03X8824214Y-4343400I0J61214D01*
G03X8763000Y-4282186I-61214J0D01*
G03X8701786Y-4343400I0J-61214D01*
G03X8763000Y-4404614I61214J0D01*
G37*
G36*
G01X7404100Y-3553714D02*
G03X7465314Y-3492500I0J61214D01*
G03X7404100Y-3431286I-61214J0D01*
G03X7342886Y-3492500I0J-61214D01*
G03X7404100Y-3553714I61214J0D01*
G37*
G36*
G01X8701786Y-4483100D02*
G03X8763000Y-4544314I61214J0D01*
G03X8824214Y-4483100I0J61214D01*
G03X8763000Y-4421886I-61214J0D01*
G03X8701786Y-4483100I0J-61214D01*
G37*
G36*
G01X8574786Y-4483100D02*
G03X8636000Y-4544314I61214J0D01*
G03X8697214Y-4483100I0J61214D01*
G03X8636000Y-4421886I-61214J0D01*
G03X8574786Y-4483100I0J-61214D01*
G37*
G36*
G01X7531100Y-3553714D02*
G03X7592314Y-3492500I0J61214D01*
G03X7531100Y-3431286I-61214J0D01*
G03X7469886Y-3492500I0J-61214D01*
G03X7531100Y-3553714I61214J0D01*
G37*
G36*
G01X7277100Y-3553714D02*
G03X7338314Y-3492500I0J61214D01*
G03X7277100Y-3431286I-61214J0D01*
G03X7215886Y-3492500I0J-61214D01*
G03X7277100Y-3553714I61214J0D01*
G37*
G36*
G01X8999848Y-1509118D02*
G03X9061062Y-1447904I0J61214D01*
G03X8999848Y-1386690I-61214J0D01*
G03X8938634Y-1447904I0J-61214D01*
G03X8999848Y-1509118I61214J0D01*
G37*
G36*
G01X8447786Y-4483100D02*
G03X8509000Y-4544314I61214J0D01*
G03X8570214Y-4483100I0J61214D01*
G03X8509000Y-4421886I-61214J0D01*
G03X8447786Y-4483100I0J-61214D01*
G37*
G36*
G01X6860286Y-4330700D02*
G03X6921500Y-4391914I61214J0D01*
G03X6982714Y-4330700I0J61214D01*
G03X6921500Y-4269486I-61214J0D01*
G03X6860286Y-4330700I0J-61214D01*
G37*
G36*
G01X7342886Y-3632200D02*
G03X7404100Y-3693414I61214J0D01*
G03X7465314Y-3632200I0J61214D01*
G03X7404100Y-3570986I-61214J0D01*
G03X7342886Y-3632200I0J-61214D01*
G37*
G36*
G01X8574786Y-4343400D02*
G03X8636000Y-4404614I61214J0D01*
G03X8697214Y-4343400I0J61214D01*
G03X8636000Y-4282186I-61214J0D01*
G03X8574786Y-4343400I0J-61214D01*
G37*
G36*
G01X6987286Y-4597400D02*
G03X7048500Y-4658614I61214J0D01*
G03X7109714Y-4597400I0J61214D01*
G03X7048500Y-4536186I-61214J0D01*
G03X6987286Y-4597400I0J-61214D01*
G37*
G36*
G01X7469886Y-3911600D02*
G03X7531100Y-3972814I61214J0D01*
G03X7592314Y-3911600I0J61214D01*
G03X7531100Y-3850386I-61214J0D01*
G03X7469886Y-3911600I0J-61214D01*
G37*
G36*
G01X7215886Y-3632200D02*
G03X7277100Y-3693414I61214J0D01*
G03X7338314Y-3632200I0J61214D01*
G03X7277100Y-3570986I-61214J0D01*
G03X7215886Y-3632200I0J-61214D01*
G37*
G36*
G01X8447786Y-4343400D02*
G03X8509000Y-4404614I61214J0D01*
G03X8570214Y-4343400I0J61214D01*
G03X8509000Y-4282186I-61214J0D01*
G03X8447786Y-4343400I0J-61214D01*
G37*
G36*
G01X8574786Y-4622800D02*
G03X8636000Y-4684014I61214J0D01*
G03X8697214Y-4622800I0J61214D01*
G03X8636000Y-4561586I-61214J0D01*
G03X8574786Y-4622800I0J-61214D01*
G37*
G36*
G01X8013700Y-2956814D02*
G03X8074914Y-2895600I0J61214D01*
G03X8013700Y-2834386I-61214J0D01*
G03X7952486Y-2895600I0J-61214D01*
G03X8013700Y-2956814I61214J0D01*
G37*
G36*
G01X7759700Y-2956814D02*
G03X7820914Y-2895600I0J61214D01*
G03X7759700Y-2834386I-61214J0D01*
G03X7698486Y-2895600I0J-61214D01*
G03X7759700Y-2956814I61214J0D01*
G37*
G36*
G01X6733286Y-4330700D02*
G03X6794500Y-4391914I61214J0D01*
G03X6855714Y-4330700I0J61214D01*
G03X6794500Y-4269486I-61214J0D01*
G03X6733286Y-4330700I0J-61214D01*
G37*
G36*
G01X8828786Y-4203700D02*
G03X8890000Y-4264914I61214J0D01*
G03X8951214Y-4203700I0J61214D01*
G03X8890000Y-4142486I-61214J0D01*
G03X8828786Y-4203700I0J-61214D01*
G37*
G36*
G01X9144000Y-3998214D02*
G03X9205214Y-3937000I0J61214D01*
G03X9144000Y-3875786I-61214J0D01*
G03X9082786Y-3937000I0J-61214D01*
G03X9144000Y-3998214I61214J0D01*
G37*
G36*
G01X7342886Y-3911600D02*
G03X7404100Y-3972814I61214J0D01*
G03X7465314Y-3911600I0J61214D01*
G03X7404100Y-3850386I-61214J0D01*
G03X7342886Y-3911600I0J-61214D01*
G37*
G36*
G01X8701786Y-4622800D02*
G03X8763000Y-4684014I61214J0D01*
G03X8824214Y-4622800I0J61214D01*
G03X8763000Y-4561586I-61214J0D01*
G03X8701786Y-4622800I0J-61214D01*
G37*
G36*
G01X8574786Y-4203700D02*
G03X8636000Y-4264914I61214J0D01*
G03X8697214Y-4203700I0J61214D01*
G03X8636000Y-4142486I-61214J0D01*
G03X8574786Y-4203700I0J-61214D01*
G37*
G36*
G01X8892286Y-2730500D02*
G03X8953500Y-2791714I61214J0D01*
G03X9014714Y-2730500I0J61214D01*
G03X8953500Y-2669286I-61214J0D01*
G03X8892286Y-2730500I0J-61214D01*
G37*
G36*
G01X7759700Y-2817114D02*
G03X7820914Y-2755900I0J61214D01*
G03X7759700Y-2694686I-61214J0D01*
G03X7698486Y-2755900I0J-61214D01*
G03X7759700Y-2817114I61214J0D01*
G37*
G36*
G01X9082786Y-1292248D02*
G03X9144000Y-1353462I61214J0D01*
G03X9205214Y-1292248I0J61214D01*
G03X9144000Y-1231034I-61214J0D01*
G03X9082786Y-1292248I0J-61214D01*
G37*
G36*
G01X6606286Y-4191000D02*
G03X6667500Y-4252214I61214J0D01*
G03X6728714Y-4191000I0J61214D01*
G03X6667500Y-4129786I-61214J0D01*
G03X6606286Y-4191000I0J-61214D01*
G37*
G36*
G01X9144000Y-4264914D02*
G03X9205214Y-4203700I0J61214D01*
G03X9144000Y-4142486I-61214J0D01*
G03X9082786Y-4203700I0J-61214D01*
G03X9144000Y-4264914I61214J0D01*
G37*
G36*
G01X8638286Y-2730500D02*
G03X8699500Y-2791714I61214J0D01*
G03X8760714Y-2730500I0J61214D01*
G03X8699500Y-2669286I-61214J0D01*
G03X8638286Y-2730500I0J-61214D01*
G37*
G36*
G01X7404100Y-4112514D02*
G03X7465314Y-4051300I0J61214D01*
G03X7404100Y-3990086I-61214J0D01*
G03X7342886Y-4051300I0J-61214D01*
G03X7404100Y-4112514I61214J0D01*
G37*
G36*
G01X7215886Y-4051300D02*
G03X7277100Y-4112514I61214J0D01*
G03X7338314Y-4051300I0J61214D01*
G03X7277100Y-3990086I-61214J0D01*
G03X7215886Y-4051300I0J-61214D01*
G37*
G36*
G01X6860286Y-4191000D02*
G03X6921500Y-4252214I61214J0D01*
G03X6982714Y-4191000I0J61214D01*
G03X6921500Y-4129786I-61214J0D01*
G03X6860286Y-4191000I0J-61214D01*
G37*
G36*
G01X7215886Y-3911600D02*
G03X7277100Y-3972814I61214J0D01*
G03X7338314Y-3911600I0J61214D01*
G03X7277100Y-3850386I-61214J0D01*
G03X7215886Y-3911600I0J-61214D01*
G37*
G36*
G01X6606286Y-4330700D02*
G03X6667500Y-4391914I61214J0D01*
G03X6728714Y-4330700I0J61214D01*
G03X6667500Y-4269486I-61214J0D01*
G03X6606286Y-4330700I0J-61214D01*
G37*
G36*
G01X6654800Y-4609010D02*
G03X6716014Y-4547796I0J61214D01*
G03X6654800Y-4486582I-61214J0D01*
G03X6593586Y-4547796I0J-61214D01*
G03X6654800Y-4609010I61214J0D01*
G37*
G36*
G01X9144000Y-4137914D02*
G03X9205214Y-4076700I0J61214D01*
G03X9144000Y-4015486I-61214J0D01*
G03X9082786Y-4076700I0J-61214D01*
G03X9144000Y-4137914I61214J0D01*
G37*
G36*
G01X8828786Y-3937000D02*
G03X8890000Y-3998214I61214J0D01*
G03X8951214Y-3937000I0J61214D01*
G03X8890000Y-3875786I-61214J0D01*
G03X8828786Y-3937000I0J-61214D01*
G37*
G36*
G01X9017000Y-4137914D02*
G03X9078214Y-4076700I0J61214D01*
G03X9017000Y-4015486I-61214J0D01*
G03X8955786Y-4076700I0J-61214D01*
G03X9017000Y-4137914I61214J0D01*
G37*
G36*
G01X6921500Y-4658614D02*
G03X6982714Y-4597400I0J61214D01*
G03X6921500Y-4536186I-61214J0D01*
G03X6860286Y-4597400I0J-61214D01*
G03X6921500Y-4658614I61214J0D01*
G37*
G36*
G01X7469886Y-4051300D02*
G03X7531100Y-4112514I61214J0D01*
G03X7592314Y-4051300I0J61214D01*
G03X7531100Y-3990086I-61214J0D01*
G03X7469886Y-4051300I0J-61214D01*
G37*
G36*
G01X8997950Y-1353462D02*
G03X9059164Y-1292248I0J61214D01*
G03X8997950Y-1231034I-61214J0D01*
G03X8936736Y-1292248I0J-61214D01*
G03X8997950Y-1353462I61214J0D01*
G37*
G36*
G01X8890000Y-4137914D02*
G03X8951214Y-4076700I0J61214D01*
G03X8890000Y-4015486I-61214J0D01*
G03X8828786Y-4076700I0J-61214D01*
G03X8890000Y-4137914I61214J0D01*
G37*
G36*
G01X8509000Y-4684014D02*
G03X8570214Y-4622800I0J61214D01*
G03X8509000Y-4561586I-61214J0D01*
G03X8447786Y-4622800I0J-61214D01*
G03X8509000Y-4684014I61214J0D01*
G37*
G36*
G01X8938675Y-2448814D02*
G03X8999889Y-2387600I0J61214D01*
G03X8938675Y-2326386I-61214J0D01*
G03X8877461Y-2387600I0J-61214D01*
G03X8938675Y-2448814I61214J0D01*
G37*
G36*
G01X8790686Y-1107032D02*
G03X8851900Y-1168246I61214J0D01*
G03X8913114Y-1107032I0J61214D01*
G03X8851900Y-1045818I-61214J0D01*
G03X8790686Y-1107032I0J-61214D01*
G37*
G36*
G01X6794500Y-4252214D02*
G03X6855714Y-4191000I0J61214D01*
G03X6794500Y-4129786I-61214J0D01*
G03X6733286Y-4191000I0J-61214D01*
G03X6794500Y-4252214I61214J0D01*
G37*
G36*
G01X8936736Y-1107032D02*
G03X8997950Y-1168246I61214J0D01*
G03X9059164Y-1107032I0J61214D01*
G03X8997950Y-1045818I-61214J0D01*
G03X8936736Y-1107032I0J-61214D01*
G37*
G36*
G01X9017000Y-4264914D02*
G03X9078214Y-4203700I0J61214D01*
G03X9017000Y-4142486I-61214J0D01*
G03X8955786Y-4203700I0J-61214D01*
G03X9017000Y-4264914I61214J0D01*
G37*
G36*
G01X8851900Y-1353462D02*
G03X8913114Y-1292248I0J61214D01*
G03X8851900Y-1231034I-61214J0D01*
G03X8790686Y-1292248I0J-61214D01*
G03X8851900Y-1353462I61214J0D01*
G37*
G36*
G01X8509000Y-4264914D02*
G03X8570214Y-4203700I0J61214D01*
G03X8509000Y-4142486I-61214J0D01*
G03X8447786Y-4203700I0J-61214D01*
G03X8509000Y-4264914I61214J0D01*
G37*
G36*
G01X7825486Y-2755900D02*
G03X7886700Y-2817114I61214J0D01*
G03X7947914Y-2755900I0J61214D01*
G03X7886700Y-2694686I-61214J0D01*
G03X7825486Y-2755900I0J-61214D01*
G37*
G36*
G01X8792584Y-1447904D02*
G03X8853798Y-1509118I61214J0D01*
G03X8915012Y-1447904I0J61214D01*
G03X8853798Y-1386690I-61214J0D01*
G03X8792584Y-1447904I0J-61214D01*
G37*
G36*
G01X8701786Y-4203700D02*
G03X8763000Y-4264914I61214J0D01*
G03X8824214Y-4203700I0J61214D01*
G03X8763000Y-4142486I-61214J0D01*
G03X8701786Y-4203700I0J-61214D01*
G37*
G36*
G01X8765286Y-2730500D02*
G03X8826500Y-2791714I61214J0D01*
G03X8887714Y-2730500I0J61214D01*
G03X8826500Y-2669286I-61214J0D01*
G03X8765286Y-2730500I0J-61214D01*
G37*
G36*
G01X7825486Y-2895600D02*
G03X7886700Y-2956814I61214J0D01*
G03X7947914Y-2895600I0J61214D01*
G03X7886700Y-2834386I-61214J0D01*
G03X7825486Y-2895600I0J-61214D01*
G37*
G36*
G01X7952486Y-2755900D02*
G03X8013700Y-2817114I61214J0D01*
G03X8074914Y-2755900I0J61214D01*
G03X8013700Y-2694686I-61214J0D01*
G03X7952486Y-2755900I0J-61214D01*
G37*
G36*
G01X6464300Y-3718814D02*
G03X6525514Y-3657600I0J61214D01*
G03X6464300Y-3596386I-61214J0D01*
G03X6403086Y-3657600I0J-61214D01*
G03X6464300Y-3718814I61214J0D01*
G37*
G36*
G01X812800Y-4239514D02*
G03X874014Y-4178300I0J61214D01*
G03X812800Y-4117086I-61214J0D01*
G03X751586Y-4178300I0J-61214D01*
G03X812800Y-4239514I61214J0D01*
G37*
G36*
G01X2275586Y-2417528D02*
G03X2336800Y-2478742I61214J0D01*
G03X2398014Y-2417528I0J61214D01*
G03X2336800Y-2356314I-61214J0D01*
G03X2275586Y-2417528I0J-61214D01*
G37*
G36*
G01X6276086Y-3657600D02*
G03X6337300Y-3718814I61214J0D01*
G03X6398514Y-3657600I0J61214D01*
G03X6337300Y-3596386I-61214J0D01*
G03X6276086Y-3657600I0J-61214D01*
G37*
G36*
G01X1653286Y-1752600D02*
G03X1714500Y-1813814I61214J0D01*
G03X1775714Y-1752600I0J61214D01*
G03X1714500Y-1691386I-61214J0D01*
G03X1653286Y-1752600I0J-61214D01*
G37*
G36*
G01X6149086Y-3657600D02*
G03X6210300Y-3718814I61214J0D01*
G03X6271514Y-3657600I0J61214D01*
G03X6210300Y-3596386I-61214J0D01*
G03X6149086Y-3657600I0J-61214D01*
G37*
G36*
G01X1732788Y-2309114D02*
G03X1794002Y-2247900I0J61214D01*
G03X1732788Y-2186686I-61214J0D01*
G03X1671574Y-2247900I0J-61214D01*
G03X1732788Y-2309114I61214J0D01*
G37*
G36*
G01X5346700Y-2740914D02*
G03X5407914Y-2679700I0J61214D01*
G03X5346700Y-2618486I-61214J0D01*
G03X5285486Y-2679700I0J-61214D01*
G03X5346700Y-2740914I61214J0D01*
G37*
G36*
G01X4178300Y-4264914D02*
G03X4239514Y-4203700I0J61214D01*
G03X4178300Y-4142486I-61214J0D01*
G03X4117086Y-4203700I0J-61214D01*
G03X4178300Y-4264914I61214J0D01*
G37*
G36*
G01X4688586Y-4076700D02*
G03X4749800Y-4137914I61214J0D01*
G03X4811014Y-4076700I0J61214D01*
G03X4749800Y-4015486I-61214J0D01*
G03X4688586Y-4076700I0J-61214D01*
G37*
G36*
G01X4921098Y-2690114D02*
G03X4982312Y-2628900I0J61214D01*
G03X4921098Y-2567686I-61214J0D01*
G03X4859884Y-2628900I0J-61214D01*
G03X4921098Y-2690114I61214J0D01*
G37*
G36*
G01X5537200Y-3706114D02*
G03X5598414Y-3644900I0J61214D01*
G03X5537200Y-3583686I-61214J0D01*
G03X5475986Y-3644900I0J-61214D01*
G03X5537200Y-3706114I61214J0D01*
G37*
G36*
G01X4965700Y-4658614D02*
G03X5026914Y-4597400I0J61214D01*
G03X4965700Y-4536186I-61214J0D01*
G03X4904486Y-4597400I0J-61214D01*
G03X4965700Y-4658614I61214J0D01*
G37*
G36*
G01X4575242Y-4252214D02*
G03X4636456Y-4191000I0J61214D01*
G03X4575242Y-4129786I-61214J0D01*
G03X4514028Y-4191000I0J-61214D01*
G03X4575242Y-4252214I61214J0D01*
G37*
G36*
G01X4999888Y-2641600D02*
G03X5061102Y-2702814I61214J0D01*
G03X5122316Y-2641600I0J61214D01*
G03X5061102Y-2580386I-61214J0D01*
G03X4999888Y-2641600I0J-61214D01*
G37*
G36*
G01X3455449Y-2740914D02*
G03X3516663Y-2679700I0J61214D01*
G03X3455449Y-2618486I-61214J0D01*
G03X3394235Y-2679700I0J-61214D01*
G03X3455449Y-2740914I61214J0D01*
G37*
G36*
G01X2908300Y-4188714D02*
G03X2969514Y-4127500I0J61214D01*
G03X2908300Y-4066286I-61214J0D01*
G03X2847086Y-4127500I0J-61214D01*
G03X2908300Y-4188714I61214J0D01*
G37*
G36*
G01X6136386Y-3968598D02*
G03X6197600Y-4029812I61214J0D01*
G03X6258814Y-3968598I0J61214D01*
G03X6197600Y-3907384I-61214J0D01*
G03X6136386Y-3968598I0J-61214D01*
G37*
G36*
G01X3924300Y-4270019D02*
G03X3985514Y-4208805I0J61214D01*
G03X3924300Y-4147591I-61214J0D01*
G03X3863086Y-4208805I0J-61214D01*
G03X3924300Y-4270019I61214J0D01*
G37*
G36*
G01X6083300Y-3718814D02*
G03X6144514Y-3657600I0J61214D01*
G03X6083300Y-3596386I-61214J0D01*
G03X6022086Y-3657600I0J-61214D01*
G03X6083300Y-3718814I61214J0D01*
G37*
G36*
G01X4178300Y-4544314D02*
G03X4239514Y-4483100I0J61214D01*
G03X4178300Y-4421886I-61214J0D01*
G03X4117086Y-4483100I0J-61214D01*
G03X4178300Y-4544314I61214J0D01*
G37*
G36*
G01X5831586Y-3606800D02*
G03X5892800Y-3668014I61214J0D01*
G03X5954014Y-3606800I0J61214D01*
G03X5892800Y-3545586I-61214J0D01*
G03X5831586Y-3606800I0J-61214D01*
G37*
G36*
G01X5092700Y-4658614D02*
G03X5153914Y-4597400I0J61214D01*
G03X5092700Y-4536186I-61214J0D01*
G03X5031486Y-4597400I0J-61214D01*
G03X5092700Y-4658614I61214J0D01*
G37*
G36*
G01X6017101Y-3149600D02*
G03X6078315Y-3210814I61214J0D01*
G03X6139529Y-3149600I0J61214D01*
G03X6078315Y-3088386I-61214J0D01*
G03X6017101Y-3149600I0J-61214D01*
G37*
G36*
G01X5346700Y-4658614D02*
G03X5407914Y-4597400I0J61214D01*
G03X5346700Y-4536186I-61214J0D01*
G03X5285486Y-4597400I0J-61214D01*
G03X5346700Y-4658614I61214J0D01*
G37*
G36*
G01X5221986Y-3644900D02*
G03X5283200Y-3706114I61214J0D01*
G03X5344414Y-3644900I0J61214D01*
G03X5283200Y-3583686I-61214J0D01*
G03X5221986Y-3644900I0J-61214D01*
G37*
G36*
G01X5158486Y-4597400D02*
G03X5219700Y-4658614I61214J0D01*
G03X5280914Y-4597400I0J61214D01*
G03X5219700Y-4536186I-61214J0D01*
G03X5158486Y-4597400I0J-61214D01*
G37*
G36*
G01X5539486Y-2679700D02*
G03X5600700Y-2740914I61214J0D01*
G03X5661914Y-2679700I0J61214D01*
G03X5600700Y-2618486I-61214J0D01*
G03X5539486Y-2679700I0J-61214D01*
G37*
G36*
G01X5412486Y-2679700D02*
G03X5473700Y-2740914I61214J0D01*
G03X5534914Y-2679700I0J61214D01*
G03X5473700Y-2618486I-61214J0D01*
G03X5412486Y-2679700I0J-61214D01*
G37*
G36*
G01X4498086Y-3060700D02*
G03X4559300Y-3121914I61214J0D01*
G03X4620514Y-3060700I0J61214D01*
G03X4559300Y-2999486I-61214J0D01*
G03X4498086Y-3060700I0J-61214D01*
G37*
G36*
G01X2059686Y-3911600D02*
G03X2120900Y-3972814I61214J0D01*
G03X2182114Y-3911600I0J61214D01*
G03X2120900Y-3850386I-61214J0D01*
G03X2059686Y-3911600I0J-61214D01*
G37*
%LPD*%
G54D8191*
G01X495300Y-4813046D02*
G02X266954Y-4584700I0J228346D01*
G01Y-266700D01*
G02X495300Y-38354I228346J-0D01*
G01X9334500D01*
G02X9562846Y-266700I0J-228346D01*
G01Y-4584700D01*
G02X9334500Y-4813046I-228346J0D01*
G01X495300D01*
G01X3060700Y-3172734D02*
G03X3121934Y-3111500I0J61234D01*
G03X3110484Y-3075847I-61234J0D01*
G01Y-2598721D01*
G01X3335321Y-2373884D01*
G01X3556000D01*
G03X3591203Y-2359303I0J49784D01*
G01X3687247Y-2263258D01*
G03X3749294Y-2197100I-4247J66158D01*
G03X3683000Y-2130806I-66294J0D01*
G03X3616842Y-2192853I0J-66294D01*
G01X3535379Y-2274316D01*
G01X3314700D01*
G03X3279497Y-2288897I0J-49784D01*
G01X3025497Y-2542897D01*
G03X3010916Y-2578100I35203J-35203D01*
G01Y-2988931D01*
G03X2971410Y-2974476I-39506J-46759D01*
G03X2910196Y-3035690I0J-61214D01*
G03X2971410Y-3096904I61214J0D01*
G03X3004498Y-3087191I0J61214D01*
G03X2999466Y-3111500I56202J-24309D01*
G03X3060700Y-3172734I61234J0D01*
G01X1930400Y-4073652D02*
G03X1996694Y-4007358I0J66294D01*
G03X1930400Y-3941064I-66294J0D01*
G03X1925698Y-3941231I0J-66294D01*
G01X1916051Y-3931584D01*
G03X1930392Y-3933154I14342J64724D01*
G03X1996686Y-3866860I0J66294D01*
G03X1930392Y-3800566I-66294J0D01*
G03X1864098Y-3866860I0J-66294D01*
G03X1865668Y-3881201I66294J0D01*
G01X1636754Y-3652288D01*
G03X1606042Y-3639566I-30712J-30712D01*
G01X804852D01*
G03X774140Y-3652288I0J-43434D01*
G01X677641Y-3748786D01*
G03X616638Y-3810000I211J-61214D01*
G03X677852Y-3871214I61214J0D01*
G03X739066Y-3810211I0J61214D01*
G01X822843Y-3726434D01*
G01X1588051D01*
G01X1864273Y-4002656D01*
G03X1864106Y-4007358I66127J-4702D01*
G03X1930400Y-4073652I66294J0D01*
G01X6606266Y-3276600D02*
G03X6667500Y-3337834I61234J0D01*
G03X6726949Y-3291275I0J61234D01*
G01X7002991Y-3015234D01*
G01X7112000D01*
G03X7142712Y-3002512I0J43434D01*
G01X7282412Y-2862812D01*
G03X7295134Y-2832100I-30712J30712D01*
G01Y-2735564D01*
G03X7312934Y-2692400I-43434J43164D01*
G03X7251700Y-2631166I-61234J0D01*
G03X7190466Y-2692400I0J-61234D01*
G03X7191149Y-2701521I61234J0D01*
G03X7162800Y-2694563I-28349J-54277D01*
G03X7101566Y-2755797I0J-61234D01*
G03X7162800Y-2817031I61234J0D01*
G03X7208266Y-2796815I0J61234D01*
G01Y-2814109D01*
G01X7094009Y-2928366D01*
G01X6985000D01*
G03X6954288Y-2941088I0J-43434D01*
G01X6678932Y-3216443D01*
G03X6667500Y-3215366I-11432J-60157D01*
G03X6606266Y-3276600I0J-61234D01*
G01X6083300Y-3591814D02*
G03X6144514Y-3530600I0J61214D01*
G03X6124288Y-3485134I-61214J0D01*
G01X6169312D01*
G03X6149086Y-3530600I40988J-45466D01*
G03X6210300Y-3591814I61214J0D01*
G03X6271514Y-3530600I0J61214D01*
G03X6251288Y-3485134I-61214J0D01*
G01X6296312D01*
G03X6276086Y-3530600I40988J-45466D01*
G03X6337300Y-3591814I61214J0D01*
G03X6398514Y-3530600I0J61214D01*
G03X6378288Y-3485134I-61214J0D01*
G01X6423312D01*
G03X6403086Y-3530600I40988J-45466D01*
G03X6464300Y-3591814I61214J0D01*
G03X6525514Y-3530600I0J61214D01*
G03X6505288Y-3485134I-61214J0D01*
G01X6509809D01*
G01X6585988Y-3561312D01*
G03X6616700Y-3574034I30712J30712D01*
G01X7030765D01*
G03X7073900Y-3591814I43135J43434D01*
G03X7135114Y-3530600I0J61214D01*
G03X7073900Y-3469386I-61214J0D01*
G03X7030765Y-3487166I0J-61214D01*
G01X6932214D01*
G03X6970925Y-3396413I-87022J90753D01*
G03X6845191Y-3270679I-125734J0D01*
G03X6719457Y-3396413I0J-125734D01*
G03X6758169Y-3487166I125734J0D01*
G01X6634691D01*
G01X6558512Y-3410988D01*
G03X6527800Y-3398266I-30712J-30712D01*
G01X6516006D01*
G03X6525514Y-3365500I-51706J32766D01*
G03X6464300Y-3304286I-61214J0D01*
G03X6403086Y-3365500I0J-61214D01*
G03X6412594Y-3398266I61214J0D01*
G01X5948222D01*
G03X5940125Y-3391626I-42722J-43840D01*
G03X5954014Y-3352800I-47325J38826D01*
G03X5892800Y-3291586I-61214J0D01*
G03X5831586Y-3352800I0J-61214D01*
G03X5858175Y-3403280I61214J0D01*
G03X5844286Y-3442106I47325J-38826D01*
G03X5905500Y-3503320I61214J0D01*
G03X5949041Y-3485134I0J61214D01*
G01X6042312D01*
G03X6022086Y-3530600I40988J-45466D01*
G03X6083300Y-3591814I61214J0D01*
G01X4584700Y-3274334D02*
G03X4645934Y-3213291I0J61234D01*
G01X4907491Y-2951734D01*
G01X5065059D01*
G03X5108194Y-2969514I43135J43434D01*
G03X5169408Y-2908300I0J61214D01*
G03X5108194Y-2847086I-61214J0D01*
G03X5065059Y-2864866I0J-61214D01*
G01X4889500D01*
G03X4858788Y-2877588I0J-43434D01*
G01X4584509Y-3151866D01*
G03X4523466Y-3213100I191J-61234D01*
G03X4584700Y-3274334I61234J0D01*
G01X4699000Y-3845508D02*
G03X4760214Y-3784294I0J61214D01*
G03X4699000Y-3723080I-61214J0D01*
G03X4655865Y-3740860I0J-61214D01*
G01X4399185D01*
G01X4176014Y-3517689D01*
G03X4114800Y-3456686I-61214J-211D01*
G03X4053586Y-3517900I0J-61214D01*
G03X4114589Y-3579114I61214J0D01*
G01X4350482Y-3815007D01*
G03X4381194Y-3827728I30712J30712D01*
G01X4655865D01*
G03X4699000Y-3845508I43135J43434D01*
G01X310896Y-4578350D02*
G03X501650Y-4769104I190754J0D01*
G03X690828Y-4602817I0J190754D01*
G03X749300Y-4645914I58472J18117D01*
G03X810514Y-4584700I0J61214D01*
G03X749300Y-4523486I-61214J0D01*
G03X691834Y-4563610I0J-61214D01*
G03X501650Y-4387596I-190184J-14740D01*
G03X310896Y-4578350I0J-190754D01*
G01X8089900Y-1444234D02*
G03X8200634Y-1333500I0J110734D01*
G03X8089900Y-1222766I-110734J0D01*
G03X7981784Y-1309566I0J-110734D01*
G03X7949370Y-1293677I-44284J-49334D01*
G03X8003794Y-1228455I-11870J65223D01*
G03X7949370Y-1163232I-66294J0D01*
G03X8003794Y-1098009I-11870J65223D01*
G03X7937500Y-1031715I-66294J0D01*
G03X7880350Y-1064412I0J-66294D01*
G03X7823200Y-1031715I-57150J-33597D01*
G03X7756906Y-1098009I0J-66294D01*
G03X7811330Y-1163232I66294J0D01*
G03X7756906Y-1228455I11870J-65223D01*
G03X7811330Y-1293677I66294J0D01*
G03X7756906Y-1358900I11870J-65223D01*
G03X7823200Y-1425194I66294J0D01*
G03X7880350Y-1392497I0J66294D01*
G03X7937500Y-1425194I57150J33597D01*
G03X7995390Y-1391205I0J66294D01*
G03X8089900Y-1444234I94510J57705D01*
G01X7753413Y-954107D02*
G03X7819707Y-1020401I66294J0D01*
G03X7876857Y-987705I0J66294D01*
G03X7934007Y-1020401I57150J33597D01*
G03X8000301Y-954107I0J66294D01*
G03X7945877Y-888885I-66294J0D01*
G03X7996248Y-846487I-11870J65223D01*
G03X8089900Y-898134I93652J59087D01*
G03X8200634Y-787400I0J110734D01*
G03X8089900Y-676666I-110734J0D01*
G03X7979785Y-775711I0J-110734D01*
G03X7945876Y-758439I-45778J-47951D01*
G03X8000301Y-693217I-11870J65223D01*
G03X7934007Y-626923I-66294J0D01*
G03X7876857Y-659619I0J-66294D01*
G03X7819707Y-626923I-57150J-33597D01*
G03X7753413Y-693217I0J-66294D01*
G03X7807837Y-758439I66294J0D01*
G03X7753413Y-823662I11870J-65223D01*
G03X7807836Y-888885I66294J0D01*
G03X7753413Y-954107I11870J-65223D01*
G01X9328150Y-4756404D02*
G03X9518904Y-4565650I0J190754D01*
G03X9328150Y-4374896I-190754J0D01*
G03X9137396Y-4565650I0J-190754D01*
G03X9328150Y-4756404I190754J0D01*
G01X501650Y-463804D02*
G03X692404Y-273050I0J190754D01*
G03X501650Y-82296I-190754J0D01*
G03X310896Y-273050I0J-190754D01*
G03X501650Y-463804I190754J0D01*
G01X9137396Y-273050D02*
G03X9328150Y-463804I190754J0D01*
G03X9518904Y-273050I0J190754D01*
G03X9328150Y-82296I-190754J0D01*
G03X9137396Y-273050I0J-190754D01*
G01X774466Y-897699D02*
G03X965200Y-1088433I190734J0D01*
G03X1155934Y-897699I0J190734D01*
G03X965200Y-706966I-190734J0D01*
G03X774466Y-897699I0J-190734D01*
G01X855101Y-3048214D02*
G03X920324Y-2993790I0J66294D01*
G03X985546Y-3048214I65223J11870D01*
G03X1050769Y-2993791I0J66294D01*
G03X1115992Y-3048214I65223J11870D01*
G03X1182286Y-2981920I0J66294D01*
G03X1147061Y-2923358I-66294J0D01*
G03X1182286Y-2864795I-31069J58563D01*
G03X1149589Y-2807645I-66294J0D01*
G03X1182286Y-2750495I-33597J57150D01*
G03X1115992Y-2684201I-66294J0D01*
G03X1050769Y-2738624I0J-66294D01*
G03X985546Y-2684201I-65223J-11870D01*
G03X920324Y-2738625I0J-66294D01*
G03X855101Y-2684201I-65223J-11870D01*
G03X788807Y-2750495I0J-66294D01*
G03X821504Y-2807645I66294J0D01*
G03X788807Y-2864795I33597J-57150D01*
G03X824032Y-2923358I66294J0D01*
G03X788807Y-2981920I31069J-58563D01*
G03X855101Y-3048214I66294J0D01*
G01X1308599Y-3048214D02*
G03X1373822Y-2993790I0J66294D01*
G03X1439044Y-3048214I65223J11870D01*
G03X1504267Y-2993791I0J66294D01*
G03X1569490Y-3048214I65223J11870D01*
G03X1635784Y-2981920I0J66294D01*
G03X1600559Y-2923358I-66294J0D01*
G03X1635784Y-2864795I-31069J58563D01*
G03X1603087Y-2807645I-66294J0D01*
G03X1635784Y-2750495I-33597J57150D01*
G03X1569490Y-2684201I-66294J0D01*
G03X1504267Y-2738624I0J-66294D01*
G03X1439044Y-2684201I-65223J-11870D01*
G03X1373822Y-2738625I0J-66294D01*
G03X1308599Y-2684201I-65223J-11870D01*
G03X1242305Y-2750495I0J-66294D01*
G03X1275002Y-2807645I66294J0D01*
G03X1242305Y-2864795I33597J-57150D01*
G03X1277530Y-2923358I66294J0D01*
G03X1242305Y-2981920I31069J-58563D01*
G03X1308599Y-3048214I66294J0D01*
G01X6127908Y-1729616D02*
G03X6193130Y-1784040I65223J11870D01*
G03X6258353Y-1729616I0J66294D01*
G03X6323576Y-1784040I65223J11870D01*
G03X6389870Y-1717746I0J66294D01*
G03X6354645Y-1659183I-66294J0D01*
G03X6389870Y-1600621I-31069J58563D01*
G03X6357173Y-1543471I-66294J0D01*
G03X6389870Y-1486321I-33597J57150D01*
G03X6323576Y-1420027I-66294J0D01*
G03X6258353Y-1474451I0J-66294D01*
G03X6193130Y-1420027I-65223J-11870D01*
G03X6127908Y-1474450I0J-66294D01*
G03X6062685Y-1420027I-65223J-11870D01*
G03X5996391Y-1486321I0J-66294D01*
G03X6029088Y-1543471I66294J0D01*
G03X5996391Y-1600621I33597J-57150D01*
G03X6031616Y-1659183I66294J0D01*
G03X5996391Y-1717746I31069J-58563D01*
G03X6062685Y-1784040I66294J0D01*
G03X6127908Y-1729616I0J66294D01*
G01X4498768Y-1313885D02*
G03X4563991Y-1368309I65223J11870D01*
G03X4629213Y-1313885I0J66294D01*
G03X4694436Y-1368309I65223J11870D01*
G03X4760730Y-1302015I0J66294D01*
G03X4725505Y-1243452I-66294J0D01*
G03X4760730Y-1184890I-31069J58563D01*
G03X4728033Y-1127740I-66294J0D01*
G03X4760730Y-1070590I-33597J57150D01*
G03X4694436Y-1004296I-66294J0D01*
G03X4629213Y-1058719I0J-66294D01*
G03X4563991Y-1004296I-65223J-11870D01*
G03X4498768Y-1058720I0J-66294D01*
G03X4433545Y-1004296I-65223J-11870D01*
G03X4367251Y-1070590I0J-66294D01*
G03X4399948Y-1127740I66294J0D01*
G03X4367251Y-1184890I33597J-57150D01*
G03X4402476Y-1243452I66294J0D01*
G03X4367251Y-1302015I31069J-58563D01*
G03X4433545Y-1368309I66294J0D01*
G03X4498768Y-1313885I0J66294D01*
G01X4499827Y-2189239D02*
G03X4565050Y-2243663I65223J11870D01*
G03X4630273Y-2189238I0J66294D01*
G03X4695496Y-2243663I65223J11870D01*
G03X4761790Y-2177369I0J66294D01*
G03X4726565Y-2118806I-66294J0D01*
G03X4761790Y-2060243I-31069J58563D01*
G03X4729093Y-2003093I-66294J0D01*
G03X4761790Y-1945943I-33597J57150D01*
G03X4695496Y-1879649I-66294J0D01*
G03X4630273Y-1934073I0J-66294D01*
G03X4565050Y-1879649I-65223J-11870D01*
G03X4499827Y-1934073I0J-66294D01*
G03X4434605Y-1879649I-65223J-11870D01*
G03X4368311Y-1945943I0J-66294D01*
G03X4401008Y-2003093I66294J0D01*
G03X4368311Y-2060243I33597J-57150D01*
G03X4403536Y-2118806I66294J0D01*
G03X4368311Y-2177369I31069J-58563D01*
G03X4434605Y-2243663I66294J0D01*
G03X4499827Y-2189239I0J66294D01*
G01X5997804Y-2171244D02*
G03X6064098Y-2237538I66294J0D01*
G03X6129320Y-2183114I0J66294D01*
G03X6194543Y-2237538I65223J11870D01*
G03X6259766Y-2183114I0J66294D01*
G03X6324989Y-2237538I65223J11870D01*
G03X6391283Y-2171244I0J66294D01*
G03X6356058Y-2112681I-66294J0D01*
G03X6391283Y-2054119I-31069J58563D01*
G03X6358586Y-1996969I-66294J0D01*
G03X6391283Y-1939819I-33597J57150D01*
G03X6324989Y-1873525I-66294J0D01*
G03X6259766Y-1927949I0J-66294D01*
G03X6194543Y-1873525I-65223J-11870D01*
G03X6129320Y-1927948I0J-66294D01*
G03X6064098Y-1873525I-65223J-11870D01*
G03X5997804Y-1939819I0J-66294D01*
G03X6030501Y-1996969I66294J0D01*
G03X5997804Y-2054119I33597J-57150D01*
G03X6033029Y-2112681I66294J0D01*
G03X5997804Y-2171244I31069J-58563D01*
G01X5996744Y-1295891D02*
G03X6063038Y-1362185I66294J0D01*
G03X6128261Y-1307760I0J66294D01*
G03X6193484Y-1362185I65223J11870D01*
G03X6258706Y-1307761I0J66294D01*
G03X6323929Y-1362185I65223J11870D01*
G03X6390223Y-1295891I0J66294D01*
G03X6354998Y-1237328I-66294J0D01*
G03X6390223Y-1178765I-31069J58563D01*
G03X6357526Y-1121615I-66294J0D01*
G03X6390223Y-1064465I-33597J57150D01*
G03X6323929Y-998171I-66294J0D01*
G03X6258706Y-1052595I0J-66294D01*
G03X6193484Y-998171I-65223J-11870D01*
G03X6128261Y-1052596I0J-66294D01*
G03X6063038Y-998171I-65223J-11870D01*
G03X5996744Y-1064465I0J-66294D01*
G03X6029441Y-1121615I66294J0D01*
G03X5996744Y-1178765I33597J-57150D01*
G03X6031969Y-1237328I66294J0D01*
G03X5996744Y-1295891I31069J-58563D01*
G01X3762234Y-2109203D02*
G03X3828528Y-2175497I66294J0D01*
G03X3893751Y-2121073I0J66294D01*
G03X3958974Y-2175497I65223J11870D01*
G03X4024196Y-2121072I0J66294D01*
G03X4089419Y-2175497I65223J11870D01*
G03X4155713Y-2109203I0J66294D01*
G03X4120488Y-2050640I-66294J0D01*
G03X4155713Y-1992077I-31069J58563D01*
G03X4123016Y-1934927I-66294J0D01*
G03X4155713Y-1877777I-33597J57150D01*
G03X4089419Y-1811483I-66294J0D01*
G03X4024196Y-1865907I0J-66294D01*
G03X3958974Y-1811483I-65223J-11870D01*
G03X3893751Y-1865907I0J-66294D01*
G03X3828528Y-1811483I-65223J-11870D01*
G03X3762234Y-1877777I0J-66294D01*
G03X3794931Y-1934927I66294J0D01*
G03X3762234Y-1992077I33597J-57150D01*
G03X3797459Y-2050640I66294J0D01*
G03X3762234Y-2109203I31069J-58563D01*
G01X3828528Y-1212219D02*
G03X3893751Y-1157796I0J66294D01*
G03X3958974Y-1212219I65223J11870D01*
G03X4024196Y-1157795I0J66294D01*
G03X4089419Y-1212219I65223J11870D01*
G03X4155713Y-1145925I0J66294D01*
G03X4120488Y-1087363I-66294J0D01*
G03X4155713Y-1028800I-31069J58563D01*
G03X4123016Y-971650I-66294J0D01*
G03X4155713Y-914500I-33597J57150D01*
G03X4089419Y-848206I-66294J0D01*
G03X4024196Y-902630I0J-66294D01*
G03X3958974Y-848206I-65223J-11870D01*
G03X3893751Y-902630I0J-66294D01*
G03X3828528Y-848206I-65223J-11870D01*
G03X3762234Y-914500I0J-66294D01*
G03X3794931Y-971650I66294J0D01*
G03X3762234Y-1028800I33597J-57150D01*
G03X3797459Y-1087363I66294J0D01*
G03X3762234Y-1145925I31069J-58563D01*
G03X3828528Y-1212219I66294J0D01*
G01X4694083Y-1790165D02*
G03X4760377Y-1723871I0J66294D01*
G03X4725152Y-1665308I-66294J0D01*
G03X4760377Y-1606745I-31069J58563D01*
G03X4727680Y-1549595I-66294J0D01*
G03X4760377Y-1492445I-33597J57150D01*
G03X4694083Y-1426151I-66294J0D01*
G03X4628860Y-1480576I0J-66294D01*
G03X4563637Y-1426151I-65223J-11870D01*
G03X4498415Y-1480575I0J-66294D01*
G03X4433192Y-1426151I-65223J-11870D01*
G03X4366898Y-1492445I0J-66294D01*
G03X4399595Y-1549595I66294J0D01*
G03X4366898Y-1606745I33597J-57150D01*
G03X4402123Y-1665308I66294J0D01*
G03X4366898Y-1723871I31069J-58563D01*
G03X4433192Y-1790165I66294J0D01*
G03X4498415Y-1735741I0J66294D01*
G03X4563637Y-1790165I65223J11870D01*
G03X4628860Y-1735740I0J66294D01*
G03X4694083Y-1790165I65223J11870D01*
G01X6605072Y-2125305D02*
G03X6671366Y-2191599I66294J0D01*
G03X6736589Y-2137174I0J66294D01*
G03X6801812Y-2191599I65223J11870D01*
G03X6867035Y-2137175I0J66294D01*
G03X6932257Y-2191599I65223J11870D01*
G03X6998551Y-2125305I0J66294D01*
G03X6963326Y-2066742I-66294J0D01*
G03X6998551Y-2008179I-31069J58563D01*
G03X6965854Y-1951029I-66294J0D01*
G03X6998551Y-1893879I-33597J57150D01*
G03X6932257Y-1827585I-66294J0D01*
G03X6867035Y-1882009I0J-66294D01*
G03X6801812Y-1827585I-65223J-11870D01*
G03X6736589Y-1882010I0J-66294D01*
G03X6671366Y-1827585I-65223J-11870D01*
G03X6605072Y-1893879I0J-66294D01*
G03X6637769Y-1951029I66294J0D01*
G03X6605072Y-2008179I33597J-57150D01*
G03X6640297Y-2066742I66294J0D01*
G03X6605072Y-2125305I31069J-58563D01*
G01X6612843Y-1149790D02*
G03X6679137Y-1216084I66294J0D01*
G03X6744359Y-1161660I0J66294D01*
G03X6809582Y-1216084I65223J11870D01*
G03X6874805Y-1161659I0J66294D01*
G03X6940028Y-1216084I65223J11870D01*
G03X7006322Y-1149790I0J66294D01*
G03X6971097Y-1091227I-66294J0D01*
G03X7006322Y-1032664I-31069J58563D01*
G03X6973625Y-975514I-66294J0D01*
G03X7006322Y-918364I-33597J57150D01*
G03X6940028Y-852070I-66294J0D01*
G03X6874805Y-906495I0J-66294D01*
G03X6809582Y-852070I-65223J-11870D01*
G03X6744359Y-906494I0J-66294D01*
G03X6679137Y-852070I-65223J-11870D01*
G03X6612843Y-918364I0J-66294D01*
G03X6645540Y-975514I66294J0D01*
G03X6612843Y-1032664I33597J-57150D01*
G03X6648067Y-1091227I66294J0D01*
G03X6612843Y-1149790I31069J-58563D01*
G01X546100Y-1307470D02*
G03X607334Y-1246236I0J61234D01*
G03X582105Y-1196706I-61234J0D01*
G03X607334Y-1147176I-36005J49530D01*
G03X582105Y-1097646I-61234J0D01*
G03X607334Y-1048116I-36005J49530D01*
G03X582105Y-998586I-61234J0D01*
G03X588518Y-993218I-36005J49530D01*
G03X630937Y-1010290I42418J44162D01*
G03X692171Y-949056I0J61234D01*
G03X666942Y-899526I-61234J0D01*
G03X692171Y-849996I-36005J49530D01*
G03X666942Y-800466I-61234J0D01*
G03X692171Y-750936I-36005J49530D01*
G03X630937Y-689701I-61234J0D01*
G03X588518Y-706773I0J-61234D01*
G03X546100Y-689701I-42418J-44162D01*
G03X484866Y-750936I0J-61234D01*
G03X510095Y-800466I61234J0D01*
G03X484866Y-849996I36005J-49530D01*
G03X510095Y-899526I61234J0D01*
G03X484866Y-949056I36005J-49530D01*
G03X510095Y-998586I61234J0D01*
G03X484866Y-1048116I36005J-49530D01*
G03X510095Y-1097646I61234J0D01*
G03X484866Y-1147176I36005J-49530D01*
G03X510095Y-1196706I61234J0D01*
G03X484866Y-1246236I36005J-49530D01*
G03X546100Y-1307470I61234J0D01*
G01X9296400Y-1183735D02*
G03X9452134Y-1028001I0J155734D01*
G03X9296400Y-872268I-155734J0D01*
G03X9202492Y-903766I0J-155734D01*
G03X9144000Y-860602I-58492J-18050D01*
G03X9082786Y-921816I0J-61214D01*
G03X9144000Y-983030I61214J0D01*
G03X9147328Y-982939I0J61214D01*
G03X9140666Y-1028001I149072J-45062D01*
G03X9141694Y-1045861I155734J0D01*
G03X9082786Y-1107032I2306J-61171D01*
G03X9144000Y-1168246I61214J0D01*
G03X9192669Y-1144160I0J61214D01*
G03X9296400Y-1183735I103731J116159D01*
G01X8232974Y-1357513D02*
G03X8299268Y-1423807I66294J0D01*
G03X8356418Y-1391110I0J66294D01*
G03X8413568Y-1423807I57150J33597D01*
G03X8479862Y-1357513I0J66294D01*
G03X8425438Y-1292290I-66294J0D01*
G03X8479862Y-1227068I-11870J65223D01*
G03X8425437Y-1161845I-66294J0D01*
G03X8479862Y-1096622I-11870J65223D01*
G03X8413568Y-1030328I-66294J0D01*
G03X8356418Y-1063025I0J-66294D01*
G03X8299268Y-1030328I-57150J-33597D01*
G03X8232974Y-1096622I0J-66294D01*
G03X8287398Y-1161845I66294J0D01*
G03X8232974Y-1227068I11870J-65223D01*
G03X8287397Y-1292290I66294J0D01*
G03X8232974Y-1357513I11870J-65223D01*
G01X7636273Y-1161423D02*
G03X7693423Y-1194120I57150J33597D01*
G03X7759717Y-1127826I0J66294D01*
G03X7705293Y-1062603I-66294J0D01*
G03X7759717Y-997381I-11870J65223D01*
G03X7705292Y-932158I-66294J0D01*
G03X7759717Y-866935I-11870J65223D01*
G03X7693423Y-800641I-66294J0D01*
G03X7636273Y-833338I0J-66294D01*
G03X7579123Y-800641I-57150J-33597D01*
G03X7512829Y-866935I0J-66294D01*
G03X7567253Y-932158I66294J0D01*
G03X7512829Y-997381I11870J-65223D01*
G03X7567252Y-1062603I66294J0D01*
G03X7512829Y-1127826I11870J-65223D01*
G03X7579123Y-1194120I66294J0D01*
G03X7636273Y-1161423I0J66294D01*
G01X7239482Y-1139215D02*
G03X7305776Y-1205509I66294J0D01*
G03X7362926Y-1172812I0J66294D01*
G03X7420076Y-1205509I57150J33597D01*
G03X7486370Y-1139215I0J66294D01*
G03X7431946Y-1073993I-66294J0D01*
G03X7486370Y-1008770I-11870J65223D01*
G03X7431945Y-943547I-66294J0D01*
G03X7486370Y-878324I-11870J65223D01*
G03X7420076Y-812030I-66294J0D01*
G03X7362926Y-844727I0J-66294D01*
G03X7305776Y-812030I-57150J-33597D01*
G03X7239482Y-878324I0J-66294D01*
G03X7293906Y-943547I66294J0D01*
G03X7239482Y-1008770I11870J-65223D01*
G03X7293906Y-1073993I66294J0D01*
G03X7239482Y-1139215I11870J-65223D01*
G01X8232974Y-951764D02*
G03X8299268Y-1018058I66294J0D01*
G03X8356418Y-985361I0J66294D01*
G03X8413568Y-1018058I57150J33597D01*
G03X8479862Y-951764I0J66294D01*
G03X8425438Y-886541I-66294J0D01*
G03X8479862Y-821319I-11870J65223D01*
G03X8425437Y-756096I-66294J0D01*
G03X8479862Y-690873I-11870J65223D01*
G03X8413568Y-624579I-66294J0D01*
G03X8356418Y-657276I0J-66294D01*
G03X8299268Y-624579I-57150J-33597D01*
G03X8232974Y-690873I0J-66294D01*
G03X8287398Y-756096I66294J0D01*
G03X8232974Y-821319I11870J-65223D01*
G03X8287397Y-886541I66294J0D01*
G03X8232974Y-951764I11870J-65223D01*
G01X563088Y-2975270D02*
G03X718822Y-2819536I0J155734D01*
G03X563088Y-2663802I-155734J0D01*
G03X407354Y-2819536I0J-155734D01*
G03X563088Y-2975270I155734J0D01*
G01X5473700Y-3553734D02*
G03X5534934Y-3492500I0J61234D01*
G03X5533036Y-3477372I-61234J0D01*
G03X5537200Y-3477514I4164J61072D01*
G03X5598414Y-3416300I0J61214D01*
G03X5559132Y-3359150I-61214J0D01*
G03X5598414Y-3302000I-21932J57150D01*
G03X5537200Y-3240786I-61214J0D01*
G03X5475986Y-3302000I0J-61214D01*
G03X5515268Y-3359150I61214J0D01*
G03X5475986Y-3416300I21932J-57150D01*
G03X5477880Y-3431409I61214J0D01*
G03X5473700Y-3431266I-4180J-61091D01*
G03X5469520Y-3431409I0J-61234D01*
G03X5471414Y-3416300I-59320J15109D01*
G03X5432132Y-3359150I-61214J0D01*
G03X5471414Y-3302000I-21932J57150D01*
G03X5410200Y-3240786I-61214J0D01*
G03X5348986Y-3302000I0J-61214D01*
G03X5388268Y-3359150I61214J0D01*
G03X5348986Y-3416300I21932J-57150D01*
G03X5410200Y-3477514I61214J0D01*
G03X5414364Y-3477372I0J61214D01*
G03X5412466Y-3492500I59336J-15128D01*
G03X5473700Y-3553734I61234J0D01*
G01X2667000Y-4125214D02*
G03X2728214Y-4064211I0J61214D01*
G01X2735812Y-4056612D01*
G03X2748534Y-4025900I-30712J30712D01*
G01Y-3764235D01*
G03X2766314Y-3721100I-43434J43135D01*
G03X2705100Y-3659886I-61214J0D01*
G03X2643886Y-3721100I0J-61214D01*
G03X2661666Y-3764235I61214J0D01*
G01Y-4003019D01*
G03X2605786Y-4064000I5334J-60981D01*
G03X2667000Y-4125214I61214J0D01*
G01X3833237Y-1703767D02*
G03X3899531Y-1637473I0J66294D01*
G03X3866835Y-1580323I-66294J0D01*
G03X3899531Y-1523173I-33597J57150D01*
G03X3833237Y-1456879I-66294J0D01*
G03X3768015Y-1511303I0J-66294D01*
G03X3702792Y-1456879I-65223J-11870D01*
G03X3636498Y-1523173I0J-66294D01*
G03X3669195Y-1580323I66294J0D01*
G03X3636498Y-1637473I33597J-57150D01*
G03X3702792Y-1703767I66294J0D01*
G03X3768015Y-1649342I0J66294D01*
G03X3833237Y-1703767I65223J11870D01*
G01X3683357Y-3397933D02*
G03X3809091Y-3523667I125734J0D01*
G03X3934825Y-3397933I0J125734D01*
G03X3809091Y-3272199I-125734J0D01*
G03X3683357Y-3397933I0J-125734D01*
G01X607297Y-2189728D02*
G03X665796Y-2232914I58499J18028D01*
G03X724295Y-2189728I0J61214D01*
G03X782794Y-2232914I58499J18028D01*
G03X844008Y-2171700I0J61214D01*
G03X782794Y-2110486I-61214J0D01*
G03X724295Y-2153672I0J-61214D01*
G03X665796Y-2110486I-58499J-18028D01*
G03X607297Y-2153672I0J-61214D01*
G03X548798Y-2110486I-58499J-18028D01*
G03X490299Y-2153672I0J-61214D01*
G03X431800Y-2110486I-58499J-18028D01*
G03X370586Y-2171700I0J-61214D01*
G03X431800Y-2232914I61214J0D01*
G03X490299Y-2189728I0J61214D01*
G03X548798Y-2232914I58499J18028D01*
G03X607297Y-2189728I0J61214D01*
G01X548798Y-2105914D02*
G03X607297Y-2062728I0J61214D01*
G03X665796Y-2105914I58499J18028D01*
G03X724295Y-2062728I0J61214D01*
G03X782794Y-2105914I58499J18028D01*
G03X844008Y-2044700I0J61214D01*
G03X782794Y-1983486I-61214J0D01*
G03X724295Y-2026672I0J-61214D01*
G03X665796Y-1983486I-58499J-18028D01*
G03X607297Y-2026672I0J-61214D01*
G03X548798Y-1983486I-58499J-18028D01*
G03X490299Y-2026672I0J-61214D01*
G03X431800Y-1983486I-58499J-18028D01*
G03X370586Y-2044700I0J-61214D01*
G03X431800Y-2105914I61214J0D01*
G03X490299Y-2062728I0J61214D01*
G03X548798Y-2105914I58499J18028D01*
G01X2054606Y-4318000D02*
G03X2120900Y-4384294I66294J0D01*
G03X2178050Y-4351597I0J66294D01*
G03X2235200Y-4384294I57150J33597D01*
G03X2301494Y-4318000I0J66294D01*
G03X2277794Y-4267200I-66294J0D01*
G03X2301494Y-4216400I-42594J50800D01*
G03X2235200Y-4150106I-66294J0D01*
G03X2178050Y-4182803I0J-66294D01*
G03X2120900Y-4150106I-57150J-33597D01*
G03X2054606Y-4216400I0J-66294D01*
G03X2078306Y-4267200I66294J0D01*
G03X2054606Y-4318000I42594J-50800D01*
G01X3619500Y-3883914D02*
G03X3679711Y-3833736I0J61214D01*
G03X3739773Y-3883128I60062J11822D01*
G03X3800987Y-3821914I0J61214D01*
G03X3761705Y-3764764I-61214J0D01*
G03X3800987Y-3707614I-21932J57150D01*
G03X3739773Y-3646400I-61214J0D01*
G03X3679562Y-3696578I0J-61214D01*
G03X3619500Y-3647186I-60062J-11822D01*
G03X3558286Y-3708400I0J-61214D01*
G03X3597568Y-3765550I61214J0D01*
G03X3558286Y-3822700I21932J-57150D01*
G03X3619500Y-3883914I61214J0D01*
G01X3365500Y-3883914D02*
G03X3425711Y-3833736I0J61214D01*
G03X3485773Y-3883128I60062J11822D01*
G03X3546987Y-3821914I0J61214D01*
G03X3508703Y-3765157I-61214J0D01*
G03X3546987Y-3708400I-22930J56757D01*
G03X3485773Y-3647186I-61214J0D01*
G03X3425562Y-3697364I0J-61214D01*
G03X3365500Y-3647972I-60062J-11822D01*
G03X3304286Y-3709186I0J-61214D01*
G03X3342570Y-3765943I61214J0D01*
G03X3304286Y-3822700I22930J-56757D01*
G03X3365500Y-3883914I61214J0D01*
G01X2311400Y-1301743D02*
G03X2374900Y-1348994I63500J19043D01*
G03X2441194Y-1282700I0J66294D01*
G03X2374900Y-1216406I-66294J0D01*
G03X2311400Y-1263657I0J-66294D01*
G03X2247900Y-1216406I-63500J-19043D01*
G03X2184400Y-1263657I0J-66294D01*
G03X2120900Y-1216406I-63500J-19043D01*
G03X2054606Y-1282700I0J-66294D01*
G03X2120900Y-1348994I66294J0D01*
G03X2184400Y-1301743I0J66294D01*
G03X2247900Y-1348994I63500J19043D01*
G03X2311400Y-1301743I0J66294D01*
G01X2908300Y-1387094D02*
G03X2974594Y-1320800I0J66294D01*
G03X2927343Y-1257300I-66294J0D01*
G03X2974594Y-1193800I-19043J63500D01*
G03X2927343Y-1130300I-66294J0D01*
G03X2974594Y-1066800I-19043J63500D01*
G03X2908300Y-1000506I-66294J0D01*
G03X2842006Y-1066800I0J-66294D01*
G03X2889257Y-1130300I66294J0D01*
G03X2842006Y-1193800I19043J-63500D01*
G03X2889257Y-1257300I66294J0D01*
G03X2842006Y-1320800I19043J-63500D01*
G03X2908300Y-1387094I66294J0D01*
G01X2304162Y-691503D02*
G03X2370456Y-757797I66294J0D01*
G03X2436750Y-691503I0J66294D01*
G03X2389499Y-628003I-66294J0D01*
G03X2436750Y-564503I-19043J63500D01*
G03X2389499Y-501003I-66294J0D01*
G03X2436750Y-437503I-19043J63500D01*
G03X2370456Y-371209I-66294J0D01*
G03X2304162Y-437503I0J-66294D01*
G03X2351413Y-501003I66294J0D01*
G03X2304162Y-564503I19043J-63500D01*
G03X2351413Y-628003I66294J0D01*
G03X2304162Y-691503I19043J-63500D01*
G01X2230756Y-757797D02*
G03X2297050Y-691503I0J66294D01*
G03X2249799Y-628003I-66294J0D01*
G03X2297050Y-564503I-19043J63500D01*
G03X2249799Y-501003I-66294J0D01*
G03X2297050Y-437503I-19043J63500D01*
G03X2230756Y-371209I-66294J0D01*
G03X2164462Y-437503I0J-66294D01*
G03X2211713Y-501003I66294J0D01*
G03X2164462Y-564503I19043J-63500D01*
G03X2211713Y-628003I66294J0D01*
G03X2164462Y-691503I19043J-63500D01*
G03X2230756Y-757797I66294J0D01*
G01X2311400Y-1441443D02*
G03X2374900Y-1488694I63500J19043D01*
G03X2441194Y-1422400I0J66294D01*
G03X2374900Y-1356106I-66294J0D01*
G03X2311400Y-1403357I0J-66294D01*
G03X2247900Y-1356106I-63500J-19043D01*
G03X2184400Y-1403357I0J-66294D01*
G03X2120900Y-1356106I-63500J-19043D01*
G03X2054606Y-1422400I0J-66294D01*
G03X2120900Y-1488694I66294J0D01*
G03X2184400Y-1441443I0J66294D01*
G03X2247900Y-1488694I63500J19043D01*
G03X2311400Y-1441443I0J66294D01*
G01X2168906Y-1130300D02*
G03X2235200Y-1196594I66294J0D01*
G03X2301494Y-1130300I0J66294D01*
G03X2254243Y-1066800I-66294J0D01*
G03X2301494Y-1003300I-19043J63500D01*
G03X2254243Y-939800I-66294J0D01*
G03X2301494Y-876300I-19043J63500D01*
G03X2235200Y-810006I-66294J0D01*
G03X2168906Y-876300I0J-66294D01*
G03X2216157Y-939800I66294J0D01*
G03X2168906Y-1003300I19043J-63500D01*
G03X2216157Y-1066800I66294J0D01*
G03X2168906Y-1130300I19043J-63500D01*
G01X3048000Y-967994D02*
G03X3114294Y-901700I0J66294D01*
G03X3067043Y-838200I-66294J0D01*
G03X3114294Y-774700I-19043J63500D01*
G03X3067043Y-711200I-66294J0D01*
G03X3114294Y-647700I-19043J63500D01*
G03X3048000Y-581406I-66294J0D01*
G03X2981706Y-647700I0J-66294D01*
G03X3028957Y-711200I66294J0D01*
G03X2981706Y-774700I19043J-63500D01*
G03X3028957Y-838200I66294J0D01*
G03X2981706Y-901700I19043J-63500D01*
G03X3048000Y-967994I66294J0D01*
G01X3048000Y-1387094D02*
G03X3114294Y-1320800I0J66294D01*
G03X3067043Y-1257300I-66294J0D01*
G03X3114294Y-1193800I-19043J63500D01*
G03X3067043Y-1130300I-66294J0D01*
G03X3114294Y-1066800I-19043J63500D01*
G03X3048000Y-1000506I-66294J0D01*
G03X2981706Y-1066800I0J-66294D01*
G03X3028957Y-1130300I66294J0D01*
G03X2981706Y-1193800I19043J-63500D01*
G03X3028957Y-1257300I66294J0D01*
G03X2981706Y-1320800I19043J-63500D01*
G03X3048000Y-1387094I66294J0D01*
G01X2374900Y-1196594D02*
G03X2441194Y-1130300I0J66294D01*
G03X2393943Y-1066800I-66294J0D01*
G03X2441194Y-1003300I-19043J63500D01*
G03X2393943Y-939800I-66294J0D01*
G03X2441194Y-876300I-19043J63500D01*
G03X2374900Y-810006I-66294J0D01*
G03X2308606Y-876300I0J-66294D01*
G03X2355857Y-939800I66294J0D01*
G03X2308606Y-1003300I19043J-63500D01*
G03X2355857Y-1066800I66294J0D01*
G03X2308606Y-1130300I19043J-63500D01*
G03X2374900Y-1196594I66294J0D01*
G01X2908300Y-967994D02*
G03X2974594Y-901700I0J66294D01*
G03X2927343Y-838200I-66294J0D01*
G03X2974594Y-774700I-19043J63500D01*
G03X2927343Y-711200I-66294J0D01*
G03X2974594Y-647700I-19043J63500D01*
G03X2908300Y-581406I-66294J0D01*
G03X2842006Y-647700I0J-66294D01*
G03X2889257Y-711200I66294J0D01*
G03X2842006Y-774700I19043J-63500D01*
G03X2889257Y-838200I66294J0D01*
G03X2842006Y-901700I19043J-63500D01*
G03X2908300Y-967994I66294J0D01*
G01X1828800Y-3574034D02*
G03X1897634Y-3505200I0J68834D01*
G03X1868745Y-3449142I-68834J0D01*
G03X1897634Y-3393084I-39945J56058D01*
G03X1865488Y-3334842I-68834J0D01*
G03X1897634Y-3276600I-36688J58242D01*
G03X1828800Y-3207766I-68834J0D01*
G03X1759966Y-3276600I0J-68834D01*
G03X1792112Y-3334842I68834J0D01*
G03X1759966Y-3393084I36688J-58242D01*
G03X1788855Y-3449142I68834J0D01*
G03X1759966Y-3505200I39945J-56058D01*
G03X1828800Y-3574034I68834J0D01*
G01X1245169Y-660242D02*
G03X1311463Y-593948I0J66294D01*
G03X1274390Y-534442I-66294J0D01*
G03X1309565Y-475906I-31119J58536D01*
G03X1274370Y-417359I-66294J0D01*
G03X1309565Y-358812I-31100J58547D01*
G03X1243271Y-292518I-66294J0D01*
G03X1176977Y-358812I0J-66294D01*
G03X1212171Y-417359I66294J0D01*
G03X1176977Y-475906I31100J-58547D01*
G03X1214049Y-535412I66294J0D01*
G03X1178875Y-593948I31119J-58536D01*
G03X1245169Y-660242I66294J0D01*
G01X2705100Y-1444234D02*
G03X2815834Y-1333500I0J110734D01*
G03X2705100Y-1222766I-110734J0D01*
G03X2594366Y-1333500I0J-110734D01*
G03X2705100Y-1444234I110734J0D01*
G01X2705100Y-898134D02*
G03X2815834Y-787400I0J110734D01*
G03X2705100Y-676666I-110734J0D01*
G03X2594366Y-787400I0J-110734D01*
G03X2705100Y-898134I110734J0D01*
G01X1460602Y-4615719D02*
G03X1526896Y-4549425I0J66294D01*
G03X1491671Y-4490863I-66294J0D01*
G03X1526896Y-4432300I-31069J58563D01*
G03X1494199Y-4375150I-66294J0D01*
G03X1526896Y-4318000I-33597J57150D01*
G03X1460602Y-4251706I-66294J0D01*
G03X1394308Y-4318000I0J-66294D01*
G03X1427004Y-4375150I66294J0D01*
G03X1394308Y-4432300I33597J-57150D01*
G03X1429532Y-4490863I66294J0D01*
G03X1394308Y-4549425I31069J-58563D01*
G03X1460602Y-4615719I66294J0D01*
G01X1333500Y-3561619D02*
G03X1399794Y-3495325I0J66294D01*
G03X1364569Y-3436763I-66294J0D01*
G03X1399794Y-3378200I-31069J58563D01*
G03X1367097Y-3321050I-66294J0D01*
G03X1399794Y-3263900I-33597J57150D01*
G03X1333500Y-3197606I-66294J0D01*
G03X1267206Y-3263900I0J-66294D01*
G03X1299903Y-3321050I66294J0D01*
G03X1267206Y-3378200I33597J-57150D01*
G03X1302431Y-3436763I66294J0D01*
G03X1267206Y-3495325I31069J-58563D01*
G03X1333500Y-3561619I66294J0D01*
G01X1498498Y-3536219D02*
G03X1564792Y-3469925I0J66294D01*
G03X1529568Y-3411363I-66294J0D01*
G03X1564792Y-3352800I-31069J58563D01*
G03X1532096Y-3295650I-66294J0D01*
G03X1564792Y-3238500I-33597J57150D01*
G03X1498498Y-3172206I-66294J0D01*
G03X1432204Y-3238500I0J-66294D01*
G03X1464901Y-3295650I66294J0D01*
G03X1432204Y-3352800I33597J-57150D01*
G03X1467429Y-3411363I66294J0D01*
G03X1432204Y-3469925I31069J-58563D01*
G03X1498498Y-3536219I66294J0D01*
G01X1178875Y-930186D02*
G03X1245169Y-996480I66294J0D01*
G03X1311463Y-930186I0J66294D01*
G03X1289233Y-880656I-66294J0D01*
G03X1311463Y-831126I-44064J49530D01*
G03X1289233Y-781596I-66294J0D01*
G03X1311463Y-732066I-44064J49530D01*
G03X1245169Y-665772I-66294J0D01*
G03X1178875Y-732066I0J-66294D01*
G03X1201105Y-781596I66294J0D01*
G03X1178875Y-831126I44064J-49530D01*
G03X1201105Y-880656I66294J0D01*
G03X1178875Y-930186I44064J-49530D01*
G01X3289300Y-4163314D02*
G03X3350514Y-4102100I0J61214D01*
G03X3340977Y-4069287I-61214J0D01*
G03X3365500Y-4074414I24523J56087D01*
G03X3426714Y-4013200I0J61214D01*
G03X3365500Y-3951986I-61214J0D01*
G03X3304286Y-4013200I0J-61214D01*
G03X3313823Y-4046013I61214J0D01*
G03X3289300Y-4040886I-24523J-56087D01*
G03X3228086Y-4102100I0J-61214D01*
G03X3289300Y-4163314I61214J0D01*
G01X1765300Y-4293514D02*
G03X1826514Y-4232300I0J61214D01*
G03X1811895Y-4192600I-61214J0D01*
G03X1826514Y-4152900I-46595J39700D01*
G03X1765300Y-4091686I-61214J0D01*
G03X1727200Y-4104988I0J-61214D01*
G03X1689100Y-4091686I-38100J-47912D01*
G03X1627886Y-4152900I0J-61214D01*
G03X1689100Y-4214114I61214J0D01*
G03X1707848Y-4211172I0J61214D01*
G03X1704086Y-4232300I57452J-21128D01*
G03X1765300Y-4293514I61214J0D01*
G01X5358206Y-3807714D02*
G03X5419420Y-3746500I0J61214D01*
G03X5403922Y-3705791I-61214J0D01*
G03X5410200Y-3706114I6278J60891D01*
G03X5471414Y-3644900I0J61214D01*
G03X5410200Y-3583686I-61214J0D01*
G03X5348986Y-3644900I0J-61214D01*
G03X5364484Y-3685609I61214J0D01*
G03X5358206Y-3685286I-6278J-60891D01*
G03X5296992Y-3746500I0J-61214D01*
G03X5358206Y-3807714I61214J0D01*
G01X952500Y-4137914D02*
G03X984250Y-4129036I0J61214D01*
G03X1016000Y-4137914I31750J52336D01*
G03X1077214Y-4076700I0J61214D01*
G03X1068336Y-4044950I-61214J0D01*
G03X1077214Y-4013200I-52336J31750D01*
G03X1016000Y-3951986I-61214J0D01*
G03X984250Y-3960864I0J-61214D01*
G03X952500Y-3951986I-31750J-52336D01*
G03X891286Y-4013200I0J-61214D01*
G03X900164Y-4044950I61214J0D01*
G03X891286Y-4076700I52336J-31750D01*
G03X952500Y-4137914I61214J0D01*
G01X5221986Y-3416300D02*
G03X5283200Y-3477514I61214J0D01*
G03X5344414Y-3416300I0J61214D01*
G03X5305132Y-3359150I-61214J0D01*
G03X5344414Y-3302000I-21932J57150D01*
G03X5283200Y-3240786I-61214J0D01*
G03X5221986Y-3302000I0J-61214D01*
G03X5261268Y-3359150I61214J0D01*
G03X5221986Y-3416300I21932J-57150D01*
G01X3429000Y-4652024D02*
G03X3490214Y-4590810I0J61214D01*
G03X3463154Y-4540010I-61214J0D01*
G03X3490214Y-4489210I-34154J50800D01*
G03X3429000Y-4427996I-61214J0D01*
G03X3367786Y-4489210I0J-61214D01*
G03X3394846Y-4540010I61214J0D01*
G03X3367786Y-4590810I34154J-50800D01*
G03X3429000Y-4652024I61214J0D01*
G01X3513836Y-4590810D02*
G03X3575050Y-4652024I61214J0D01*
G03X3636264Y-4590810I0J61214D01*
G03X3609204Y-4540010I-61214J0D01*
G03X3636264Y-4489210I-34154J50800D01*
G03X3575050Y-4427996I-61214J0D01*
G03X3513836Y-4489210I0J-61214D01*
G03X3540896Y-4540010I61214J0D01*
G03X3513836Y-4590810I34154J-50800D01*
G01X3721100Y-4652024D02*
G03X3782314Y-4590810I0J61214D01*
G03X3755254Y-4540010I-61214J0D01*
G03X3782314Y-4489210I-34154J50800D01*
G03X3721100Y-4427996I-61214J0D01*
G03X3659886Y-4489210I0J-61214D01*
G03X3686946Y-4540010I61214J0D01*
G03X3659886Y-4590810I34154J-50800D01*
G03X3721100Y-4652024I61214J0D01*
G01X8210530Y-2912815D02*
G03X8271744Y-2851601I0J61214D01*
G03X8248707Y-2803750I-61214J0D01*
G03X8271744Y-2755900I-38177J47850D01*
G03X8210530Y-2694686I-61214J0D01*
G03X8149316Y-2755900I0J-61214D01*
G03X8172353Y-2803750I61214J0D01*
G03X8149316Y-2851601I38177J-47850D01*
G03X8210530Y-2912815I61214J0D01*
G01X5056866Y-3175000D02*
G03X5118100Y-3236234I61234J0D01*
G03X5163147Y-3216478I0J61234D01*
G03X5208194Y-3236234I45047J41478D01*
G03X5269428Y-3175000I0J61234D01*
G03X5208194Y-3113766I-61234J0D01*
G03X5163147Y-3133522I0J-61234D01*
G03X5118100Y-3113766I-45047J-41478D01*
G03X5056866Y-3175000I0J-61234D01*
G01X1282971Y-4172852D02*
G03X1344185Y-4111638I0J61214D01*
G03X1329594Y-4071971I-61214J0D01*
G03X1344185Y-4032305I-46623J39667D01*
G03X1282971Y-3971091I-61214J0D01*
G03X1221757Y-4032305I0J-61214D01*
G03X1236347Y-4071971I61214J0D01*
G03X1221757Y-4111638I46623J-39667D01*
G03X1282971Y-4172852I61214J0D01*
G01X7759700Y-3199384D02*
G03X7834884Y-3124200I0J75184D01*
G03X7759700Y-3049016I-75184J0D01*
G03X7684516Y-3124200I0J-75184D01*
G03X7759700Y-3199384I75184J0D01*
G01X5905500Y-4726869D02*
G03X5976155Y-4656214I0J70655D01*
G03X5905500Y-4585559I-70655J0D01*
G03X5834845Y-4656214I0J-70655D01*
G03X5905500Y-4726869I70655J0D01*
G01X5905500Y-4456841D02*
G03X5976155Y-4386186I0J70655D01*
G03X5905500Y-4315531I-70655J0D01*
G03X5834845Y-4386186I0J-70655D01*
G03X5905500Y-4456841I70655J0D01*
G01X2880106Y-4292600D02*
G03X2946400Y-4358894I66294J0D01*
G03X3012694Y-4292600I0J66294D01*
G03X2946400Y-4226306I-66294J0D01*
G03X2880106Y-4292600I0J-66294D01*
G01X1931416Y-3787394D02*
G03X1997710Y-3721100I0J66294D01*
G03X1931416Y-3654806I-66294J0D01*
G03X1865122Y-3721100I0J-66294D01*
G03X1931416Y-3787394I66294J0D01*
G01X2197100Y-4511294D02*
G03X2263394Y-4445000I0J66294D01*
G03X2197100Y-4378706I-66294J0D01*
G03X2130806Y-4445000I0J-66294D01*
G03X2197100Y-4511294I66294J0D01*
G01X4229100Y-1653794D02*
G03X4295394Y-1587500I0J66294D01*
G03X4229100Y-1521206I-66294J0D01*
G03X4162806Y-1587500I0J-66294D01*
G03X4229100Y-1653794I66294J0D01*
G01X1914906Y-4432300D02*
G03X1981200Y-4498594I66294J0D01*
G03X2047494Y-4432300I0J66294D01*
G03X1981200Y-4366006I-66294J0D01*
G03X1914906Y-4432300I0J-66294D01*
G01X1981200Y-4650994D02*
G03X2047494Y-4584700I0J66294D01*
G03X1981200Y-4518406I-66294J0D01*
G03X1914906Y-4584700I0J-66294D01*
G03X1981200Y-4650994I66294J0D01*
G01X7528901Y-2044700D02*
G03X7590135Y-2105934I61234J0D01*
G03X7651369Y-2044700I0J61234D01*
G03X7590135Y-1983466I-61234J0D01*
G03X7528901Y-2044700I0J-61234D01*
G01X7493000Y-2829834D02*
G03X7554234Y-2768600I0J61234D01*
G03X7493000Y-2707366I-61234J0D01*
G03X7431766Y-2768600I0J-61234D01*
G03X7493000Y-2829834I61234J0D01*
G01X7073900Y-1966234D02*
G03X7135134Y-1905000I0J61234D01*
G03X7073900Y-1843766I-61234J0D01*
G03X7012666Y-1905000I0J-61234D01*
G03X7073900Y-1966234I61234J0D01*
G01X6505878Y-2715534D02*
G03X6567112Y-2654300I0J61234D01*
G03X6505878Y-2593066I-61234J0D01*
G03X6444644Y-2654300I0J-61234D01*
G03X6505878Y-2715534I61234J0D01*
G01X3209879Y-3020334D02*
G03X3271113Y-2959100I0J61234D01*
G03X3209879Y-2897866I-61234J0D01*
G03X3148644Y-2959100I0J-61234D01*
G03X3209879Y-3020334I61234J0D01*
G01X7203166Y-4508500D02*
G03X7264400Y-4569734I61234J0D01*
G03X7325634Y-4508500I0J61234D01*
G03X7264400Y-4447266I-61234J0D01*
G03X7203166Y-4508500I0J-61234D01*
G01X2679700Y-3160034D02*
G03X2740934Y-3098800I0J61234D01*
G03X2679700Y-3037566I-61234J0D01*
G03X2618466Y-3098800I0J-61234D01*
G03X2679700Y-3160034I61234J0D01*
G01X1932666Y-1651000D02*
G03X1993900Y-1712234I61234J0D01*
G03X2055134Y-1651000I0J61234D01*
G03X1993900Y-1589766I-61234J0D01*
G03X1932666Y-1651000I0J-61234D01*
G01X3365500Y-2245634D02*
G03X3426734Y-2184400I0J61234D01*
G03X3365500Y-2123166I-61234J0D01*
G03X3304266Y-2184400I0J-61234D01*
G03X3365500Y-2245634I61234J0D01*
G01X2515464Y-4417334D02*
G03X2576698Y-4356100I0J61234D01*
G03X2515464Y-4294866I-61234J0D01*
G03X2454230Y-4356100I0J-61234D01*
G03X2515464Y-4417334I61234J0D01*
G01X3416300Y-2994934D02*
G03X3477534Y-2933700I0J61234D01*
G03X3416300Y-2872466I-61234J0D01*
G03X3355066Y-2933700I0J-61234D01*
G03X3416300Y-2994934I61234J0D01*
G01X2375764Y-4417334D02*
G03X2436998Y-4356100I0J61234D01*
G03X2375764Y-4294866I-61234J0D01*
G03X2314530Y-4356100I0J-61234D01*
G03X2375764Y-4417334I61234J0D01*
G01X5511800Y-2956834D02*
G03X5573034Y-2895600I0J61234D01*
G03X5511800Y-2834366I-61234J0D01*
G03X5450566Y-2895600I0J-61234D01*
G03X5511800Y-2956834I61234J0D01*
G01X3443966Y-3301657D02*
G03X3505200Y-3362891I61234J0D01*
G03X3566434Y-3301657I0J61234D01*
G03X3505200Y-3240423I-61234J0D01*
G03X3443966Y-3301657I0J-61234D01*
G01X4955266Y-3302000D02*
G03X5016500Y-3363234I61234J0D01*
G03X5077734Y-3302000I0J61234D01*
G03X5016500Y-3240766I-61234J0D01*
G03X4955266Y-3302000I0J-61234D01*
G01X3975100Y-3701558D02*
G03X4036334Y-3640324I0J61234D01*
G03X3975100Y-3579090I-61234J0D01*
G03X3913866Y-3640324I0J-61234D01*
G03X3975100Y-3701558I61234J0D01*
G01X4650466Y-3441700D02*
G03X4711700Y-3502934I61234J0D01*
G03X4772934Y-3441700I0J61234D01*
G03X4711700Y-3380466I-61234J0D01*
G03X4650466Y-3441700I0J-61234D01*
G01X4980666Y-3441700D02*
G03X5041900Y-3502934I61234J0D01*
G03X5103134Y-3441700I0J61234D01*
G03X5041900Y-3380466I-61234J0D01*
G03X4980666Y-3441700I0J-61234D01*
G01X3581400Y-3532225D02*
G03X3642634Y-3470991I0J61234D01*
G03X3581400Y-3409756I-61234J0D01*
G03X3520166Y-3470991I0J-61234D01*
G03X3581400Y-3532225I61234J0D01*
G01X8997950Y-983030D02*
G03X9059164Y-921816I0J61214D01*
G03X8997950Y-860602I-61214J0D01*
G03X8936736Y-921816I0J-61214D01*
G03X8997950Y-983030I61214J0D01*
G01X8851900Y-983030D02*
G03X8913114Y-921816I0J61214D01*
G03X8851900Y-860602I-61214J0D01*
G03X8790686Y-921816I0J-61214D01*
G03X8851900Y-983030I61214J0D01*
G01X9417050Y-797814D02*
G03X9478264Y-736600I0J61214D01*
G03X9417050Y-675386I-61214J0D01*
G03X9355836Y-736600I0J-61214D01*
G03X9417050Y-797814I61214J0D01*
G01X8851900Y-797814D02*
G03X8913114Y-736600I0J61214D01*
G03X8851900Y-675386I-61214J0D01*
G03X8790686Y-736600I0J-61214D01*
G03X8851900Y-797814I61214J0D01*
G01X9271000Y-797814D02*
G03X9332214Y-736600I0J61214D01*
G03X9271000Y-675386I-61214J0D01*
G03X9209786Y-736600I0J-61214D01*
G03X9271000Y-797814I61214J0D01*
G01X8997950Y-797814D02*
G03X9059164Y-736600I0J61214D01*
G03X8997950Y-675386I-61214J0D01*
G03X8936736Y-736600I0J-61214D01*
G03X8997950Y-797814I61214J0D01*
G01X9082786Y-736600D02*
G03X9144000Y-797814I61214J0D01*
G03X9205214Y-736600I0J61214D01*
G03X9144000Y-675386I-61214J0D01*
G03X9082786Y-736600I0J-61214D01*
G01X7469886Y-3632200D02*
G03X7531100Y-3693414I61214J0D01*
G03X7592314Y-3632200I0J61214D01*
G03X7531100Y-3570986I-61214J0D01*
G03X7469886Y-3632200I0J-61214D01*
G01X8955786Y-3937000D02*
G03X9017000Y-3998214I61214J0D01*
G03X9078214Y-3937000I0J61214D01*
G03X9017000Y-3875786I-61214J0D01*
G03X8955786Y-3937000I0J-61214D01*
G01X7048500Y-4518914D02*
G03X7109714Y-4457700I0J61214D01*
G03X7048500Y-4396486I-61214J0D01*
G03X6987286Y-4457700I0J-61214D01*
G03X7048500Y-4518914I61214J0D01*
G01X6860286Y-4457700D02*
G03X6921500Y-4518914I61214J0D01*
G03X6982714Y-4457700I0J61214D01*
G03X6921500Y-4396486I-61214J0D01*
G03X6860286Y-4457700I0J-61214D01*
G01X8763000Y-4404614D02*
G03X8824214Y-4343400I0J61214D01*
G03X8763000Y-4282186I-61214J0D01*
G03X8701786Y-4343400I0J-61214D01*
G03X8763000Y-4404614I61214J0D01*
G01X7404100Y-3553714D02*
G03X7465314Y-3492500I0J61214D01*
G03X7404100Y-3431286I-61214J0D01*
G03X7342886Y-3492500I0J-61214D01*
G03X7404100Y-3553714I61214J0D01*
G01X8701786Y-4483100D02*
G03X8763000Y-4544314I61214J0D01*
G03X8824214Y-4483100I0J61214D01*
G03X8763000Y-4421886I-61214J0D01*
G03X8701786Y-4483100I0J-61214D01*
G01X8574786Y-4483100D02*
G03X8636000Y-4544314I61214J0D01*
G03X8697214Y-4483100I0J61214D01*
G03X8636000Y-4421886I-61214J0D01*
G03X8574786Y-4483100I0J-61214D01*
G01X7531100Y-3553714D02*
G03X7592314Y-3492500I0J61214D01*
G03X7531100Y-3431286I-61214J0D01*
G03X7469886Y-3492500I0J-61214D01*
G03X7531100Y-3553714I61214J0D01*
G01X7277100Y-3553714D02*
G03X7338314Y-3492500I0J61214D01*
G03X7277100Y-3431286I-61214J0D01*
G03X7215886Y-3492500I0J-61214D01*
G03X7277100Y-3553714I61214J0D01*
G01X8999848Y-1509118D02*
G03X9061062Y-1447904I0J61214D01*
G03X8999848Y-1386690I-61214J0D01*
G03X8938634Y-1447904I0J-61214D01*
G03X8999848Y-1509118I61214J0D01*
G01X8447786Y-4483100D02*
G03X8509000Y-4544314I61214J0D01*
G03X8570214Y-4483100I0J61214D01*
G03X8509000Y-4421886I-61214J0D01*
G03X8447786Y-4483100I0J-61214D01*
G01X6860286Y-4330700D02*
G03X6921500Y-4391914I61214J0D01*
G03X6982714Y-4330700I0J61214D01*
G03X6921500Y-4269486I-61214J0D01*
G03X6860286Y-4330700I0J-61214D01*
G01X7342886Y-3632200D02*
G03X7404100Y-3693414I61214J0D01*
G03X7465314Y-3632200I0J61214D01*
G03X7404100Y-3570986I-61214J0D01*
G03X7342886Y-3632200I0J-61214D01*
G01X8574786Y-4343400D02*
G03X8636000Y-4404614I61214J0D01*
G03X8697214Y-4343400I0J61214D01*
G03X8636000Y-4282186I-61214J0D01*
G03X8574786Y-4343400I0J-61214D01*
G01X6987286Y-4597400D02*
G03X7048500Y-4658614I61214J0D01*
G03X7109714Y-4597400I0J61214D01*
G03X7048500Y-4536186I-61214J0D01*
G03X6987286Y-4597400I0J-61214D01*
G01X7469886Y-3911600D02*
G03X7531100Y-3972814I61214J0D01*
G03X7592314Y-3911600I0J61214D01*
G03X7531100Y-3850386I-61214J0D01*
G03X7469886Y-3911600I0J-61214D01*
G01X7215886Y-3632200D02*
G03X7277100Y-3693414I61214J0D01*
G03X7338314Y-3632200I0J61214D01*
G03X7277100Y-3570986I-61214J0D01*
G03X7215886Y-3632200I0J-61214D01*
G01X8447786Y-4343400D02*
G03X8509000Y-4404614I61214J0D01*
G03X8570214Y-4343400I0J61214D01*
G03X8509000Y-4282186I-61214J0D01*
G03X8447786Y-4343400I0J-61214D01*
G01X8574786Y-4622800D02*
G03X8636000Y-4684014I61214J0D01*
G03X8697214Y-4622800I0J61214D01*
G03X8636000Y-4561586I-61214J0D01*
G03X8574786Y-4622800I0J-61214D01*
G01X8013700Y-2956814D02*
G03X8074914Y-2895600I0J61214D01*
G03X8013700Y-2834386I-61214J0D01*
G03X7952486Y-2895600I0J-61214D01*
G03X8013700Y-2956814I61214J0D01*
G01X7759700Y-2956814D02*
G03X7820914Y-2895600I0J61214D01*
G03X7759700Y-2834386I-61214J0D01*
G03X7698486Y-2895600I0J-61214D01*
G03X7759700Y-2956814I61214J0D01*
G01X6733286Y-4330700D02*
G03X6794500Y-4391914I61214J0D01*
G03X6855714Y-4330700I0J61214D01*
G03X6794500Y-4269486I-61214J0D01*
G03X6733286Y-4330700I0J-61214D01*
G01X8828786Y-4203700D02*
G03X8890000Y-4264914I61214J0D01*
G03X8951214Y-4203700I0J61214D01*
G03X8890000Y-4142486I-61214J0D01*
G03X8828786Y-4203700I0J-61214D01*
G01X9144000Y-3998214D02*
G03X9205214Y-3937000I0J61214D01*
G03X9144000Y-3875786I-61214J0D01*
G03X9082786Y-3937000I0J-61214D01*
G03X9144000Y-3998214I61214J0D01*
G01X7342886Y-3911600D02*
G03X7404100Y-3972814I61214J0D01*
G03X7465314Y-3911600I0J61214D01*
G03X7404100Y-3850386I-61214J0D01*
G03X7342886Y-3911600I0J-61214D01*
G01X8701786Y-4622800D02*
G03X8763000Y-4684014I61214J0D01*
G03X8824214Y-4622800I0J61214D01*
G03X8763000Y-4561586I-61214J0D01*
G03X8701786Y-4622800I0J-61214D01*
G01X8574786Y-4203700D02*
G03X8636000Y-4264914I61214J0D01*
G03X8697214Y-4203700I0J61214D01*
G03X8636000Y-4142486I-61214J0D01*
G03X8574786Y-4203700I0J-61214D01*
G01X8892286Y-2730500D02*
G03X8953500Y-2791714I61214J0D01*
G03X9014714Y-2730500I0J61214D01*
G03X8953500Y-2669286I-61214J0D01*
G03X8892286Y-2730500I0J-61214D01*
G01X7759700Y-2817114D02*
G03X7820914Y-2755900I0J61214D01*
G03X7759700Y-2694686I-61214J0D01*
G03X7698486Y-2755900I0J-61214D01*
G03X7759700Y-2817114I61214J0D01*
G01X9082786Y-1292248D02*
G03X9144000Y-1353462I61214J0D01*
G03X9205214Y-1292248I0J61214D01*
G03X9144000Y-1231034I-61214J0D01*
G03X9082786Y-1292248I0J-61214D01*
G01X6606286Y-4191000D02*
G03X6667500Y-4252214I61214J0D01*
G03X6728714Y-4191000I0J61214D01*
G03X6667500Y-4129786I-61214J0D01*
G03X6606286Y-4191000I0J-61214D01*
G01X9144000Y-4264914D02*
G03X9205214Y-4203700I0J61214D01*
G03X9144000Y-4142486I-61214J0D01*
G03X9082786Y-4203700I0J-61214D01*
G03X9144000Y-4264914I61214J0D01*
G01X8638286Y-2730500D02*
G03X8699500Y-2791714I61214J0D01*
G03X8760714Y-2730500I0J61214D01*
G03X8699500Y-2669286I-61214J0D01*
G03X8638286Y-2730500I0J-61214D01*
G01X7404100Y-4112514D02*
G03X7465314Y-4051300I0J61214D01*
G03X7404100Y-3990086I-61214J0D01*
G03X7342886Y-4051300I0J-61214D01*
G03X7404100Y-4112514I61214J0D01*
G01X7215886Y-4051300D02*
G03X7277100Y-4112514I61214J0D01*
G03X7338314Y-4051300I0J61214D01*
G03X7277100Y-3990086I-61214J0D01*
G03X7215886Y-4051300I0J-61214D01*
G01X6860286Y-4191000D02*
G03X6921500Y-4252214I61214J0D01*
G03X6982714Y-4191000I0J61214D01*
G03X6921500Y-4129786I-61214J0D01*
G03X6860286Y-4191000I0J-61214D01*
G01X7215886Y-3911600D02*
G03X7277100Y-3972814I61214J0D01*
G03X7338314Y-3911600I0J61214D01*
G03X7277100Y-3850386I-61214J0D01*
G03X7215886Y-3911600I0J-61214D01*
G01X6606286Y-4330700D02*
G03X6667500Y-4391914I61214J0D01*
G03X6728714Y-4330700I0J61214D01*
G03X6667500Y-4269486I-61214J0D01*
G03X6606286Y-4330700I0J-61214D01*
G01X6654800Y-4609010D02*
G03X6716014Y-4547796I0J61214D01*
G03X6654800Y-4486582I-61214J0D01*
G03X6593586Y-4547796I0J-61214D01*
G03X6654800Y-4609010I61214J0D01*
G01X9144000Y-4137914D02*
G03X9205214Y-4076700I0J61214D01*
G03X9144000Y-4015486I-61214J0D01*
G03X9082786Y-4076700I0J-61214D01*
G03X9144000Y-4137914I61214J0D01*
G01X8828786Y-3937000D02*
G03X8890000Y-3998214I61214J0D01*
G03X8951214Y-3937000I0J61214D01*
G03X8890000Y-3875786I-61214J0D01*
G03X8828786Y-3937000I0J-61214D01*
G01X9017000Y-4137914D02*
G03X9078214Y-4076700I0J61214D01*
G03X9017000Y-4015486I-61214J0D01*
G03X8955786Y-4076700I0J-61214D01*
G03X9017000Y-4137914I61214J0D01*
G01X6921500Y-4658614D02*
G03X6982714Y-4597400I0J61214D01*
G03X6921500Y-4536186I-61214J0D01*
G03X6860286Y-4597400I0J-61214D01*
G03X6921500Y-4658614I61214J0D01*
G01X7469886Y-4051300D02*
G03X7531100Y-4112514I61214J0D01*
G03X7592314Y-4051300I0J61214D01*
G03X7531100Y-3990086I-61214J0D01*
G03X7469886Y-4051300I0J-61214D01*
G01X8997950Y-1353462D02*
G03X9059164Y-1292248I0J61214D01*
G03X8997950Y-1231034I-61214J0D01*
G03X8936736Y-1292248I0J-61214D01*
G03X8997950Y-1353462I61214J0D01*
G01X8890000Y-4137914D02*
G03X8951214Y-4076700I0J61214D01*
G03X8890000Y-4015486I-61214J0D01*
G03X8828786Y-4076700I0J-61214D01*
G03X8890000Y-4137914I61214J0D01*
G01X8509000Y-4684014D02*
G03X8570214Y-4622800I0J61214D01*
G03X8509000Y-4561586I-61214J0D01*
G03X8447786Y-4622800I0J-61214D01*
G03X8509000Y-4684014I61214J0D01*
G01X8938675Y-2448814D02*
G03X8999889Y-2387600I0J61214D01*
G03X8938675Y-2326386I-61214J0D01*
G03X8877461Y-2387600I0J-61214D01*
G03X8938675Y-2448814I61214J0D01*
G01X8790686Y-1107032D02*
G03X8851900Y-1168246I61214J0D01*
G03X8913114Y-1107032I0J61214D01*
G03X8851900Y-1045818I-61214J0D01*
G03X8790686Y-1107032I0J-61214D01*
G01X6794500Y-4252214D02*
G03X6855714Y-4191000I0J61214D01*
G03X6794500Y-4129786I-61214J0D01*
G03X6733286Y-4191000I0J-61214D01*
G03X6794500Y-4252214I61214J0D01*
G01X8936736Y-1107032D02*
G03X8997950Y-1168246I61214J0D01*
G03X9059164Y-1107032I0J61214D01*
G03X8997950Y-1045818I-61214J0D01*
G03X8936736Y-1107032I0J-61214D01*
G01X9017000Y-4264914D02*
G03X9078214Y-4203700I0J61214D01*
G03X9017000Y-4142486I-61214J0D01*
G03X8955786Y-4203700I0J-61214D01*
G03X9017000Y-4264914I61214J0D01*
G01X8851900Y-1353462D02*
G03X8913114Y-1292248I0J61214D01*
G03X8851900Y-1231034I-61214J0D01*
G03X8790686Y-1292248I0J-61214D01*
G03X8851900Y-1353462I61214J0D01*
G01X8509000Y-4264914D02*
G03X8570214Y-4203700I0J61214D01*
G03X8509000Y-4142486I-61214J0D01*
G03X8447786Y-4203700I0J-61214D01*
G03X8509000Y-4264914I61214J0D01*
G01X7825486Y-2755900D02*
G03X7886700Y-2817114I61214J0D01*
G03X7947914Y-2755900I0J61214D01*
G03X7886700Y-2694686I-61214J0D01*
G03X7825486Y-2755900I0J-61214D01*
G01X8792584Y-1447904D02*
G03X8853798Y-1509118I61214J0D01*
G03X8915012Y-1447904I0J61214D01*
G03X8853798Y-1386690I-61214J0D01*
G03X8792584Y-1447904I0J-61214D01*
G01X8701786Y-4203700D02*
G03X8763000Y-4264914I61214J0D01*
G03X8824214Y-4203700I0J61214D01*
G03X8763000Y-4142486I-61214J0D01*
G03X8701786Y-4203700I0J-61214D01*
G01X8765286Y-2730500D02*
G03X8826500Y-2791714I61214J0D01*
G03X8887714Y-2730500I0J61214D01*
G03X8826500Y-2669286I-61214J0D01*
G03X8765286Y-2730500I0J-61214D01*
G01X7825486Y-2895600D02*
G03X7886700Y-2956814I61214J0D01*
G03X7947914Y-2895600I0J61214D01*
G03X7886700Y-2834386I-61214J0D01*
G03X7825486Y-2895600I0J-61214D01*
G01X7952486Y-2755900D02*
G03X8013700Y-2817114I61214J0D01*
G03X8074914Y-2755900I0J61214D01*
G03X8013700Y-2694686I-61214J0D01*
G03X7952486Y-2755900I0J-61214D01*
G01X6464300Y-3718814D02*
G03X6525514Y-3657600I0J61214D01*
G03X6464300Y-3596386I-61214J0D01*
G03X6403086Y-3657600I0J-61214D01*
G03X6464300Y-3718814I61214J0D01*
G01X812800Y-4239514D02*
G03X874014Y-4178300I0J61214D01*
G03X812800Y-4117086I-61214J0D01*
G03X751586Y-4178300I0J-61214D01*
G03X812800Y-4239514I61214J0D01*
G01X2275586Y-2417528D02*
G03X2336800Y-2478742I61214J0D01*
G03X2398014Y-2417528I0J61214D01*
G03X2336800Y-2356314I-61214J0D01*
G03X2275586Y-2417528I0J-61214D01*
G01X6276086Y-3657600D02*
G03X6337300Y-3718814I61214J0D01*
G03X6398514Y-3657600I0J61214D01*
G03X6337300Y-3596386I-61214J0D01*
G03X6276086Y-3657600I0J-61214D01*
G01X1653286Y-1752600D02*
G03X1714500Y-1813814I61214J0D01*
G03X1775714Y-1752600I0J61214D01*
G03X1714500Y-1691386I-61214J0D01*
G03X1653286Y-1752600I0J-61214D01*
G01X6149086Y-3657600D02*
G03X6210300Y-3718814I61214J0D01*
G03X6271514Y-3657600I0J61214D01*
G03X6210300Y-3596386I-61214J0D01*
G03X6149086Y-3657600I0J-61214D01*
G01X1732788Y-2309114D02*
G03X1794002Y-2247900I0J61214D01*
G03X1732788Y-2186686I-61214J0D01*
G03X1671574Y-2247900I0J-61214D01*
G03X1732788Y-2309114I61214J0D01*
G01X5346700Y-2740914D02*
G03X5407914Y-2679700I0J61214D01*
G03X5346700Y-2618486I-61214J0D01*
G03X5285486Y-2679700I0J-61214D01*
G03X5346700Y-2740914I61214J0D01*
G01X4178300Y-4264914D02*
G03X4239514Y-4203700I0J61214D01*
G03X4178300Y-4142486I-61214J0D01*
G03X4117086Y-4203700I0J-61214D01*
G03X4178300Y-4264914I61214J0D01*
G01X4688586Y-4076700D02*
G03X4749800Y-4137914I61214J0D01*
G03X4811014Y-4076700I0J61214D01*
G03X4749800Y-4015486I-61214J0D01*
G03X4688586Y-4076700I0J-61214D01*
G01X4921098Y-2690114D02*
G03X4982312Y-2628900I0J61214D01*
G03X4921098Y-2567686I-61214J0D01*
G03X4859884Y-2628900I0J-61214D01*
G03X4921098Y-2690114I61214J0D01*
G01X5537200Y-3706114D02*
G03X5598414Y-3644900I0J61214D01*
G03X5537200Y-3583686I-61214J0D01*
G03X5475986Y-3644900I0J-61214D01*
G03X5537200Y-3706114I61214J0D01*
G01X4965700Y-4658614D02*
G03X5026914Y-4597400I0J61214D01*
G03X4965700Y-4536186I-61214J0D01*
G03X4904486Y-4597400I0J-61214D01*
G03X4965700Y-4658614I61214J0D01*
G01X4575242Y-4252214D02*
G03X4636456Y-4191000I0J61214D01*
G03X4575242Y-4129786I-61214J0D01*
G03X4514028Y-4191000I0J-61214D01*
G03X4575242Y-4252214I61214J0D01*
G01X4999888Y-2641600D02*
G03X5061102Y-2702814I61214J0D01*
G03X5122316Y-2641600I0J61214D01*
G03X5061102Y-2580386I-61214J0D01*
G03X4999888Y-2641600I0J-61214D01*
G01X3455449Y-2740914D02*
G03X3516663Y-2679700I0J61214D01*
G03X3455449Y-2618486I-61214J0D01*
G03X3394235Y-2679700I0J-61214D01*
G03X3455449Y-2740914I61214J0D01*
G01X2908300Y-4188714D02*
G03X2969514Y-4127500I0J61214D01*
G03X2908300Y-4066286I-61214J0D01*
G03X2847086Y-4127500I0J-61214D01*
G03X2908300Y-4188714I61214J0D01*
G01X6136386Y-3968598D02*
G03X6197600Y-4029812I61214J0D01*
G03X6258814Y-3968598I0J61214D01*
G03X6197600Y-3907384I-61214J0D01*
G03X6136386Y-3968598I0J-61214D01*
G01X3924300Y-4270019D02*
G03X3985514Y-4208805I0J61214D01*
G03X3924300Y-4147591I-61214J0D01*
G03X3863086Y-4208805I0J-61214D01*
G03X3924300Y-4270019I61214J0D01*
G01X6083300Y-3718814D02*
G03X6144514Y-3657600I0J61214D01*
G03X6083300Y-3596386I-61214J0D01*
G03X6022086Y-3657600I0J-61214D01*
G03X6083300Y-3718814I61214J0D01*
G01X4178300Y-4544314D02*
G03X4239514Y-4483100I0J61214D01*
G03X4178300Y-4421886I-61214J0D01*
G03X4117086Y-4483100I0J-61214D01*
G03X4178300Y-4544314I61214J0D01*
G01X5831586Y-3606800D02*
G03X5892800Y-3668014I61214J0D01*
G03X5954014Y-3606800I0J61214D01*
G03X5892800Y-3545586I-61214J0D01*
G03X5831586Y-3606800I0J-61214D01*
G01X5092700Y-4658614D02*
G03X5153914Y-4597400I0J61214D01*
G03X5092700Y-4536186I-61214J0D01*
G03X5031486Y-4597400I0J-61214D01*
G03X5092700Y-4658614I61214J0D01*
G01X6017101Y-3149600D02*
G03X6078315Y-3210814I61214J0D01*
G03X6139529Y-3149600I0J61214D01*
G03X6078315Y-3088386I-61214J0D01*
G03X6017101Y-3149600I0J-61214D01*
G01X5346700Y-4658614D02*
G03X5407914Y-4597400I0J61214D01*
G03X5346700Y-4536186I-61214J0D01*
G03X5285486Y-4597400I0J-61214D01*
G03X5346700Y-4658614I61214J0D01*
G01X5221986Y-3644900D02*
G03X5283200Y-3706114I61214J0D01*
G03X5344414Y-3644900I0J61214D01*
G03X5283200Y-3583686I-61214J0D01*
G03X5221986Y-3644900I0J-61214D01*
G01X5158486Y-4597400D02*
G03X5219700Y-4658614I61214J0D01*
G03X5280914Y-4597400I0J61214D01*
G03X5219700Y-4536186I-61214J0D01*
G03X5158486Y-4597400I0J-61214D01*
G01X5539486Y-2679700D02*
G03X5600700Y-2740914I61214J0D01*
G03X5661914Y-2679700I0J61214D01*
G03X5600700Y-2618486I-61214J0D01*
G03X5539486Y-2679700I0J-61214D01*
G01X5412486Y-2679700D02*
G03X5473700Y-2740914I61214J0D01*
G03X5534914Y-2679700I0J61214D01*
G03X5473700Y-2618486I-61214J0D01*
G03X5412486Y-2679700I0J-61214D01*
G01X4498086Y-3060700D02*
G03X4559300Y-3121914I61214J0D01*
G03X4620514Y-3060700I0J61214D01*
G03X4559300Y-2999486I-61214J0D01*
G03X4498086Y-3060700I0J-61214D01*
G01X2059686Y-3911600D02*
G03X2120900Y-3972814I61214J0D01*
G03X2182114Y-3911600I0J61214D01*
G03X2120900Y-3850386I-61214J0D01*
G03X2059686Y-3911600I0J-61214D01*
G04 Copper End*

G04 Pad Start*
G54D10*
G01X2705100Y-787400D03*
G01X2705100Y-279400D03*
G01X2705100Y-1333500D03*
G01X2705100Y-1841500D03*
G01X8089900Y-787400D03*
G01X8089900Y-279400D03*
G01X8089900Y-1333500D03*
G01X8089900Y-1841500D03*
G54D11*
G01X563088Y-3319535D03*
G01X563088Y-2819536D03*
G54D12*
G01X965200Y-897699D03*
G01X965200Y-397700D03*
G54D11*
G01X9296400Y-1528000D03*
G01X9296400Y-1028001D03*
G54D13*
G01X3809091Y-3397933D03*
G01X6845191Y-3396413D03*
G54D15*
G01X501650Y-273050D03*
G01X9328150Y-4565650D03*
G01X9328150Y-273050D03*
G01X508000Y-4572000D03*
G04 Pad End*

G04 Via Start*
G54D16*
G01X2616200Y-2482526D03*
G01X1739900Y-2349500D03*
G01X1828800Y-2171700D03*
G01X1667789Y-1168400D03*
G01X3365500Y-2184400D03*
G54D17*
G01X4229100Y-1587500D03*
G54D16*
G01X3416300Y-2933700D03*
G01X3209879Y-2959100D03*
G01X7251700Y-2692400D03*
G01X6667500Y-3276600D03*
G01X6388100Y-3009900D03*
G01X6261100Y-3149600D03*
G01X6261100Y-2501900D03*
G01X7162800Y-2755797D03*
G01X7493000Y-2768600D03*
G01X7594600Y-3352800D03*
G01X3213100Y-2590800D03*
G01X3060700Y-3111500D03*
G54D17*
G01X3683000Y-2197100D03*
G54D16*
G01X6769100Y-2552700D03*
G01X6505878Y-2654300D03*
G01X7590135Y-2044700D03*
G01X7073900Y-1905000D03*
G01X8760750Y-2921000D03*
G01X7861300Y-4470400D03*
G01X5511800Y-2895600D03*
G01X2641600Y-2641600D03*
G01X2114093Y-2349500D03*
G01X1282700Y-2324100D03*
G01X7264400Y-4508500D03*
G01X1993900Y-1651000D03*
G01X4178300Y-2933700D03*
G01X4406900Y-2933700D03*
G01X546100Y-1246236D03*
G01X546100Y-1147176D03*
G01X546100Y-1048116D03*
G01X546100Y-949056D03*
G01X546100Y-849996D03*
G01X546100Y-750936D03*
G01X630937Y-949056D03*
G01X630937Y-849996D03*
G01X630937Y-750936D03*
G01X2679700Y-3098800D03*
G01X5473700Y-3492500D03*
G01X3988664Y-2628900D03*
G01X4584700Y-3213100D03*
G01X5208194Y-3175000D03*
G01X5118100Y-3175000D03*
G01X3975100Y-3640324D03*
G01X3581400Y-3470991D03*
G01X3505200Y-3301657D03*
G01X5041900Y-3441700D03*
G01X4711700Y-3441700D03*
G01X5016500Y-3302000D03*
G01X2515464Y-4356100D03*
G01X2375764Y-4356100D03*
G54D18*
G01X3962400Y-3429000D03*
G01X5358206Y-3746500D03*
G01X3575050Y-4489210D03*
G01X3721100Y-4489210D03*
G01X3429000Y-4489210D03*
G01X3575050Y-4590810D03*
G01X3721100Y-4590810D03*
G01X3429000Y-4590810D03*
G01X9017000Y-4203700D03*
G01X8890000Y-4203700D03*
G01X9144000Y-4203700D03*
G01X8509000Y-4343400D03*
G01X8636000Y-4343400D03*
G01X8636000Y-4203700D03*
G01X8509000Y-4203700D03*
G01X8763000Y-4203700D03*
G01X8763000Y-4343400D03*
G01X8509000Y-4622800D03*
G01X8636000Y-4622800D03*
G01X8636000Y-4483100D03*
G01X8509000Y-4483100D03*
G01X8763000Y-4483100D03*
G01X8763000Y-4622800D03*
G01X8890000Y-4076700D03*
G01X9017000Y-4076700D03*
G01X9017000Y-3937000D03*
G01X8890000Y-3937000D03*
G01X9144000Y-3937000D03*
G01X9144000Y-4076700D03*
G01X7277100Y-4051300D03*
G01X7404100Y-4051300D03*
G01X7404100Y-3911600D03*
G01X7277100Y-3911600D03*
G01X7531100Y-3911600D03*
G01X7531100Y-4051300D03*
G01X6921500Y-4597400D03*
G01X6921500Y-4457700D03*
G01X7048500Y-4457700D03*
G01X7048500Y-4597400D03*
G01X6667500Y-4330700D03*
G01X6794500Y-4330700D03*
G01X6794500Y-4191000D03*
G01X6667500Y-4191000D03*
G01X6921500Y-4191000D03*
G01X6921500Y-4330700D03*
G01X5092700Y-4597400D03*
G01X5219700Y-4597400D03*
G01X5346700Y-4597400D03*
G01X4965700Y-4597400D03*
G01X6210300Y-3657600D03*
G01X6337300Y-3657600D03*
G01X6464300Y-3657600D03*
G01X6083300Y-3657600D03*
G01X7277100Y-3632200D03*
G01X7277100Y-3492500D03*
G01X7404100Y-3632200D03*
G01X7404100Y-3492500D03*
G01X7531100Y-3492500D03*
G01X7531100Y-3632200D03*
G01X7759700Y-2895600D03*
G01X7759700Y-2755900D03*
G01X7886700Y-2895600D03*
G01X7886700Y-2755900D03*
G01X8013700Y-2755900D03*
G01X8013700Y-2895600D03*
G01X8953500Y-2730500D03*
G01X8826500Y-2730500D03*
G01X8699500Y-2730500D03*
G54D17*
G01X1245169Y-732066D03*
G01X1245169Y-831126D03*
G01X1245169Y-930186D03*
G01X1243271Y-358812D03*
G01X1243271Y-475906D03*
G01X1245169Y-593948D03*
G01X2230756Y-691503D03*
G01X2230756Y-564503D03*
G01X2230756Y-437503D03*
G01X2370456Y-437503D03*
G01X2370456Y-564503D03*
G01X2370456Y-691503D03*
G01X2235200Y-1130300D03*
G01X2235200Y-1003300D03*
G01X2235200Y-876300D03*
G01X2374900Y-876300D03*
G01X2374900Y-1003300D03*
G01X2374900Y-1130300D03*
G01X2374900Y-1422400D03*
G01X2247900Y-1422400D03*
G01X2120900Y-1422400D03*
G01X2120900Y-1282700D03*
G01X2247900Y-1282700D03*
G01X2374900Y-1282700D03*
G01X2908300Y-901700D03*
G01X2908300Y-774700D03*
G01X2908300Y-647700D03*
G01X3048000Y-647700D03*
G01X3048000Y-774700D03*
G01X3048000Y-901700D03*
G01X2908300Y-1320800D03*
G01X2908300Y-1193800D03*
G01X2908300Y-1066800D03*
G01X3048000Y-1066800D03*
G01X3048000Y-1193800D03*
G01X3048000Y-1320800D03*
G54D18*
G01X6464300Y-3365500D03*
G01X5346700Y-2679700D03*
G01X5473700Y-2679700D03*
G01X5600700Y-2679700D03*
G01X5108194Y-2908300D03*
G01X6337300Y-3530600D03*
G01X6464300Y-3530600D03*
G01X6210300Y-3530600D03*
G01X6083300Y-3530600D03*
G01X5892800Y-3352800D03*
G01X5892800Y-3606800D03*
G01X3365500Y-3709186D03*
G01X3485773Y-3708400D03*
G01X3365500Y-3822700D03*
G01X3485773Y-3821914D03*
G01X3619500Y-3708400D03*
G01X3739773Y-3707614D03*
G01X3619500Y-3822700D03*
G01X3739773Y-3821914D03*
G01X3365500Y-4013200D03*
G01X2120900Y-3911600D03*
G01X6197600Y-3968598D03*
G01X6654800Y-4547796D03*
G01X4575242Y-4191000D03*
G01X4699000Y-3784294D03*
G01X4749800Y-4076700D03*
G01X8210530Y-2755900D03*
G01X8210530Y-2851601D03*
G01X2336800Y-2417528D03*
G01X1732788Y-2247900D03*
G01X3924300Y-4208805D03*
G01X2908300Y-4127500D03*
G54D19*
G01X7759700Y-3124200D03*
G54D18*
G01X5061102Y-2641600D03*
G01X3455449Y-2679700D03*
G01X2971410Y-3035690D03*
G54D17*
G01X4433545Y-1070590D03*
G01X4433545Y-1184890D03*
G01X4433545Y-1302015D03*
G01X4694436Y-1070590D03*
G01X4694436Y-1184890D03*
G01X4694436Y-1302015D03*
G01X4563991Y-1302015D03*
G01X4563991Y-1184890D03*
G01X4563991Y-1070590D03*
G01X4433192Y-1723871D03*
G01X4433192Y-1606745D03*
G01X4433192Y-1492445D03*
G01X4563637Y-1492445D03*
G01X4563637Y-1606745D03*
G01X4563637Y-1723871D03*
G01X4694083Y-1723871D03*
G01X4694083Y-1606745D03*
G01X4694083Y-1492445D03*
G01X4434605Y-2177369D03*
G01X4434605Y-2060243D03*
G01X4434605Y-1945943D03*
G01X4565050Y-1945943D03*
G01X4565050Y-2060243D03*
G01X4565050Y-2177369D03*
G01X4695496Y-2177369D03*
G01X4695496Y-2060243D03*
G01X4695496Y-1945943D03*
G01X3828528Y-2109203D03*
G01X3828528Y-1992077D03*
G01X3828528Y-1877777D03*
G01X3958974Y-1877777D03*
G01X3958974Y-1992077D03*
G01X3958974Y-2109203D03*
G01X4089419Y-2109203D03*
G01X4089419Y-1992077D03*
G01X4089419Y-1877777D03*
G01X3702792Y-1523173D03*
G01X3833237Y-1523173D03*
G01X3833237Y-1637473D03*
G01X3702792Y-1637473D03*
G01X6063038Y-1064465D03*
G01X6323929Y-1064465D03*
G01X6193484Y-1064465D03*
G01X6063038Y-1178765D03*
G01X6323929Y-1178765D03*
G01X6193484Y-1178765D03*
G01X6063038Y-1295891D03*
G01X6323929Y-1295891D03*
G01X6193484Y-1295891D03*
G01X6062685Y-1717746D03*
G01X6193130Y-1717746D03*
G01X6323576Y-1717746D03*
G01X6064098Y-2171244D03*
G01X6064098Y-2054119D03*
G01X6064098Y-1939819D03*
G01X6194543Y-1939819D03*
G01X6194543Y-2054119D03*
G01X6194543Y-2171244D03*
G01X6324989Y-2171244D03*
G01X6324989Y-2054119D03*
G01X6324989Y-1939819D03*
G01X6323576Y-1600621D03*
G01X6323576Y-1486321D03*
G01X6062685Y-1600621D03*
G01X6062685Y-1486321D03*
G01X6193130Y-1486321D03*
G01X6193130Y-1600621D03*
G01X6671366Y-1893879D03*
G01X6932257Y-1893879D03*
G01X6801812Y-1893879D03*
G01X6671366Y-2008179D03*
G01X6932257Y-2008179D03*
G01X6801812Y-2008179D03*
G01X6671366Y-2125305D03*
G01X6932257Y-2125305D03*
G01X6801812Y-2125305D03*
G01X6679137Y-918364D03*
G01X6940028Y-918364D03*
G01X6809582Y-918364D03*
G01X6679137Y-1032664D03*
G01X6940028Y-1032664D03*
G01X6809582Y-1032664D03*
G01X6679137Y-1149790D03*
G01X6940028Y-1149790D03*
G01X6809582Y-1149790D03*
G54D18*
G01X3822700Y-177800D03*
G01X3822700Y-292100D03*
G01X3822700Y-409225D03*
G01X3953146Y-409225D03*
G01X3953146Y-292100D03*
G01X3953146Y-177800D03*
G01X4083591Y-177800D03*
G01X4083591Y-292100D03*
G01X4083591Y-409225D03*
G01X4229100Y-177800D03*
G01X4229100Y-292100D03*
G01X4229100Y-409225D03*
G01X4359546Y-409225D03*
G01X4359546Y-292100D03*
G01X4359546Y-177800D03*
G01X4489991Y-177800D03*
G01X4489991Y-292100D03*
G01X4489991Y-409225D03*
G01X4622800Y-177800D03*
G01X4622800Y-292100D03*
G01X4622800Y-409225D03*
G01X4753246Y-409225D03*
G01X4753246Y-292100D03*
G01X4753246Y-177800D03*
G01X4883691Y-177800D03*
G01X4883691Y-292100D03*
G01X4883691Y-409225D03*
G01X5969000Y-177800D03*
G01X5969000Y-292100D03*
G01X5969000Y-409225D03*
G01X6099446Y-409225D03*
G01X6099446Y-292100D03*
G01X6099446Y-177800D03*
G01X6229891Y-177800D03*
G01X6229891Y-292100D03*
G01X6229891Y-409225D03*
G01X6375400Y-177800D03*
G01X6375400Y-292100D03*
G01X6375400Y-409225D03*
G01X6505846Y-409225D03*
G01X6505846Y-292100D03*
G01X6505846Y-177800D03*
G01X6636291Y-177800D03*
G01X6636291Y-292100D03*
G01X6636291Y-409225D03*
G01X6781800Y-177800D03*
G01X6781800Y-292100D03*
G01X6781800Y-409225D03*
G01X6912246Y-409225D03*
G01X6912246Y-292100D03*
G01X6912246Y-177800D03*
G01X7042691Y-177800D03*
G01X7042691Y-292100D03*
G01X7042691Y-409225D03*
G54D17*
G01X1308599Y-2750495D03*
G01X1308599Y-2864795D03*
G01X1308599Y-2981920D03*
G01X1439044Y-2981920D03*
G01X1439044Y-2864795D03*
G01X1439044Y-2750495D03*
G01X1569490Y-2750495D03*
G01X1569490Y-2864795D03*
G01X1569490Y-2981920D03*
G01X855101Y-2750495D03*
G01X855101Y-2864795D03*
G01X855101Y-2981920D03*
G01X985546Y-2981920D03*
G01X985546Y-2864795D03*
G01X985546Y-2750495D03*
G01X1115992Y-2750495D03*
G01X1115992Y-2864795D03*
G01X1115992Y-2981920D03*
G54D18*
G01X2667000Y-4064000D03*
G01X3289300Y-4102100D03*
G01X2705100Y-3721100D03*
G01X4559300Y-3060700D03*
G01X4114800Y-3517900D03*
G01X4921098Y-2628900D03*
G01X6078315Y-3149600D03*
G01X2908300Y-1612900D03*
G01X3038746Y-1612900D03*
G01X3169191Y-1612900D03*
G01X3169191Y-1727200D03*
G01X3038746Y-1727200D03*
G01X2908300Y-1727200D03*
G01X2908300Y-1844325D03*
G01X3038746Y-1844325D03*
G01X3169191Y-1844325D03*
G01X2908300Y-1993900D03*
G01X3038746Y-1993900D03*
G01X3169191Y-1993900D03*
G01X3169191Y-2108200D03*
G01X3038746Y-2108200D03*
G01X2908300Y-2108200D03*
G01X2619646Y-1993900D03*
G01X2750091Y-1993900D03*
G01X2750091Y-2108200D03*
G01X1854200Y-2832100D03*
G01X1984646Y-2832100D03*
G01X2115091Y-2832100D03*
G01X2115091Y-2946400D03*
G01X1984646Y-2946400D03*
G01X1854200Y-2946400D03*
G01X1854200Y-3063525D03*
G01X1984646Y-3063525D03*
G01X2115091Y-3063525D03*
G01X368300Y-2377725D03*
G01X498746Y-2377725D03*
G01X629191Y-2377725D03*
G01X7772400Y-2044700D03*
G01X7902846Y-2044700D03*
G01X8033291Y-2044700D03*
G01X8033291Y-2159000D03*
G01X7902846Y-2159000D03*
G01X7772400Y-2159000D03*
G01X7772400Y-2276125D03*
G01X7902846Y-2276125D03*
G01X8033291Y-2276125D03*
G01X8153400Y-2044700D03*
G01X8283846Y-2044700D03*
G01X8414291Y-2044700D03*
G01X8414291Y-2159000D03*
G01X8283846Y-2159000D03*
G01X8153400Y-2159000D03*
G01X8153400Y-2276125D03*
G01X8283846Y-2276125D03*
G01X8414291Y-2276125D03*
G01X7772400Y-2400300D03*
G01X7902846Y-2400300D03*
G01X8033291Y-2400300D03*
G01X8033291Y-2514600D03*
G01X7902846Y-2514600D03*
G01X7772400Y-2514600D03*
G01X8153400Y-2400300D03*
G01X8283846Y-2400300D03*
G01X8414291Y-2400300D03*
G01X8414291Y-2514600D03*
G01X8283846Y-2514600D03*
G01X8153400Y-2514600D03*
G01X7607300Y-1625600D03*
G01X7737746Y-1625600D03*
G01X7868191Y-1625600D03*
G01X7868191Y-1739900D03*
G01X7737746Y-1739900D03*
G01X7607300Y-1739900D03*
G01X7607300Y-1857025D03*
G01X7737746Y-1857025D03*
G01X7868191Y-1857025D03*
G01X8382000Y-152400D03*
G01X8512446Y-152400D03*
G01X8642891Y-152400D03*
G01X8642891Y-266700D03*
G01X8512446Y-266700D03*
G01X8382000Y-266700D03*
G01X8382000Y-383825D03*
G01X8512446Y-383825D03*
G01X8642891Y-383825D03*
G01X7632700Y-152400D03*
G01X7763146Y-152400D03*
G01X7893591Y-152400D03*
G01X7893591Y-266700D03*
G01X7763146Y-266700D03*
G01X7632700Y-266700D03*
G01X7632700Y-383825D03*
G01X7763146Y-383825D03*
G01X7893591Y-383825D03*
G01X7200900Y-152400D03*
G01X7331346Y-152400D03*
G01X7461791Y-152400D03*
G01X7461791Y-266700D03*
G01X7331346Y-266700D03*
G01X7200900Y-266700D03*
G01X7200900Y-383825D03*
G01X7331346Y-383825D03*
G01X7461791Y-383825D03*
G01X3214586Y-101600D03*
G01X3345032Y-101600D03*
G01X3475477Y-101600D03*
G01X3475477Y-215900D03*
G01X3345032Y-215900D03*
G01X3214586Y-215900D03*
G01X3214586Y-333025D03*
G01X3345032Y-333025D03*
G01X3475477Y-333025D03*
G01X2369091Y-88900D03*
G01X2238646Y-88900D03*
G01X2108200Y-88900D03*
G01X2108200Y-206025D03*
G01X2238646Y-206025D03*
G01X2369091Y-206025D03*
G01X1886491Y-88900D03*
G01X1756046Y-88900D03*
G01X1625600Y-88900D03*
G01X1625600Y-206025D03*
G01X1756046Y-206025D03*
G01X1886491Y-206025D03*
G01X362491Y-685800D03*
G01X362491Y-800100D03*
G01X362491Y-917225D03*
G01X362491Y-1021455D03*
G01X362491Y-1135755D03*
G01X362491Y-1252881D03*
G01X362491Y-1358900D03*
G01X362491Y-1473200D03*
G01X362491Y-1590325D03*
G01X5537200Y-3416300D03*
G01X5410200Y-3416300D03*
G01X5283200Y-3416300D03*
G01X5283200Y-3302000D03*
G01X5410200Y-3302000D03*
G01X5537200Y-3302000D03*
G01X5410200Y-3644900D03*
G01X5283200Y-3644900D03*
G01X5537200Y-3644900D03*
G54D16*
G01X2247900Y-1968500D03*
G54D18*
G01X1930400Y-1778000D03*
G01X2060846Y-1778000D03*
G01X2060846Y-1892300D03*
G01X1930400Y-1892300D03*
G01X368300Y-2489200D03*
G01X498746Y-2489200D03*
G01X629191Y-2489200D03*
G01X774700Y-2374900D03*
G01X905146Y-2374900D03*
G01X1035591Y-2374900D03*
G01X774700Y-2489200D03*
G01X905146Y-2489200D03*
G01X1035591Y-2489200D03*
G01X431800Y-2044700D03*
G01X548798Y-2044700D03*
G01X665796Y-2044700D03*
G01X782794Y-2044700D03*
G01X431800Y-2171700D03*
G01X548798Y-2171700D03*
G01X665796Y-2171700D03*
G01X782794Y-2171700D03*
G01X1714500Y-1752600D03*
G01X330200Y-1841500D03*
G01X8938675Y-2387600D03*
G01X9194800Y-2251095D03*
G01X8839200Y-2477343D03*
G01X7073900Y-3530600D03*
G01X5905500Y-3442106D03*
G01X8837889Y-1663090D03*
G01X8851900Y-736600D03*
G01X8997950Y-736600D03*
G01X9144000Y-736600D03*
G01X9144000Y-1107032D03*
G01X8851900Y-1107032D03*
G01X8997950Y-1107032D03*
G01X9144000Y-921816D03*
G01X8851900Y-921816D03*
G01X8997950Y-921816D03*
G01X9144000Y-1292248D03*
G01X8851900Y-1292248D03*
G01X8997950Y-1292248D03*
G01X9271000Y-736600D03*
G01X9417050Y-736600D03*
G54D17*
G01X7819707Y-823662D03*
G01X7819707Y-954107D03*
G01X7934007Y-954107D03*
G01X7934007Y-823662D03*
G01X7819707Y-693217D03*
G01X7934007Y-693217D03*
G01X7823200Y-1228455D03*
G01X7823200Y-1358900D03*
G01X7937500Y-1358900D03*
G01X7937500Y-1228455D03*
G01X7823200Y-1098009D03*
G01X7937500Y-1098009D03*
G01X8299268Y-1227068D03*
G01X8299268Y-1357513D03*
G01X8413568Y-1357513D03*
G01X8413568Y-1227068D03*
G01X8299268Y-1096622D03*
G01X8413568Y-1096622D03*
G01X8299268Y-821319D03*
G01X8299268Y-951764D03*
G01X8413568Y-951764D03*
G01X8413568Y-821319D03*
G01X8299268Y-690873D03*
G01X8413568Y-690873D03*
G01X7579123Y-997381D03*
G01X7579123Y-1127826D03*
G01X7693423Y-1127826D03*
G01X7693423Y-997381D03*
G01X7579123Y-866935D03*
G01X7693423Y-866935D03*
G01X7305776Y-1008770D03*
G01X7305776Y-1139215D03*
G01X7420076Y-1139215D03*
G01X7420076Y-1008770D03*
G01X7305776Y-878324D03*
G01X7420076Y-878324D03*
G54D18*
G01X8999848Y-1447904D03*
G01X8853798Y-1447904D03*
G01X2798144Y-2503983D03*
G01X2798144Y-2389683D03*
G01X2928589Y-2389683D03*
G01X2928589Y-2503983D03*
G01X2798144Y-2727501D03*
G01X2798144Y-2613201D03*
G01X2928589Y-2613201D03*
G01X2928589Y-2727501D03*
G01X9493933Y-4164789D03*
G01X9366933Y-4164789D03*
G01X9498204Y-3754769D03*
G01X9371204Y-3754769D03*
G01X9371204Y-3894469D03*
G01X9498204Y-3894469D03*
G01X9498204Y-4021469D03*
G01X9371204Y-4021469D03*
G01X9496780Y-3341902D03*
G01X9369780Y-3341902D03*
G01X9369780Y-3481602D03*
G01X9496780Y-3481602D03*
G01X9496780Y-3608602D03*
G01X9369780Y-3608602D03*
G01X9498204Y-2886324D03*
G01X9371204Y-2886324D03*
G01X9371204Y-3026024D03*
G01X9498204Y-3026024D03*
G01X9498204Y-3153024D03*
G01X9371204Y-3153024D03*
G01X9496780Y-2453525D03*
G01X9369780Y-2453525D03*
G01X9369780Y-2593225D03*
G01X9496780Y-2593225D03*
G01X9496780Y-2720225D03*
G01X9369780Y-2720225D03*
G01X9496780Y-2026421D03*
G01X9369780Y-2026421D03*
G01X9369780Y-2166121D03*
G01X9496780Y-2166121D03*
G01X9496780Y-2293121D03*
G01X9369780Y-2293121D03*
G54D17*
G01X4089419Y-1145925D03*
G01X3828528Y-914500D03*
G01X3958974Y-914500D03*
G01X3828528Y-1145925D03*
G01X3828528Y-1028800D03*
G01X3958974Y-1028800D03*
G01X3958974Y-1145925D03*
G01X4089419Y-1028800D03*
G01X4089419Y-914500D03*
G54D18*
G01X952500Y-4013200D03*
G01X1016000Y-4013200D03*
G01X952500Y-4076700D03*
G01X1016000Y-4076700D03*
G54D17*
G01X1498498Y-3352800D03*
G01X1498498Y-3238500D03*
G01X1498498Y-3469925D03*
G01X1333500Y-3378200D03*
G01X1333500Y-3263900D03*
G01X1333500Y-3495325D03*
G54D18*
G01X1282971Y-4111638D03*
G01X1282971Y-4032305D03*
G01X677852Y-3810000D03*
G01X749300Y-4584700D03*
G01X812800Y-4178300D03*
G54D17*
G01X1460602Y-4549425D03*
G01X1460602Y-4432300D03*
G01X1460602Y-4318000D03*
G01X1931416Y-3721100D03*
G01X1930400Y-4007358D03*
G01X1930392Y-3866860D03*
G01X2120900Y-4216400D03*
G01X2235200Y-4216400D03*
G01X2120900Y-4318000D03*
G01X2235200Y-4318000D03*
G01X1981200Y-4432300D03*
G01X1981200Y-4584700D03*
G01X2946400Y-4292600D03*
G01X2197100Y-4445000D03*
G54D20*
G01X1828800Y-3505200D03*
G01X1828800Y-3276600D03*
G01X1828800Y-3393084D03*
G01X1333500Y-3784600D03*
G01X1447800Y-3784600D03*
G01X1447800Y-3911600D03*
G01X1333500Y-3911600D03*
G01X1066800Y-3378200D03*
G01X1066800Y-3149600D03*
G01X1181100Y-3149600D03*
G01X1181100Y-3263900D03*
G01X1066800Y-3263900D03*
G01X1181100Y-3378200D03*
G54D18*
G01X4178300Y-4203700D03*
G01X4178300Y-4483100D03*
G01X1689100Y-4152900D03*
G01X1765300Y-4152900D03*
G01X1765300Y-4232300D03*
G54D20*
G01X355600Y-4191000D03*
G01X495300Y-4191000D03*
G01X495300Y-4305300D03*
G01X355600Y-4305300D03*
G04 Via End*

G04 Track Start*
G54D21*
G01X4584700Y-3213100D02*
G01X4889500Y-2908300D01*
G01X5108194D01*
G01X7112000Y-2971800D02*
G01X7251700Y-2832100D01*
G01Y-2692400D01*
G01X6667500Y-3276600D02*
G01X6680200Y-3276600D01*
G01X6985000Y-2971800D01*
G01X7112000D01*
G54D22*
G01X3060700Y-3111500D02*
G01X3060700Y-2578100D01*
G01X3314700Y-2324100D02*
G01X3556000Y-2324100D01*
G01X3683000Y-2197100D01*
G01X3060700Y-2578100D02*
G01X3314700Y-2324100D01*
G54D21*
G01X2705100Y-3721100D02*
G01X2705100Y-4025900D01*
G01X2667000Y-4064000D01*
G01X4114800Y-3517900D02*
G01X4381194Y-3784294D01*
G01X4699000D01*
G01X7073900Y-3530600D02*
G01X6616700Y-3530600D01*
G01X6527800Y-3441700D01*
G01X5905906D01*
G01X5905500Y-3442106D01*
G01X677852Y-3810000D02*
G01X804852Y-3683000D01*
G01X1606042D01*
G01X1930400Y-4007358D01*
G04 Track End*

M02*
