G04 Layer: BottomPasteMaskLayer*
G04 EasyEDA Pro v2.1.51.8c9149c1.e57db4, 2024-03-19 13:05:20*
G04 Gerber Generator version 0.3*
G04 Scale: 100 percent, Rotated: No, Reflected: No*
G04 Dimensions in millimeters*
G04 Leading zeros omitted, absolute positions, 3 integers and 5 decimals*
%FSLAX35Y35*%
%MOMM*%
%AMPolygonMacro1*4,1,16,2.28001,-1.84,2.775,-1.84,2.775,-0.935,2.28001,-0.935,2.28001,2.26499,1.52999,2.26499,1.52999,1.765,-1.52999,1.765,-1.52999,2.26499,-2.28001,2.26499,-2.28001,-0.935,-2.775,-0.935,-2.775,-1.84,-2.28001,-1.84,-2.28001,-2.26499,2.28001,-2.26499,2.28001,-1.84,0*%
%ADD10R,0.75001X1.0*%
%ADD11PolygonMacro1*%
%ADD12O,1.454X0.35301*%
%ADD13R,0.8X0.9*%
%ADD14R,3.29999X2.0*%
%ADD15R,0.9X0.8*%
%ADD16O,0.58801X2.045*%
%ADD17R,0.8X0.9*%
%ADD18R,1.25001X0.7*%
%ADD19R,2.0X3.29999*%
%ADD20O,0.35301X1.454*%
%ADD21R,1.7X0.6*%
%ADD22R,2.79999X1.0*%
%ADD23R,0.532X1.07201*%
%ADD24R,1.2X0.6*%
G75*


G04 PolygonModel Start*
G36*
G01X3256115Y-4038801D02*
G01X3256115Y-4001775D01*
G01X3246115Y-3991775D01*
G01X3215625D01*
G01X3205625Y-3981775D01*
G01Y-3943025D01*
G01X3215625Y-3933025D01*
G01X3246115D01*
G01X3256115Y-3923025D01*
G01Y-3885999D01*
G01X3246115Y-3875999D01*
G01X3117616D01*
G01X3107616Y-3885999D01*
G01Y-4038801D01*
G01X3117616Y-4048801D01*
G01X3246115D01*
G01X3256115Y-4038801D01*
G37*
G36*
G01X3426117Y-4038801D02*
G01X3426117Y-4001775D01*
G01X3436117Y-3991775D01*
G01X3466607D01*
G01X3476607Y-3981775D01*
G01Y-3943025D01*
G01X3466607Y-3933025D01*
G01X3436117D01*
G01X3426117Y-3923025D01*
G01Y-3885999D01*
G01X3436117Y-3875999D01*
G01X3564616D01*
G01X3574616Y-3885999D01*
G01Y-4038801D01*
G01X3564616Y-4048801D01*
G01X3436117D01*
G01X3426117Y-4038801D01*
G37*
G36*
G01X3424085Y-4203499D02*
G01X3424085Y-4240525D01*
G01X3434085Y-4250525D01*
G01X3464575D01*
G01X3474575Y-4260525D01*
G01Y-4299275D01*
G01X3464575Y-4309275D01*
G01X3434085D01*
G01X3424085Y-4319275D01*
G01Y-4356301D01*
G01X3434085Y-4366301D01*
G01X3562584D01*
G01X3572584Y-4356301D01*
G01Y-4203499D01*
G01X3562584Y-4193499D01*
G01X3434085D01*
G01X3424085Y-4203499D01*
G37*
G36*
G01X3254083Y-4203499D02*
G01X3254083Y-4240525D01*
G01X3244083Y-4250525D01*
G01X3213593D01*
G01X3203593Y-4260525D01*
G01Y-4299275D01*
G01X3213593Y-4309275D01*
G01X3244083D01*
G01X3254083Y-4319275D01*
G01Y-4356301D01*
G01X3244083Y-4366301D01*
G01X3115584D01*
G01X3105584Y-4356301D01*
G01Y-4203499D01*
G01X3115584Y-4193499D01*
G01X3244083D01*
G01X3254083Y-4203499D01*
G37*
G36*
G01X4134998Y-4082501D02*
G01X4214998Y-4082501D01*
G01X4219999Y-4087503D01*
G01Y-4110299D01*
G01X4182999D01*
G01Y-4143299D01*
G01X4219999D01*
G01Y-4167502D01*
G01X4214998Y-4172501D01*
G01X4134998D01*
G01X4129999Y-4167502D01*
G01Y-4087503D01*
G01X4134998Y-4082501D01*
G37*
G36*
G01X4289999Y-4087503D02*
G01X4289999Y-4110299D01*
G01X4327997D01*
G01Y-4143299D01*
G01X4289999D01*
G01Y-4167502D01*
G01X4294998Y-4172501D01*
G01X4373997D01*
G01X4378998Y-4167502D01*
G01Y-4087503D01*
G01X4373997Y-4082501D01*
G01X4294998D01*
G01X4289999Y-4087503D01*
G37*
G36*
G01X2811902Y-4489999D02*
G01X2731902Y-4489999D01*
G01X2726901Y-4484997D01*
G01Y-4462201D01*
G01X2763901D01*
G01Y-4429201D01*
G01X2726901D01*
G01Y-4404998D01*
G01X2731902Y-4399999D01*
G01X2811902D01*
G01X2816901Y-4404998D01*
G01Y-4484997D01*
G01X2811902Y-4489999D01*
G37*
G36*
G01X2656901Y-4484997D02*
G01X2656901Y-4462201D01*
G01X2618903D01*
G01Y-4429201D01*
G01X2656901D01*
G01Y-4404998D01*
G01X2651902Y-4399999D01*
G01X2572903D01*
G01X2567902Y-4404998D01*
G01Y-4484997D01*
G01X2572903Y-4489999D01*
G01X2651902D01*
G01X2656901Y-4484997D01*
G37*
G36*
G01X2242698Y-4400001D02*
G01X2322698Y-4400001D01*
G01X2327699Y-4405003D01*
G01Y-4427799D01*
G01X2290699D01*
G01Y-4460799D01*
G01X2327699D01*
G01Y-4485002D01*
G01X2322698Y-4490001D01*
G01X2242698D01*
G01X2237699Y-4485002D01*
G01Y-4405003D01*
G01X2242698Y-4400001D01*
G37*
G36*
G01X2397699Y-4405003D02*
G01X2397699Y-4427799D01*
G01X2435697D01*
G01Y-4460799D01*
G01X2397699D01*
G01Y-4485002D01*
G01X2402698Y-4490001D01*
G01X2481697D01*
G01X2486698Y-4485002D01*
G01Y-4405003D01*
G01X2481697Y-4400001D01*
G01X2402698D01*
G01X2397699Y-4405003D01*
G37*
G36*
G01X2431795Y-2911659D02*
G01X2431795Y-2831659D01*
G01X2436796Y-2826658D01*
G01X2459592D01*
G01Y-2863658D01*
G01X2492592D01*
G01Y-2826658D01*
G01X2516796D01*
G01X2521795Y-2831659D01*
G01Y-2911659D01*
G01X2516796Y-2916658D01*
G01X2436796D01*
G01X2431795Y-2911659D01*
G37*
G36*
G01X2436796Y-2756658D02*
G01X2459592Y-2756658D01*
G01Y-2718660D01*
G01X2492592D01*
G01Y-2756658D01*
G01X2516796D01*
G01X2521795Y-2751659D01*
G01Y-2672660D01*
G01X2516796Y-2667659D01*
G01X2436796D01*
G01X2431795Y-2672660D01*
G01Y-2751659D01*
G01X2436796Y-2756658D01*
G37*
G36*
G01X8513938Y-2673970D02*
G01X8513938Y-2593970D01*
G01X8518939Y-2588969D01*
G01X8541736D01*
G01Y-2625969D01*
G01X8574735D01*
G01Y-2588969D01*
G01X8598939D01*
G01X8603938Y-2593970D01*
G01Y-2673970D01*
G01X8598939Y-2678968D01*
G01X8518939D01*
G01X8513938Y-2673970D01*
G37*
G36*
G01X8518939Y-2518969D02*
G01X8541736Y-2518969D01*
G01Y-2480970D01*
G01X8574735D01*
G01Y-2518969D01*
G01X8598939D01*
G01X8603938Y-2513970D01*
G01Y-2434971D01*
G01X8598939Y-2429970D01*
G01X8518939D01*
G01X8513938Y-2434971D01*
G01Y-2513970D01*
G01X8518939Y-2518969D01*
G37*
G36*
G01X2481702Y-4655099D02*
G01X2401702Y-4655099D01*
G01X2396701Y-4650097D01*
G01Y-4627301D01*
G01X2433701D01*
G01Y-4594301D01*
G01X2396701D01*
G01Y-4570098D01*
G01X2401702Y-4565099D01*
G01X2481702D01*
G01X2486701Y-4570098D01*
G01Y-4650097D01*
G01X2481702Y-4655099D01*
G37*
G36*
G01X2326701Y-4650097D02*
G01X2326701Y-4627301D01*
G01X2288703D01*
G01Y-4594301D01*
G01X2326701D01*
G01Y-4570098D01*
G01X2321702Y-4565099D01*
G01X2242703D01*
G01X2237702Y-4570098D01*
G01Y-4650097D01*
G01X2242703Y-4655099D01*
G01X2321702D01*
G01X2326701Y-4650097D01*
G37*
G36*
G01X2811902Y-4655099D02*
G01X2731902Y-4655099D01*
G01X2726901Y-4650097D01*
G01Y-4627301D01*
G01X2763901D01*
G01Y-4594301D01*
G01X2726901D01*
G01Y-4570098D01*
G01X2731902Y-4565099D01*
G01X2811902D01*
G01X2816901Y-4570098D01*
G01Y-4650097D01*
G01X2811902Y-4655099D01*
G37*
G36*
G01X2656901Y-4650097D02*
G01X2656901Y-4627301D01*
G01X2618903D01*
G01Y-4594301D01*
G01X2656901D01*
G01Y-4570098D01*
G01X2651902Y-4565099D01*
G01X2572903D01*
G01X2567902Y-4570098D01*
G01Y-4650097D01*
G01X2572903Y-4655099D01*
G01X2651902D01*
G01X2656901Y-4650097D01*
G37*
G36*
G01X2603299Y-3965283D02*
G01X2640325Y-3965283D01*
G01X2650325Y-3955283D01*
G01Y-3924793D01*
G01X2660325Y-3914793D01*
G01X2699075D01*
G01X2709075Y-3924793D01*
G01Y-3955283D01*
G01X2719075Y-3965283D01*
G01X2756101D01*
G01X2766101Y-3955283D01*
G01Y-3826784D01*
G01X2756101Y-3816784D01*
G01X2603299D01*
G01X2593299Y-3826784D01*
G01Y-3955283D01*
G01X2603299Y-3965283D01*
G37*
G36*
G01X2603299Y-4135285D02*
G01X2640325Y-4135285D01*
G01X2650325Y-4145285D01*
G01Y-4175775D01*
G01X2660325Y-4185775D01*
G01X2699075D01*
G01X2709075Y-4175775D01*
G01Y-4145285D01*
G01X2719075Y-4135285D01*
G01X2756101D01*
G01X2766101Y-4145285D01*
G01Y-4273784D01*
G01X2756101Y-4283784D01*
G01X2603299D01*
G01X2593299Y-4273784D01*
G01Y-4145285D01*
G01X2603299Y-4135285D01*
G37*
G36*
G01X2349299Y-3965283D02*
G01X2386325Y-3965283D01*
G01X2396325Y-3955283D01*
G01Y-3924793D01*
G01X2406325Y-3914793D01*
G01X2445075D01*
G01X2455075Y-3924793D01*
G01Y-3955283D01*
G01X2465075Y-3965283D01*
G01X2502101D01*
G01X2512101Y-3955283D01*
G01Y-3826784D01*
G01X2502101Y-3816784D01*
G01X2349299D01*
G01X2339299Y-3826784D01*
G01Y-3955283D01*
G01X2349299Y-3965283D01*
G37*
G36*
G01X2349299Y-4135285D02*
G01X2386325Y-4135285D01*
G01X2396325Y-4145285D01*
G01Y-4175775D01*
G01X2406325Y-4185775D01*
G01X2445075D01*
G01X2455075Y-4175775D01*
G01Y-4145285D01*
G01X2465075Y-4135285D01*
G01X2502101D01*
G01X2512101Y-4145285D01*
G01Y-4273784D01*
G01X2502101Y-4283784D01*
G01X2349299D01*
G01X2339299Y-4273784D01*
G01Y-4145285D01*
G01X2349299Y-4135285D01*
G37*
G04 PolygonModel End*

G04 Pad Start*
G54D10*
G01X538926Y-1906357D03*
G01X665926Y-1906357D03*
G01X792926Y-1906357D03*
G01X919926Y-1906357D03*
G54D11*
G01X729426Y-1531356D03*
G54D12*
G01X1891690Y-2547550D03*
G01X1891690Y-2482526D03*
G01X1891690Y-2417528D03*
G01X1891690Y-2352529D03*
G01X2477110Y-2547550D03*
G01X2477110Y-2482526D03*
G01X2477110Y-2417528D03*
G01X2477110Y-2352529D03*
G54D13*
G01X2254098Y-2197100D03*
G01X2114093Y-2197100D03*
G54D14*
G01X1440959Y-2156137D03*
G01X1440959Y-2769395D03*
G01X977900Y-2157171D03*
G01X977900Y-2770429D03*
G54D15*
G01X3739998Y-4051300D03*
G01X3739998Y-4191305D03*
G54D16*
G01X4064000Y-3367659D03*
G01X4191000Y-3367659D03*
G01X4318000Y-3367659D03*
G01X4445000Y-3367659D03*
G01X4064000Y-3922141D03*
G01X4191000Y-3922141D03*
G01X4318000Y-3922141D03*
G01X4445000Y-3922141D03*
G54D17*
G01X4184498Y-3124200D03*
G01X4324502Y-3124200D03*
G54D18*
G01X4605905Y-4060724D03*
G01X4605905Y-3870732D03*
G01X4805905Y-3965728D03*
G54D15*
G01X2641893Y-2722155D03*
G01X2641893Y-2862160D03*
G54D10*
G01X1133003Y-1908648D03*
G01X1260003Y-1908648D03*
G01X1387003Y-1908648D03*
G01X1514003Y-1908648D03*
G54D11*
G01X1323503Y-1533647D03*
G54D19*
G01X8953790Y-835690D03*
G01X8340532Y-835690D03*
G01X8953790Y-1292248D03*
G01X8340532Y-1292248D03*
G54D20*
G01X8576589Y-1663090D03*
G01X8641613Y-1663090D03*
G01X8706612Y-1663090D03*
G01X8771611Y-1663090D03*
G01X8576589Y-2248510D03*
G01X8641613Y-2248510D03*
G01X8706612Y-2248510D03*
G01X8771611Y-2248510D03*
G54D17*
G01X8938675Y-2251095D03*
G01X9078680Y-2251095D03*
G54D15*
G01X8734490Y-2477343D03*
G01X8734490Y-2617348D03*
G54D21*
G01X5091093Y-4175865D03*
G01X5091093Y-4300858D03*
G54D22*
G01X5381085Y-3990876D03*
G01X5381085Y-4485872D03*
G54D23*
G01X1670304Y-4279290D03*
G01X1765300Y-4279290D03*
G01X1860296Y-4279290D03*
G01X1860296Y-4509110D03*
G01X1765300Y-4509110D03*
G01X1670304Y-4509110D03*
G54D13*
G01X1835302Y-3873500D03*
G01X1695298Y-3873500D03*
G01X1678389Y-4710664D03*
G01X1538384Y-4710664D03*
G54D24*
G01X2933002Y-3765296D03*
G01X2933002Y-3670300D03*
G01X2933002Y-3575304D03*
G01X3162999Y-3575304D03*
G01X3162999Y-3765296D03*
G04 Pad End*

M02*
