G04 Layer: BottomLayer*
G04 EasyEDA Pro v2.1.51.8c9149c1.e57db4, 2024-03-19 13:05:20*
G04 Gerber Generator version 0.3*
G04 Scale: 100 percent, Rotated: No, Reflected: No*
G04 Dimensions in millimeters*
G04 Leading zeros omitted, absolute positions, 3 integers and 5 decimals*
%FSLAX35Y35*%
%MOMM*%
%AMPolygonMacro1*4,1,16,2.28001,-1.84,2.775,-1.84,2.775,-0.935,2.28001,-0.935,2.28001,2.26499,1.52999,2.26499,1.52999,1.765,-1.52999,1.765,-1.52999,2.26499,-2.28001,2.26499,-2.28001,-0.935,-2.775,-0.935,-2.775,-1.84,-2.28001,-1.84,-2.28001,-2.26499,2.28001,-2.26499,2.28001,-1.84,0*%
%ADD8191C,0.2032*%
%ADD10C,1.6*%
%ADD11R,0.75001X1.0*%
%ADD12PolygonMacro1*%
%ADD13C,2.49999*%
%ADD14C,3.2071*%
%ADD15C,3.19999*%
%ADD16O,1.454X0.35301*%
%ADD17R,0.8X0.9*%
%ADD18R,3.29999X2.0*%
%ADD19R,1.48501X1.72799*%
%ADD20R,0.9X0.8*%
%ADD21R,1.48501X1.72799*%
%ADD22O,0.58801X2.045*%
%ADD23R,0.8X0.9*%
%ADD24R,0.80648X0.86401*%
%ADD25R,1.25001X0.7*%
%ADD26R,0.80648X0.86401*%
%ADD27C,1.9*%
%ADD28R,0.86401X0.80648*%
%ADD29R,2.0X3.29999*%
%ADD30O,0.35301X1.454*%
%ADD31R,1.7X0.6*%
%ADD32R,2.79999X1.0*%
%ADD33R,0.532X1.07201*%
%ADD34R,1.72799X1.48501*%
%ADD35R,1.2X0.6*%
%ADD36C,3.2004*%
%ADD37C,0.61*%
%ADD38C,0.7112*%
%ADD39C,0.6096*%
%ADD40C,0.889*%
%ADD41C,0.762*%
%ADD42C,0.254*%
%ADD43C,0.381*%
G75*


G04 Copper Start*
G36*
G01X9562846Y-4584700D02*
G02X9334500Y-4813046I-228346J0D01*
G01X495300D01*
G02X266954Y-4584700I0J228346D01*
G01Y-3107379D01*
G01X1281457D01*
G01X892668Y-3496168D01*
G03X883666Y-3517900I21732J-21732D01*
G01Y-4114800D01*
G03X914400Y-4145534I30734J0D01*
G01X1037488D01*
G01X1048597D01*
G01X1156716D01*
G01X1181545Y-4170362D01*
G01Y-4241025D01*
G03X1212279Y-4271759I30734J0D01*
G01X1366266D01*
G01Y-4775200D01*
G03X1397000Y-4805934I30734J0D01*
G01X1593725D01*
G03X1623559Y-4782583I0J30734D01*
G03X1638389Y-4786398I14830J26919D01*
G01X1718389D01*
G03X1749123Y-4755664I0J30734D01*
G01Y-4665664D01*
G03X1718389Y-4634930I-30734J0D01*
G01X1713738D01*
G01Y-4588424D01*
G03X1717802Y-4585246I-16834J25714D01*
G03X1738700Y-4593444I20898J22536D01*
G01X1791900D01*
G03X1812798Y-4585246I0J30734D01*
G03X1816862Y-4588424I20898J22536D01*
G01Y-4641596D01*
G03X1829584Y-4672308I43434J0D01*
G01X1899688Y-4742412D01*
G03X1930400Y-4755134I30712J30712D01*
G01X2387600D01*
G03X2418312Y-4742412I0J43434D01*
G01X2468249Y-4692476D01*
G03X2474826Y-4684034I-30712J30712D01*
G01X2477860D01*
G03X2508593Y-4653534I0J30734D01*
G01X2546007D01*
G03X2576740Y-4684034I30733J234D01*
G01X2657387D01*
G03X2688121Y-4653300I0J30734D01*
G01Y-4566900D01*
G03X2657387Y-4536166I-30734J0D01*
G01X2576740D01*
G03X2546007Y-4566666I0J-30734D01*
G01X2508593D01*
G03X2477860Y-4536166I-30733J-234D01*
G01X2397213D01*
G03X2366479Y-4566900I0J-30734D01*
G01Y-4653300D01*
G03X2370100Y-4667775I30734J0D01*
G01X2369609Y-4668266D01*
G01X2354031D01*
G03X2357921Y-4653300I-26844J14966D01*
G01Y-4566900D01*
G03X2327187Y-4536166I-30734J0D01*
G01X2316734D01*
G01Y-4518934D01*
G01X2327187D01*
G03X2357921Y-4488200I0J30734D01*
G01Y-4414677D01*
G03X2366479Y-4416626I17842J58577D01*
G01Y-4488200D01*
G03X2397213Y-4518934I30734J0D01*
G01X2477860D01*
G03X2508594Y-4488200I0J30734D01*
G01Y-4416948D01*
G03X2515464Y-4417334I6869J60848D01*
G03X2546006Y-4409173I0J61234D01*
G01Y-4488200D01*
G03X2576740Y-4518934I30734J0D01*
G01X2657387D01*
G03X2688121Y-4488200I0J30734D01*
G01Y-4401800D01*
G03X2672504Y-4375041I-30734J0D01*
G01X2712296D01*
G03X2696679Y-4401800I15117J-26759D01*
G01Y-4488200D01*
G03X2727413Y-4518934I30734J0D01*
G01X2808060D01*
G03X2838793Y-4488434I0J30734D01*
G01X2870200D01*
G03X2900912Y-4475712I0J43434D01*
G01X2977112Y-4399512D01*
G03X2989834Y-4368800I-30712J30712D01*
G01Y-4342684D01*
G03X3012694Y-4292600I-43434J50084D01*
G03X2973959Y-4232306I-66294J0D01*
G01X3088881Y-4117383D01*
G03X3097883Y-4095651I-21732J21732D01*
G01Y-4094734D01*
G01X3228531D01*
G03X3228086Y-4102100I60769J-7366D01*
G03X3289300Y-4163314I61214J0D01*
G03X3323586Y-4152811I0J61214D01*
G01X3342375D01*
G03X3341878Y-4158317I30237J-5506D01*
G01Y-4711783D01*
G03X3372612Y-4742517I30734J0D01*
G01X3878326D01*
G01X3880584Y-4742434D01*
G01X9254000D01*
G01X9256285Y-4742349D01*
G03X9328150Y-4756404I71865J176699D01*
G03X9518904Y-4565650I0J190754D01*
G03X9328150Y-4374896I-190754J0D01*
G03X9284734Y-4379902I0J-190754D01*
G01Y-3581513D01*
G03X9263634Y-3552328I-30734J0D01*
G01Y-2679700D01*
G03X9232900Y-2648966I-30734J0D01*
G01X8810224D01*
G01Y-2577348D01*
G03X8779490Y-2546614I-30734J0D01*
G01X8689490D01*
G03X8658756Y-2577348I0J-30734D01*
G01Y-2580020D01*
G01X8631379D01*
G03X8602137Y-2558746I-29242J-9460D01*
G01X8515736D01*
G03X8486494Y-2580020I0J-30734D01*
G01X7669896D01*
G03X7634693Y-2594602I0J-49784D01*
G01X7559397Y-2669897D01*
G03X7544816Y-2705100I35203J-35203D01*
G01Y-2735970D01*
G03X7493000Y-2707366I-51816J-32630D01*
G03X7432587Y-2758608I0J-61234D01*
G01X7421579Y-2769616D01*
G01X7247024D01*
G01X7224834Y-2747426D01*
G03X7251700Y-2753634I26866J55026D01*
G03X7312934Y-2692400I0J61234D01*
G03X7251700Y-2631166I-61234J0D01*
G03X7190466Y-2692400I0J-61234D01*
G03X7191149Y-2701521I61234J0D01*
G03X7162800Y-2694563I-28349J-54277D01*
G03X7101566Y-2755797I0J-61234D01*
G03X7152808Y-2816210I61234J0D01*
G01X7191200Y-2854603D01*
G03X7226403Y-2869184I35203J35203D01*
G01X7442200D01*
G03X7477403Y-2854603I0J49784D01*
G01X7502992Y-2829013D01*
G03X7544816Y-2801230I-9992J60413D01*
G01Y-2989279D01*
G01X7063884Y-3470211D01*
G03X7012686Y-3530600I10016J-60389D01*
G03X7016108Y-3550779I61214J0D01*
G01X6522092D01*
G03X6525514Y-3530600I-57792J20179D01*
G03X6464300Y-3469386I-61214J0D01*
G03X6403086Y-3530600I0J-61214D01*
G03X6406508Y-3550779I61214J0D01*
G01X6395092D01*
G03X6398514Y-3530600I-57792J20179D01*
G03X6337300Y-3469386I-61214J0D01*
G03X6276086Y-3530600I0J-61214D01*
G03X6279508Y-3550779I61214J0D01*
G01X6268092D01*
G03X6271514Y-3530600I-57792J20179D01*
G03X6210300Y-3469386I-61214J0D01*
G03X6195060Y-3471313I0J-61214D01*
G01Y-2649685D01*
G01X6420866Y-2875491D01*
G01Y-3322365D01*
G03X6403086Y-3365500I43434J-43135D01*
G03X6464300Y-3426714I61214J0D01*
G03X6525514Y-3365500I0J61214D01*
G03X6507734Y-3322365I-61214J0D01*
G01Y-2857500D01*
G03X6495012Y-2826788I-43434J0D01*
G01X5972259Y-2304034D01*
G01X7112000D01*
G03X7142734Y-2273300I0J30734D01*
G01Y-1954784D01*
G01X7429814D01*
G01X7529722Y-2054692D01*
G03X7590135Y-2105934I60413J9992D01*
G03X7651369Y-2044700I0J61234D01*
G03X7600127Y-1984287I-61234J0D01*
G01X7485638Y-1869797D01*
G03X7450435Y-1855216I-35203J-35203D01*
G01X7142734D01*
G01Y-1701800D01*
G03X7112000Y-1671066I-30734J0D01*
G01X6949912D01*
G01Y-1313628D01*
G03X6947076Y-1300734I-30734J0D01*
G01X7543770D01*
G01X7814168Y-1571132D01*
G03X7835900Y-1580134I21732J21732D01*
G01X8497368D01*
G03X8528102Y-1549400I0J30734D01*
G01Y-1342032D01*
G01X8528940D01*
G01X8591829Y-1404921D01*
G01Y-1562119D01*
G03X8576589Y-1559657I-15240J-45922D01*
G03X8528205Y-1608041I0J-48384D01*
G01Y-1718140D01*
G03X8576589Y-1766524I48384J0D01*
G03X8609101Y-1753973I0J48384D01*
G03X8641613Y-1766524I32512J35833D01*
G03X8674113Y-1753985I0J48384D01*
G03X8706612Y-1766524I32499J35845D01*
G03X8754996Y-1718140I0J48384D01*
G01Y-1674812D01*
G03X8756396Y-1663090I-48384J11721D01*
G01Y-1410509D01*
G01X8783066Y-1383839D01*
G01Y-1533970D01*
G03X8813800Y-1564704I30734J0D01*
G01X9093200D01*
G03X9123934Y-1533970I0J30734D01*
G01Y-1463415D01*
G01X9330160Y-1257189D01*
G01X9499600D01*
G03X9530334Y-1226455I0J30734D01*
G01Y-596477D01*
G03X9499600Y-565743I-30734J0D01*
G01X8814223D01*
G03X8792491Y-574744I0J-30734D01*
G01X8792068Y-575168D01*
G03X8783066Y-596900I21732J-21732D01*
G01Y-1247197D01*
G03X8769050Y-1257045I21186J-45051D01*
G01X8676907Y-1349188D01*
G01X8676816Y-1349097D01*
G01X8584764Y-1257045D01*
G03X8549561Y-1242464I-35203J-35203D01*
G01X8528102D01*
G01Y-590715D01*
G03X8497368Y-559981I-30734J0D01*
G01X7810500D01*
G03X7788768Y-568983I0J-30734D01*
G01X7715385Y-642366D01*
G01X6515100D01*
G03X6484366Y-673100I0J-30734D01*
G01Y-721602D01*
G03X6477000Y-720707I-7366J-29838D01*
G01X5954159D01*
G03X5923425Y-751441I0J-30734D01*
G01Y-2259137D01*
G03X5905500Y-2255266I-17925J-39563D01*
G01X4818634D01*
G01Y-762000D01*
G03X4787900Y-731266I-30734J0D01*
G01X4318000D01*
G03X4297934Y-738721I0J-30734D01*
G01Y-698500D01*
G03X4267200Y-667766I-30734J0D01*
G01X3232055D01*
G01X2974357Y-410068D01*
G03X2952625Y-401066I-21732J-21732D01*
G01X2603530D01*
G01X2485532Y-283068D01*
G03X2463800Y-274066I-21732J-21732D01*
G01X1905000D01*
G03X1874266Y-304800I0J-30734D01*
G01Y-1333500D01*
G03X1883268Y-1355232I30734J0D01*
G01X2048368Y-1520332D01*
G03X2070100Y-1529334I21732J21732D01*
G01X3048000D01*
G03X3069732Y-1520332I0J30734D01*
G01X3283802Y-1306262D01*
G01X3588821D01*
G01X3588766Y-1308100D01*
G01Y-2246582D01*
G03X3590018Y-2255266I30734J0D01*
G01X2723091D01*
G01X2088112Y-1620288D01*
G03X2057400Y-1607566I-30712J-30712D01*
G01X2037064D01*
G03X1993900Y-1589766I-43164J-43434D01*
G03X1932666Y-1651000I0J-61234D01*
G03X1993900Y-1712234I61234J0D01*
G03X2037064Y-1694434I0J61234D01*
G01X2039409D01*
G01X2674388Y-2329412D01*
G03X2705100Y-2342134I30712J30712D01*
G01X4292570D01*
G01X4321668Y-2371232D01*
G03X4343400Y-2380234I21732J21732D01*
G01X4787900D01*
G03X4818634Y-2349500I0J30734D01*
G01Y-2342134D01*
G01X5887509D01*
G01X6143541Y-2598166D01*
G01X5104238D01*
G03X5061102Y-2580386I-43135J-43434D01*
G03X5017967Y-2598166I0J-61214D01*
G01X4974037D01*
G03X4921098Y-2567686I-52939J-30734D01*
G03X4868158Y-2598166I0J-61214D01*
G01X4521200D01*
G03X4490466Y-2628900I0J-30734D01*
G01Y-2767926D01*
G01X2692693D01*
G03X2661981Y-2780647I0J-43434D01*
G01X2651202Y-2791426D01*
G01X2596893D01*
G03X2566159Y-2822160I0J-30734D01*
G01Y-2824060D01*
G01X2550570D01*
G03X2519994Y-2796436I-30576J-3110D01*
G01X2433593D01*
G03X2402859Y-2827170I0J-30734D01*
G01Y-2907817D01*
G03X2433593Y-2938551I30734J0D01*
G01X2519994D01*
G03X2550570Y-2910928I0J30734D01*
G01X2567437D01*
G03X2596893Y-2932894I29457J8768D01*
G01X2686893D01*
G03X2717627Y-2902160I0J30734D01*
G01Y-2854794D01*
G01X4490466D01*
G01Y-2948666D01*
G01X4158000D01*
G03X4127287Y-2961388I0J-43434D01*
G01X4033288Y-3055388D01*
G03X4020566Y-3086100I30712J-30712D01*
G01Y-3253220D01*
G03X4003866Y-3294809I43434J-41589D01*
G01Y-3440509D01*
G03X4056220Y-3500138I60135J0D01*
G03X4053586Y-3517900I58580J-17762D01*
G03X4063165Y-3550779I61214J0D01*
G01X3867527D01*
G03X3836793Y-3581513I0J-30734D01*
G01Y-3584868D01*
G01X3769044Y-3517119D01*
G03X3809091Y-3523667I40047J119186D01*
G03X3934825Y-3397933I0J125734D01*
G03X3809091Y-3272199I-125734J0D01*
G03X3683357Y-3397933I0J-125734D01*
G03X3735527Y-3499900I125734J0D01*
G01X3733800Y-3499866D01*
G01X3635398D01*
G03X3642634Y-3470991I-53998J28875D01*
G03X3581400Y-3409756I-61234J0D01*
G03X3520166Y-3470991I0J-61234D01*
G03X3527402Y-3499866I61234J0D01*
G01X3358091D01*
G01X2951955Y-3093730D01*
G03X2971410Y-3096904I19455J58040D01*
G03X3004498Y-3087191I0J61214D01*
G03X2999466Y-3111500I56202J-24309D01*
G03X3060700Y-3172734I61234J0D01*
G03X3121934Y-3111500I0J61234D01*
G03X3060700Y-3050266I-61234J0D01*
G03X3027596Y-3059985I0J-61234D01*
G03X3032624Y-3035690I-56186J24296D01*
G03X2971410Y-2974476I-61214J0D01*
G03X2910196Y-3035690I0J-61214D01*
G03X2915261Y-3060071I61214J0D01*
G03X2895600Y-3055366I-19661J-38729D01*
G01X2722864D01*
G03X2679700Y-3037566I-43164J-43434D01*
G03X2618466Y-3098800I0J-61234D01*
G03X2679700Y-3160034I61234J0D01*
G03X2722864Y-3142234I0J61234D01*
G01X2877609D01*
G01X3309388Y-3574012D01*
G03X3340100Y-3586734I30712J30712D01*
G01X3715809D01*
G01X3768552Y-3639477D01*
G01X3314700D01*
G03X3301902Y-3642268I0J-30734D01*
G03X3289300Y-3639566I-12602J-28032D01*
G01X3097883D01*
G01Y-3635609D01*
G03X3102999Y-3636038I5116J30305D01*
G01X3222998D01*
G03X3253732Y-3605304I0J30734D01*
G01Y-3545304D01*
G03X3222998Y-3514570I-30734J0D01*
G01X3102999D01*
G03X3097748Y-3515022I0J-30734D01*
G03X3067149Y-3487166I-30599J-2878D01*
G01X2908300D01*
G03X2877747Y-3514570I0J-30734D01*
G01X2873002D01*
G03X2842268Y-3545304I0J-30734D01*
G01Y-3605304D01*
G03X2873002Y-3636038I30734J0D01*
G01X2877566D01*
G01Y-3704562D01*
G01X2873002D01*
G03X2842268Y-3735296I0J-30734D01*
G01Y-3795296D01*
G03X2873002Y-3826030I30734J0D01*
G01X2877566D01*
G01Y-3956119D01*
G01X2775019Y-4058666D01*
G01X2727981D01*
G03X2667000Y-4002786I-60981J-5334D01*
G03X2606019Y-4058666I0J-61214D01*
G01X2044700D01*
G03X2036359Y-4059820I0J-30734D01*
G01Y-3764076D01*
G03X2005625Y-3733342I-30734J0D01*
G01X1996570D01*
G03X1997710Y-3721100I-65154J12242D01*
G03X1931416Y-3654806I-66294J0D01*
G03X1865122Y-3721100I0J-66294D01*
G03X1866262Y-3733342I66294J0D01*
G01X1772158D01*
G03X1741424Y-3764076I0J-30734D01*
G01Y-4014724D01*
G01X1638300D01*
G03X1607566Y-4045458I0J-30734D01*
G01Y-4140200D01*
G03X1616568Y-4161932I30734J0D01*
G01X1633813Y-4179177D01*
G03X1662823Y-4208187I55287J26277D01*
G01X1683766Y-4229130D01*
G01Y-4343400D01*
G03X1714500Y-4374134I30734J0D01*
G01X1803400D01*
G03X1814291Y-4372140I0J30734D01*
G03X1825182Y-4374134I10891J28740D01*
G01X1898091D01*
G03X1895272Y-4386993I27914J-12859D01*
G01Y-4425939D01*
G03X1886896Y-4424775I-8376J-29571D01*
G01X1833696D01*
G03X1812798Y-4432974I0J-30734D01*
G03X1791900Y-4424775I-20898J-22536D01*
G01X1738700D01*
G03X1717802Y-4432974I0J-30734D01*
G03X1696904Y-4424775I-20898J-22536D01*
G01X1643704D01*
G03X1624459Y-4431547I0J-30734D01*
G01Y-4254500D01*
G03X1593725Y-4223766I-30734J0D01*
G01X1403762D01*
G01Y-4052728D01*
G03X1394760Y-4030996I-30734J0D01*
G01X1317132Y-3953368D01*
G03X1295400Y-3944366I-21732J-21732D01*
G01X1079331D01*
G01Y-3942534D01*
G01X1409730Y-3612134D01*
G01X1600200D01*
G03X1630934Y-3581400I0J30734D01*
G01Y-3124200D01*
G03X1625922Y-3107379I-30734J0D01*
G01X1649730D01*
G03X1680464Y-3076645I0J30734D01*
G01Y-2616143D01*
G03X1649730Y-2585409I-30734J0D01*
G01X1489216D01*
G01X1548665Y-2525960D01*
G01X1793341D01*
G03X1788257Y-2547550I43300J-21590D01*
G03X1836641Y-2595935I48384J0D01*
G01X1946740D01*
G03X1995124Y-2547550I0J48384D01*
G03X1982573Y-2515038I-48384J0D01*
G03X1995124Y-2482526I-35833J32512D01*
G03X1982585Y-2450027I-48384J0D01*
G03X1995124Y-2417528I-35845J32499D01*
G03X1946740Y-2369143I-48384J0D01*
G01X1836641D01*
G03X1815321Y-2374094I0J-48384D01*
G01X1546519D01*
G01X1492119Y-2319694D01*
G01X1659835D01*
G03X1690411Y-2292074I0J30734D01*
G03X1732788Y-2309114I42377J44174D01*
G03X1794002Y-2247900I0J61214D01*
G03X1732788Y-2186686I-61214J0D01*
G03X1690569Y-2203575I0J-61214D01*
G01Y-1843956D01*
G03X1689982Y-1837980I-30734J0D01*
G03X1694412Y-1834112I-26282J34580D01*
G01X1714711Y-1813814D01*
G03X1775714Y-1752600I-211J61214D01*
G03X1714500Y-1691386I-61214J0D01*
G03X1684684Y-1699138I0J-61214D01*
G01Y-660400D01*
G03X1653950Y-629666I-30734J0D01*
G01X1301018D01*
G03X1311463Y-593948I-55849J35718D01*
G03X1274390Y-534442I-66294J0D01*
G03X1309565Y-475906I-31119J58536D01*
G03X1274370Y-417359I-66294J0D01*
G03X1309565Y-358812I-31100J58547D01*
G03X1243271Y-292518I-66294J0D01*
G03X1176977Y-358812I0J-66294D01*
G03X1212171Y-417359I66294J0D01*
G03X1176977Y-475906I31100J-58547D01*
G03X1214049Y-535412I66294J0D01*
G03X1178875Y-593948I31119J-58536D01*
G03X1189320Y-629666I66294J0D01*
G01X422692D01*
G03X391958Y-660400I0J-30734D01*
G01Y-1771055D01*
G03X422692Y-1801789I30734J0D01*
G01X495522D01*
G01X495492Y-1803400D01*
G01Y-1813222D01*
G01X393700D01*
G03X362966Y-1843956I0J-30734D01*
G01Y-2288960D01*
G03X393700Y-2319694I30734J0D01*
G01X1391666D01*
G01Y-2324100D01*
G03X1404388Y-2354813I43434J0D01*
G01X1497816Y-2448240D01*
G03X1500821Y-2450977I30712J30713D01*
G01X1499961Y-2451814D01*
G01X1404388Y-2547388D01*
G03X1391666Y-2578100I30712J-30712D01*
G01Y-2585409D01*
G01X266954D01*
G01Y-266700D01*
G02X495300Y-38354I228346J-0D01*
G01X9334500D01*
G02X9562846Y-266700I0J-228346D01*
G01Y-4584700D01*
G37*
%LPC*%
G36*
G01X6719457Y-3396413D02*
G03X6845191Y-3522147I125734J0D01*
G03X6970925Y-3396413I0J125734D01*
G03X6894975Y-3280955I-125734J0D01*
G01Y-2908191D01*
G03X6880394Y-2872989I-49784J0D01*
G01X6626503Y-2619097D01*
G03X6591300Y-2604516I-35203J-35203D01*
G01X6541531D01*
G03X6505878Y-2593066I-35653J-49784D01*
G03X6444644Y-2654300I0J-61234D01*
G03X6505878Y-2715534I61234J0D01*
G03X6541531Y-2704084I0J61234D01*
G01X6570679D01*
G01X6795407Y-2928812D01*
G01Y-3280955D01*
G03X6719457Y-3396413I49784J-115458D01*
G37*
G36*
G01X501650Y-4769104D02*
G03X690828Y-4602817I0J190754D01*
G03X749300Y-4645914I58472J18117D01*
G03X810514Y-4584700I0J61214D01*
G03X792734Y-4541565I-61214J0D01*
G01Y-4259791D01*
G01X813011Y-4239514D01*
G03X874014Y-4178300I-211J61214D01*
G03X812800Y-4117086I-61214J0D01*
G03X751586Y-4178089I0J-61214D01*
G01X718588Y-4211088D01*
G03X705866Y-4241800I30712J-30712D01*
G01Y-4541565D01*
G03X691834Y-4563610I43434J-43135D01*
G03X501650Y-4387596I-190184J-14740D01*
G03X310896Y-4578350I0J-190754D01*
G03X501650Y-4769104I190754J0D01*
G37*
G36*
G01X310896Y-273050D02*
G03X501650Y-463804I190754J0D01*
G03X692404Y-273050I0J190754D01*
G03X501650Y-82296I-190754J0D01*
G03X310896Y-273050I0J-190754D01*
G37*
G36*
G01X9137396Y-273050D02*
G03X9328150Y-463804I190754J0D01*
G03X9518904Y-273050I0J190754D01*
G03X9328150Y-82296I-190754J0D01*
G03X9137396Y-273050I0J-190754D01*
G37*
G36*
G01X2275586Y-2417528D02*
G03X2336800Y-2478742I61214J0D01*
G03X2379935Y-2460962I0J61214D01*
G01X2400741D01*
G03X2422060Y-2465912I21320J43434D01*
G01X2532159D01*
G03X2580543Y-2417528I0J48384D01*
G03X2568004Y-2385029I-48384J0D01*
G03X2580543Y-2352529I-35845J32499D01*
G03X2532159Y-2304145I-48384J0D01*
G01X2519934D01*
G01Y-2273300D01*
G03X2507212Y-2242588I-43434J0D01*
G01X2431012Y-2166388D01*
G03X2400300Y-2153666I-30712J-30712D01*
G01X2324832D01*
G01Y-2152100D01*
G03X2294098Y-2121366I-30734J0D01*
G01X2214098D01*
G03X2183364Y-2152100I0J-30734D01*
G01Y-2242100D01*
G03X2214098Y-2272834I30734J0D01*
G01X2294098D01*
G03X2324832Y-2242100I0J30734D01*
G01Y-2240534D01*
G01X2382309D01*
G01X2433066Y-2291291D01*
G01Y-2304145D01*
G01X2422060D01*
G03X2373676Y-2352529I0J-48384D01*
G03X2377798Y-2372071I48384J0D01*
G03X2336800Y-2356314I-40998J-45457D01*
G03X2275586Y-2417528I0J-61214D01*
G37*
G36*
G01X8938675Y-2448814D02*
G03X8999889Y-2387600I0J61214D01*
G03X8988459Y-2351981I-61214J0D01*
G01Y-2325230D01*
G03X9009409Y-2296095I-9784J29135D01*
G01Y-2206095D01*
G03X8978675Y-2175361I-30734J0D01*
G01X8898675D01*
G03X8868838Y-2198726I0J-30734D01*
G01X8819995D01*
G01Y-2193460D01*
G03X8771611Y-2145076I-48384J0D01*
G03X8739111Y-2157615I0J-48384D01*
G03X8706612Y-2145076I-32499J-35845D01*
G03X8658228Y-2193460I0J-48384D01*
G01Y-2236788D01*
G03X8656828Y-2248510I48384J-11721D01*
G03X8658228Y-2260231I49784J0D01*
G01Y-2303559D01*
G03X8706612Y-2351943I48384J0D01*
G03X8739111Y-2339404I0J48384D01*
G03X8771611Y-2351943I32499J35845D01*
G03X8819995Y-2303559I0J48384D01*
G01Y-2298294D01*
G01X8868020D01*
G03X8888891Y-2325230I30655J2198D01*
G01Y-2351981D01*
G03X8877461Y-2387600I49784J-35619D01*
G03X8938675Y-2448814I61214J0D01*
G37*
G36*
G01X8485002Y-2519455D02*
G03X8515736Y-2550189I30734J0D01*
G01X8602137D01*
G03X8632871Y-2519455I0J30734D01*
G01Y-2438808D01*
G03X8626373Y-2419909I-30734J0D01*
G01Y-2248510D01*
G03X8624974Y-2236788I-49784J0D01*
G01Y-2193460D01*
G03X8576589Y-2145076I-48384J0D01*
G03X8528205Y-2193460I0J-48384D01*
G01Y-2236788D01*
G03X8526805Y-2248510I48384J-11721D01*
G01Y-2408074D01*
G01X8515736D01*
G03X8485002Y-2438808I0J-30734D01*
G01Y-2519455D01*
G37*
G36*
G01X2402859Y-2757145D02*
G03X2433593Y-2787879I30734J0D01*
G01X2519994D01*
G03X2550728Y-2757145I0J30734D01*
G01Y-2676497D01*
G03X2520544Y-2645768I-30734J0D01*
G01Y-2595935D01*
G01X2532159D01*
G03X2580543Y-2547550I0J48384D01*
G03X2532159Y-2499166I-48384J0D01*
G01X2422060D01*
G03X2373676Y-2547550I0J-48384D01*
G03X2422060Y-2595935I48384J0D01*
G01X2433676D01*
G01Y-2645763D01*
G01X2433593D01*
G03X2402859Y-2676497I0J-30734D01*
G01Y-2757145D01*
G37*
G36*
G01X1828800Y-3574034D02*
G03X1897634Y-3505200I0J68834D01*
G03X1868745Y-3449142I-68834J0D01*
G03X1897634Y-3393084I-39945J56058D01*
G03X1865488Y-3334842I-68834J0D01*
G03X1897634Y-3276600I-36688J58242D01*
G03X1828800Y-3207766I-68834J0D01*
G03X1759966Y-3276600I0J-68834D01*
G03X1792112Y-3334842I68834J0D01*
G03X1759966Y-3393084I36688J-58242D01*
G03X1788855Y-3449142I68834J0D01*
G03X1759966Y-3505200I39945J-56058D01*
G03X1828800Y-3574034I68834J0D01*
G37*
G36*
G01X3148644Y-2959100D02*
G03X3209879Y-3020334I61234J0D01*
G03X3266048Y-2983484I0J61234D01*
G01X3380647D01*
G03X3416300Y-2994934I35653J49784D01*
G03X3477534Y-2933700I0J61234D01*
G03X3416300Y-2872466I-61234J0D01*
G03X3380647Y-2883916I0J-61234D01*
G01X3235279D01*
G03X3200076Y-2898497I0J-49784D01*
G01X3199887Y-2898687D01*
G03X3148644Y-2959100I9992J-60413D01*
G37*
G36*
G01X6667500Y-3337834D02*
G03X6728734Y-3276600I0J61234D01*
G03X6667500Y-3215366I-61234J0D01*
G03X6606266Y-3276600I0J-61234D01*
G03X6667500Y-3337834I61234J0D01*
G37*
G36*
G01X3304266Y-2184400D02*
G03X3365500Y-2245634I61234J0D01*
G03X3426734Y-2184400I0J61234D01*
G03X3365500Y-2123166I-61234J0D01*
G03X3304266Y-2184400I0J-61234D01*
G37*
G36*
G01X3505200Y-3362891D02*
G03X3566434Y-3301657I0J61234D01*
G03X3505200Y-3240423I-61234J0D01*
G03X3443966Y-3301657I0J-61234D01*
G03X3505200Y-3362891I61234J0D01*
G37*
G36*
G01X677852Y-3871214D02*
G03X739066Y-3810000I0J61214D01*
G03X677852Y-3748786I-61214J0D01*
G03X616638Y-3810000I0J-61214D01*
G03X677852Y-3871214I61214J0D01*
G37*
G36*
G01X3394235Y-2679700D02*
G03X3455449Y-2740914I61214J0D01*
G03X3516663Y-2679700I0J61214D01*
G03X3455449Y-2618486I-61214J0D01*
G03X3394235Y-2679700I0J-61214D01*
G37*
G36*
G01X2059686Y-3911600D02*
G03X2120900Y-3972814I61214J0D01*
G03X2182114Y-3911600I0J61214D01*
G03X2120900Y-3850386I-61214J0D01*
G03X2059686Y-3911600I0J-61214D01*
G37*
G36*
G01X2705100Y-3782314D02*
G03X2766314Y-3721100I0J61214D01*
G03X2705100Y-3659886I-61214J0D01*
G03X2643886Y-3721100I0J-61214D01*
G03X2705100Y-3782314I61214J0D01*
G37*
%LPD*%
G36*
G01X266954Y-3066485D02*
G01X266954Y-2626303D01*
G01X1639570D01*
G01Y-3066485D01*
G01X266954D01*
G37*
G36*
G01X1649675Y-1854116D02*
G01X1649675Y-2278800D01*
G01X1323901D01*
G03X1282700Y-2262866I-41201J-45300D01*
G03X1241499Y-2278800I0J-61234D01*
G01X403860D01*
G01Y-1854116D01*
G01X470773D01*
G01X470691Y-1856357D01*
G01Y-1956357D01*
G03X501425Y-1987091I30734J0D01*
G01X576427D01*
G03X607161Y-1956357I0J30734D01*
G01Y-1856357D01*
G01X607079Y-1854116D01*
G01X1065105D01*
G03X1064769Y-1858648I30398J-4532D01*
G01Y-1958648D01*
G03X1095503Y-1989382I30734J0D01*
G01X1170504D01*
G03X1201238Y-1958648I0J30734D01*
G01Y-1858648D01*
G03X1200902Y-1854116I-30734J0D01*
G01X1649675D01*
G37*
G36*
G01X432852Y-1760895D02*
G01X432852Y-670560D01*
G01X1643790D01*
G01Y-1112065D01*
G03X1606555Y-1168400I23999J-56335D01*
G03X1643790Y-1224735I61234J0D01*
G01Y-1759966D01*
G01X1155700D01*
G01X538926D01*
G03X529989Y-1760895I0J-43434D01*
G01X432852D01*
G37*
G36*
G01X924560Y-4104640D02*
G01X924560Y-3522108D01*
G01X1018968Y-3427700D01*
G03X1066800Y-3447034I47832J49500D01*
G03X1123950Y-3416567I0J68834D01*
G03X1181100Y-3447034I57150J38367D01*
G03X1249934Y-3378200I0J68834D01*
G03X1219467Y-3321050I-68834J0D01*
G03X1249934Y-3263900I-38367J57150D01*
G03X1230600Y-3216068I-68834J0D01*
G01X1312308Y-3134360D01*
G01X1590040D01*
G01Y-3571240D01*
G01X1397000D01*
G03X1389816Y-3574216I0J-10160D01*
G01X1041413Y-3922619D01*
G03X1038437Y-3929803I7184J-7184D01*
G01Y-4104640D01*
G01X924560D01*
G37*
G36*
G01X1222439Y-4230865D02*
G01X1222439Y-4157632D01*
G03X1219463Y-4150448I-10160J0D01*
G01X1176631Y-4107616D01*
G03X1169446Y-4104640I-7184J-7184D01*
G01X1058757D01*
G01Y-3985260D01*
G01X1291192D01*
G01X1362868Y-4056937D01*
G01Y-4230865D01*
G01X1222439D01*
G37*
G36*
G01X1583565Y-4264660D02*
G01X1583565Y-4765040D01*
G01X1407160D01*
G01Y-4264660D01*
G01X1583565D01*
G37*
G36*
G01X1793240Y-4098880D02*
G01X1793240Y-4333240D01*
G01X1727636D01*
G01X1727638Y-4332891D01*
G01Y-4225690D01*
G03X1710690Y-4198221I-30734J0D01*
G01X1648460Y-4135992D01*
G01Y-4055618D01*
G01X1749987D01*
G01X1750426Y-4056066D01*
G01X1793240Y-4098880D01*
G37*
G36*
G01X1835342Y-4333240D02*
G01X1835342Y-4087358D01*
G03X1832366Y-4080174I-10160J0D01*
G01X1782318Y-4030125D01*
G01Y-3774236D01*
G01X1995465D01*
G01Y-4333240D01*
G01X1835342D01*
G37*
G36*
G01X2074308Y-1488440D02*
G01X1915160Y-1329292D01*
G01Y-314960D01*
G01X2459592D01*
G01X2583616Y-438984D01*
G03X2590800Y-441960I7184J7184D01*
G01X2948416D01*
G01X3212141Y-705684D01*
G03X3219325Y-708660I7184J7184D01*
G01X4257040D01*
G01Y-1247140D01*
G01X3708400D01*
G03X3701216Y-1250116I0J-10160D01*
G01X3685963Y-1265368D01*
G01X3271072D01*
G03X3263887Y-1268344I0J-10160D01*
G01X3043792Y-1488440D01*
G01X2074308D01*
G37*
G36*
G01X1936166Y-4655134D02*
G01X1936166Y-4397153D01*
G01X2044700D01*
G03X2054860Y-4386993I0J10160D01*
G01Y-4188460D01*
G01X2275840D01*
G01Y-4371066D01*
G01X2246540D01*
G03X2221849Y-4383499I0J-30734D01*
G03X2197100Y-4378706I-24749J-61501D01*
G03X2130806Y-4445000I0J-66294D01*
G03X2197100Y-4511294I66294J0D01*
G03X2221849Y-4506501I0J66294D01*
G03X2246540Y-4518934I24691J18301D01*
G01X2275840D01*
G01Y-4655134D01*
G01X1936166D01*
G37*
G36*
G01X2515464Y-4294866D02*
G03X2458300Y-4334147I0J-61234D01*
G01X2452471D01*
G01X2443712Y-4325388D01*
G03X2419399Y-4313140I-30712J-30712D01*
G03X2375764Y-4294866I-43635J-42960D01*
G03X2318600Y-4334147I0J-61234D01*
G01X2296160D01*
G01Y-4178300D01*
G03X2286000Y-4168140I-10160J0D01*
G01X2054860D01*
G01Y-4099560D01*
G01X2617174D01*
G03X2667000Y-4125214I49826J35560D01*
G03X2716826Y-4099560I0J61214D01*
G01X2809240D01*
G01Y-4334147D01*
G01X2630271D01*
G01X2621512Y-4325388D01*
G03X2590800Y-4312666I-30712J-30712D01*
G01X2558627D01*
G03X2515464Y-4294866I-43164J-43434D01*
G37*
G36*
G01X2889000Y-4259431D02*
G01X2829560Y-4318872D01*
G01Y-4089400D01*
G03X2819400Y-4079240I-10160J0D01*
G01X2812277D01*
G01X2915484Y-3976033D01*
G03X2918460Y-3968849I-7184J7184D01*
G01Y-3731034D01*
G01X2993001D01*
G03X3023735Y-3700300I0J30734D01*
G01Y-3640300D01*
G03X2993001Y-3609566I-30734J0D01*
G01X2918460D01*
G01Y-3528060D01*
G01X3056989D01*
G01Y-4091443D01*
G01X2913231Y-4235200D01*
G03X2889000Y-4259431I33169J-57400D01*
G37*
%LPC*%
G36*
G01X2908300Y-4188714D02*
G03X2969514Y-4127500I0J61214D01*
G03X2908300Y-4066286I-61214J0D01*
G03X2847086Y-4127500I0J-61214D01*
G03X2908300Y-4188714I61214J0D01*
G37*
%LPD*%
G36*
G01X3279140Y-4041735D02*
G03X3251642Y-4053840I10160J-60365D01*
G01X3107616D01*
G01Y-3680460D01*
G01X3279140D01*
G01Y-4041735D01*
G37*
G36*
G01X3349722Y-4111917D02*
G03X3350514Y-4102100I-60422J9817D01*
G03X3324860Y-4052274I-61214J0D01*
G01Y-3680371D01*
G01X3809446D01*
G01X3817620Y-3688545D01*
G01Y-4111917D01*
G01X3349722D01*
G37*
G36*
G01X3382772Y-4701623D02*
G01X3382772Y-4168477D01*
G01X3857367D01*
G01Y-4701623D01*
G01X3382772D01*
G37*
G36*
G01X3629660Y-2236422D02*
G01X3629660Y-1318260D01*
G01X4053840D01*
G01Y-1701800D01*
G03X4064000Y-1711960I10160J0D01*
G01X4231640D01*
G01Y-2236422D01*
G01X3629660D01*
G37*
G36*
G01X3877687Y-4701540D02*
G01X3877687Y-4248484D01*
G03X3924300Y-4270019I46613J39679D01*
G03X3985514Y-4208805I0J61214D01*
G03X3924300Y-4147591I-61214J0D01*
G03X3877687Y-4169126I0J-61214D01*
G01Y-3746302D01*
G03X3898900Y-3751834I21213J37902D01*
G01X4013200D01*
G03X4043912Y-3739112I0J43434D01*
G01X4191352Y-3591673D01*
G01X7069748D01*
G03X7073900Y-3591814I4152J61073D01*
G03X7078052Y-3591673I0J61214D01*
G01X9243840D01*
G01Y-4394539D01*
G03X9137396Y-4565650I84310J-171111D01*
G03X9194281Y-4701540I190754J0D01*
G01X5959700D01*
G03X5976155Y-4656214I-54200J45326D01*
G03X5905500Y-4585559I-70655J0D01*
G03X5834845Y-4656214I0J-70655D01*
G03X5851300Y-4701540I70655J0D01*
G01X3877687D01*
G37*
%LPC*%
G36*
G01X4117086Y-4483100D02*
G03X4178300Y-4544314I61214J0D01*
G03X4239514Y-4483311I0J61214D01*
G01X4360549Y-4362276D01*
G03X4373270Y-4331564I-30712J30712D01*
G01Y-4201277D01*
G03X4397975Y-4183774I-3110J30576D01*
G01X4526289D01*
G03X4557002Y-4171052I0J43434D01*
G01X4601596Y-4126458D01*
G01X4610214D01*
G01X4815326Y-4331571D01*
G03X4846039Y-4344292I30712J30712D01*
G01X4978451D01*
G03X5006093Y-4361592I27642J13434D01*
G01X5176093D01*
G03X5206827Y-4330858I0J30734D01*
G01Y-4270858D01*
G03X5176093Y-4240124I-30734J0D01*
G01X5006093D01*
G03X4978451Y-4257424I0J-30734D01*
G01X4864030D01*
G01X4744269Y-4137664D01*
G03X4749800Y-4137914I5531J60964D01*
G03X4811014Y-4076700I0J61214D01*
G03X4749800Y-4015486I-61214J0D01*
G03X4699139Y-4042339I0J-61214D01*
G01Y-4025724D01*
G03X4668405Y-3994990I-30734J0D01*
G01X4543404D01*
G03X4512670Y-4025724I0J-30734D01*
G01Y-4092534D01*
G01X4508298Y-4096906D01*
G01X4400894D01*
G01Y-4084300D01*
G03X4370160Y-4053566I-30734J0D01*
G01X4361434D01*
G01Y-4036580D01*
G03X4378135Y-3994991I-43434J41589D01*
G01Y-3849291D01*
G03X4318000Y-3789157I-60134J0D01*
G03X4257866Y-3849291I0J-60134D01*
G01Y-3994991D01*
G03X4274566Y-4036580I60135J0D01*
G01Y-4057445D01*
G03X4258779Y-4084300I14947J-26855D01*
G01Y-4170700D01*
G03X4286402Y-4201277I30734J0D01*
G01Y-4313573D01*
G01X4178089Y-4421886D01*
G03X4117086Y-4483100I211J-61214D01*
G37*
G36*
G01X4178300Y-4264914D02*
G03X4239514Y-4203700I0J61214D01*
G03X4238831Y-4194583I-61214J0D01*
G03X4250221Y-4170700I-19344J23883D01*
G01Y-4084300D01*
G03X4234434Y-4057445I-30734J0D01*
G01Y-4036580D01*
G03X4251135Y-3994991I-43434J41589D01*
G01Y-3849291D01*
G03X4237976Y-3811749I-60134J0D01*
G01X4285191Y-3764534D01*
G01X4438282D01*
G01X4467121Y-3793373D01*
G03X4445000Y-3789157I-22121J-55918D01*
G03X4384866Y-3849291I0J-60134D01*
G01Y-3994991D01*
G03X4445000Y-4055125I60135J0D01*
G03X4505135Y-3994991I0J60135D01*
G01Y-3849291D01*
G03X4500918Y-3827170I-60134J0D01*
G01X4512670Y-3838922D01*
G01Y-3905732D01*
G03X4543404Y-3936466I30734J0D01*
G01X4668405D01*
G03X4697960Y-3914166I0J30734D01*
G01X4932241D01*
G01X4934966Y-3916891D01*
G01Y-4063172D01*
G03X4947688Y-4093884I43434J0D01*
G01X4981387Y-4127584D01*
G03X4975359Y-4145865I24706J-18281D01*
G01Y-4205865D01*
G03X5006093Y-4236599I30734J0D01*
G01X5176093D01*
G03X5206827Y-4205865I0J30734D01*
G01Y-4145865D01*
G03X5176093Y-4115131I-30734J0D01*
G01X5091784D01*
G01X5021834Y-4045181D01*
G01Y-3898900D01*
G03X5009112Y-3868188I-43434J0D01*
G01X4980945Y-3840020D01*
G03X4950232Y-3827298I-30712J-30712D01*
G01X4697960D01*
G03X4668405Y-3804998I-29554J-8434D01*
G01X4601596D01*
G01X4486986Y-3690388D01*
G03X4456273Y-3677666I-30713J-30712D01*
G01X4267200D01*
G03X4236488Y-3690388I0J-43434D01*
G01X4160288Y-3766588D01*
G03X4147566Y-3797300I30712J-30712D01*
G01Y-3807702D01*
G03X4130866Y-3849291I43434J-41589D01*
G01Y-3994991D01*
G03X4147566Y-4036580I60135J0D01*
G01Y-4053566D01*
G01X4138840D01*
G03X4108106Y-4084300I0J-30734D01*
G01Y-4170700D01*
G03X4117981Y-4193272I30734J0D01*
G03X4117086Y-4203700I60319J-10428D01*
G03X4178300Y-4264914I61214J0D01*
G37*
G36*
G01X5521084Y-4566606D02*
G03X5551818Y-4535872I0J30734D01*
G01Y-4435872D01*
G03X5521084Y-4405138I-30734J0D01*
G01X5241085D01*
G03X5210351Y-4435872I0J-30734D01*
G01Y-4535872D01*
G03X5241085Y-4566606I30734J0D01*
G01X5521084D01*
G37*
G36*
G01X5210351Y-4040876D02*
G03X5241085Y-4071610I30734J0D01*
G01X5521084D01*
G03X5551818Y-4040876I0J30734D01*
G01Y-3940877D01*
G03X5521084Y-3910143I-30734J0D01*
G01X5241085D01*
G03X5210351Y-3940877I0J-30734D01*
G01Y-4040876D01*
G37*
G36*
G01X4064000Y-4055125D02*
G03X4124135Y-3994991I0J60135D01*
G01Y-3849291D01*
G03X4064000Y-3789157I-60134J0D01*
G03X4003866Y-3849291I0J-60134D01*
G01Y-3994991D01*
G03X4064000Y-4055125I60135J0D01*
G37*
G36*
G01X5834845Y-4386186D02*
G03X5905500Y-4456841I70655J0D01*
G03X5976155Y-4386186I0J70655D01*
G03X5905500Y-4315531I-70655J0D01*
G03X5834845Y-4386186I0J-70655D01*
G37*
G36*
G01X7800066Y-4470400D02*
G03X7861300Y-4531634I61234J0D01*
G03X7922534Y-4470400I0J61234D01*
G03X7861300Y-4409166I-61234J0D01*
G03X7800066Y-4470400I0J-61234D01*
G37*
G36*
G01X7264400Y-4569734D02*
G03X7325634Y-4508500I0J61234D01*
G03X7264400Y-4447266I-61234J0D01*
G03X7203166Y-4508500I0J-61234D01*
G03X7264400Y-4569734I61234J0D01*
G37*
G36*
G01X6654800Y-4609010D02*
G03X6716014Y-4547796I0J61214D01*
G03X6654800Y-4486582I-61214J0D01*
G03X6593586Y-4547796I0J-61214D01*
G03X6654800Y-4609010I61214J0D01*
G37*
G36*
G01X6197600Y-4029812D02*
G03X6258814Y-3968598I0J61214D01*
G03X6197600Y-3907384I-61214J0D01*
G03X6136386Y-3968598I0J-61214D01*
G03X6197600Y-4029812I61214J0D01*
G37*
%LPD*%
G36*
G01X4263534Y-2255266D02*
G01X4251960Y-2243692D01*
G01Y-1706008D01*
G01X4325184Y-1632784D01*
G03X4328160Y-1625600I-7184J7184D01*
G01Y-772160D01*
G01X4777740D01*
G01Y-2255266D01*
G01X4263534D01*
G37*
G36*
G01X5455307Y-3571353D02*
G03X5461212Y-3566413I-24807J35653D01*
G01X5473891Y-3553734D01*
G03X5534934Y-3492500I-191J61234D01*
G03X5473700Y-3431266I-61234J0D01*
G03X5412466Y-3492266I0J-61234D01*
G01X5076435D01*
G03X5103134Y-3441700I-34535J50566D01*
G03X5094936Y-3411093I-61234J0D01*
G01X5104435D01*
G03X5135147Y-3398371I0J43434D01*
G01X5238906Y-3294612D01*
G03X5251628Y-3263900I-30712J30712D01*
G01Y-3218164D01*
G03X5269428Y-3175000I-43434J43164D01*
G03X5208194Y-3113766I-61234J0D01*
G03X5163147Y-3133522I0J-61234D01*
G03X5118291Y-3113766I-45047J-41478D01*
G01X4965913Y-2961388D01*
G03X4935200Y-2948666I-30712J-30712D01*
G01X4531360D01*
G01Y-2854794D01*
G01X5078458D01*
G03X5046980Y-2908300I29736J-53506D01*
G03X5108194Y-2969514I61214J0D01*
G03X5169408Y-2908300I0J61214D01*
G03X5137930Y-2854794I-61214J0D01*
G01X5409569D01*
G01X5450566Y-2895791D01*
G03X5511800Y-2956834I61234J191D01*
G03X5573034Y-2895600I0J61234D01*
G03X5511991Y-2834366I-61234J0D01*
G01X5458272Y-2780647D01*
G03X5427560Y-2767926I-30712J-30712D01*
G01X4531360D01*
G01Y-2639060D01*
G01X4860733D01*
G03X4921098Y-2690114I60365J10160D01*
G03X4981463Y-2639060I0J61214D01*
G01X6154166D01*
G01Y-3571353D01*
G01X5455307D01*
G37*
%LPC*%
G36*
G01X5905500Y-3503320D02*
G03X5966714Y-3442106I0J61214D01*
G03X5905500Y-3380892I-61214J0D01*
G03X5844286Y-3442106I0J-61214D01*
G03X5905500Y-3503320I61214J0D01*
G37*
G36*
G01X6078315Y-3210814D02*
G03X6139529Y-3149600I0J61214D01*
G03X6078315Y-3088386I-61214J0D01*
G03X6017101Y-3149600I0J-61214D01*
G03X6078315Y-3210814I61214J0D01*
G37*
%LPD*%
G36*
G01X5964319Y-2263140D02*
G01X5964319Y-761601D01*
G01X6466840D01*
G01Y-1313628D01*
G03X6477000Y-1323788I10160J0D01*
G01X6909018D01*
G01Y-1701800D01*
G03X6919178Y-1711960I10160J0D01*
G01X7101840D01*
G01Y-2263140D01*
G01X5964319D01*
G37*
G36*
G01X8487208Y-600875D02*
G01X8487208Y-1539240D01*
G01X7840108D01*
G01X7563684Y-1262816D01*
G03X7556500Y-1259840I-7184J-7184D01*
G01X6525260D01*
G01Y-683260D01*
G01X7728115D01*
G03X7735299Y-680284I0J10160D01*
G01X7814708Y-600875D01*
G01X8487208D01*
G37*
G36*
G01X7652766Y-2717339D02*
G01X7652766Y-3550779D01*
G01X7549827D01*
G03X7592314Y-3492500I-18727J58279D01*
G03X7531100Y-3431286I-61214J0D01*
G03X7469886Y-3492500I0J-61214D01*
G03X7512373Y-3550779I61214J0D01*
G01X7422827D01*
G03X7465314Y-3492500I-18727J58279D01*
G03X7404100Y-3431286I-61214J0D01*
G03X7342886Y-3492500I0J-61214D01*
G03X7385373Y-3550779I61214J0D01*
G01X7295827D01*
G03X7338314Y-3492500I-18727J58279D01*
G03X7277100Y-3431286I-61214J0D01*
G03X7215886Y-3492500I0J-61214D01*
G03X7258373Y-3550779I61214J0D01*
G01X7131692D01*
G03X7134289Y-3540616I-57792J20179D01*
G01X7629803Y-3045103D01*
G03X7644384Y-3009900I-35203J35203D01*
G01Y-2725721D01*
G01X7652766Y-2717339D01*
G37*
G36*
G01X7693660Y-3571353D02*
G01X7693660Y-3160135D01*
G03X7759700Y-3199384I66040J35935D01*
G03X7834884Y-3124200I0J75184D01*
G03X7759700Y-3049016I-75184J0D01*
G03X7693660Y-3088265I0J-75184D01*
G01Y-2689860D01*
G01X8492173D01*
G03X8515736Y-2700862I23563J19732D01*
G01X8602137D01*
G03X8625700Y-2689860I0J30734D01*
G01X9222740D01*
G01Y-3571353D01*
G01X7693660D01*
G37*
%LPC*%
G36*
G01X8149316Y-2851601D02*
G03X8210530Y-2912815I61214J0D01*
G03X8271744Y-2851601I0J61214D01*
G03X8248707Y-2803750I-61214J0D01*
G03X8271744Y-2755900I-38177J47850D01*
G03X8210530Y-2694686I-61214J0D01*
G03X8149316Y-2755900I0J-61214D01*
G03X8172353Y-2803750I61214J0D01*
G03X8149316Y-2851601I38177J-47850D01*
G37*
G36*
G01X8760750Y-2982234D02*
G03X8821984Y-2921000I0J61234D01*
G03X8760750Y-2859766I-61234J0D01*
G03X8699515Y-2921000I0J-61234D01*
G03X8760750Y-2982234I61234J0D01*
G37*
%LPD*%
G36*
G01X8823960Y-1523810D02*
G01X8823960Y-606637D01*
G01X9489440D01*
G01Y-1216295D01*
G01X9317430D01*
G03X9310245Y-1219271I0J-10160D01*
G01X9086016Y-1443500D01*
G03X9083040Y-1450685I7184J-7184D01*
G01Y-1523810D01*
G01X8823960D01*
G37*
G54D8191*
G01X9562846Y-4584700D02*
G02X9334500Y-4813046I-228346J0D01*
G01X495300D01*
G02X266954Y-4584700I0J228346D01*
G01Y-3107379D01*
G01X1281457D01*
G01X892668Y-3496168D01*
G03X883666Y-3517900I21732J-21732D01*
G01Y-4114800D01*
G03X914400Y-4145534I30734J0D01*
G01X1037488D01*
G01X1048597D01*
G01X1156716D01*
G01X1181545Y-4170362D01*
G01Y-4241025D01*
G03X1212279Y-4271759I30734J0D01*
G01X1366266D01*
G01Y-4775200D01*
G03X1397000Y-4805934I30734J0D01*
G01X1593725D01*
G03X1623559Y-4782583I0J30734D01*
G03X1638389Y-4786398I14830J26919D01*
G01X1718389D01*
G03X1749123Y-4755664I0J30734D01*
G01Y-4665664D01*
G03X1718389Y-4634930I-30734J0D01*
G01X1713738D01*
G01Y-4588424D01*
G03X1717802Y-4585246I-16834J25714D01*
G03X1738700Y-4593444I20898J22536D01*
G01X1791900D01*
G03X1812798Y-4585246I0J30734D01*
G03X1816862Y-4588424I20898J22536D01*
G01Y-4641596D01*
G03X1829584Y-4672308I43434J0D01*
G01X1899688Y-4742412D01*
G03X1930400Y-4755134I30712J30712D01*
G01X2387600D01*
G03X2418312Y-4742412I0J43434D01*
G01X2468249Y-4692476D01*
G03X2474826Y-4684034I-30712J30712D01*
G01X2477860D01*
G03X2508593Y-4653534I0J30734D01*
G01X2546007D01*
G03X2576740Y-4684034I30733J234D01*
G01X2657387D01*
G03X2688121Y-4653300I0J30734D01*
G01Y-4566900D01*
G03X2657387Y-4536166I-30734J0D01*
G01X2576740D01*
G03X2546007Y-4566666I0J-30734D01*
G01X2508593D01*
G03X2477860Y-4536166I-30733J-234D01*
G01X2397213D01*
G03X2366479Y-4566900I0J-30734D01*
G01Y-4653300D01*
G03X2370100Y-4667775I30734J0D01*
G01X2369609Y-4668266D01*
G01X2354031D01*
G03X2357921Y-4653300I-26844J14966D01*
G01Y-4566900D01*
G03X2327187Y-4536166I-30734J0D01*
G01X2316734D01*
G01Y-4518934D01*
G01X2327187D01*
G03X2357921Y-4488200I0J30734D01*
G01Y-4414677D01*
G03X2366479Y-4416626I17842J58577D01*
G01Y-4488200D01*
G03X2397213Y-4518934I30734J0D01*
G01X2477860D01*
G03X2508594Y-4488200I0J30734D01*
G01Y-4416948D01*
G03X2515464Y-4417334I6869J60848D01*
G03X2546006Y-4409173I0J61234D01*
G01Y-4488200D01*
G03X2576740Y-4518934I30734J0D01*
G01X2657387D01*
G03X2688121Y-4488200I0J30734D01*
G01Y-4401800D01*
G03X2672504Y-4375041I-30734J0D01*
G01X2712296D01*
G03X2696679Y-4401800I15117J-26759D01*
G01Y-4488200D01*
G03X2727413Y-4518934I30734J0D01*
G01X2808060D01*
G03X2838793Y-4488434I0J30734D01*
G01X2870200D01*
G03X2900912Y-4475712I0J43434D01*
G01X2977112Y-4399512D01*
G03X2989834Y-4368800I-30712J30712D01*
G01Y-4342684D01*
G03X3012694Y-4292600I-43434J50084D01*
G03X2973959Y-4232306I-66294J0D01*
G01X3088881Y-4117383D01*
G03X3097883Y-4095651I-21732J21732D01*
G01Y-4094734D01*
G01X3228531D01*
G03X3228086Y-4102100I60769J-7366D01*
G03X3289300Y-4163314I61214J0D01*
G03X3323586Y-4152811I0J61214D01*
G01X3342375D01*
G03X3341878Y-4158317I30237J-5506D01*
G01Y-4711783D01*
G03X3372612Y-4742517I30734J0D01*
G01X3878326D01*
G01X3880584Y-4742434D01*
G01X9254000D01*
G01X9256285Y-4742349D01*
G03X9328150Y-4756404I71865J176699D01*
G03X9518904Y-4565650I0J190754D01*
G03X9328150Y-4374896I-190754J0D01*
G03X9284734Y-4379902I0J-190754D01*
G01Y-3581513D01*
G03X9263634Y-3552328I-30734J0D01*
G01Y-2679700D01*
G03X9232900Y-2648966I-30734J0D01*
G01X8810224D01*
G01Y-2577348D01*
G03X8779490Y-2546614I-30734J0D01*
G01X8689490D01*
G03X8658756Y-2577348I0J-30734D01*
G01Y-2580020D01*
G01X8631379D01*
G03X8602137Y-2558746I-29242J-9460D01*
G01X8515736D01*
G03X8486494Y-2580020I0J-30734D01*
G01X7669896D01*
G03X7634693Y-2594602I0J-49784D01*
G01X7559397Y-2669897D01*
G03X7544816Y-2705100I35203J-35203D01*
G01Y-2735970D01*
G03X7493000Y-2707366I-51816J-32630D01*
G03X7432587Y-2758608I0J-61234D01*
G01X7421579Y-2769616D01*
G01X7247024D01*
G01X7224834Y-2747426D01*
G03X7251700Y-2753634I26866J55026D01*
G03X7312934Y-2692400I0J61234D01*
G03X7251700Y-2631166I-61234J0D01*
G03X7190466Y-2692400I0J-61234D01*
G03X7191149Y-2701521I61234J0D01*
G03X7162800Y-2694563I-28349J-54277D01*
G03X7101566Y-2755797I0J-61234D01*
G03X7152808Y-2816210I61234J0D01*
G01X7191200Y-2854603D01*
G03X7226403Y-2869184I35203J35203D01*
G01X7442200D01*
G03X7477403Y-2854603I0J49784D01*
G01X7502992Y-2829013D01*
G03X7544816Y-2801230I-9992J60413D01*
G01Y-2989279D01*
G01X7063884Y-3470211D01*
G03X7012686Y-3530600I10016J-60389D01*
G03X7016108Y-3550779I61214J0D01*
G01X6522092D01*
G03X6525514Y-3530600I-57792J20179D01*
G03X6464300Y-3469386I-61214J0D01*
G03X6403086Y-3530600I0J-61214D01*
G03X6406508Y-3550779I61214J0D01*
G01X6395092D01*
G03X6398514Y-3530600I-57792J20179D01*
G03X6337300Y-3469386I-61214J0D01*
G03X6276086Y-3530600I0J-61214D01*
G03X6279508Y-3550779I61214J0D01*
G01X6268092D01*
G03X6271514Y-3530600I-57792J20179D01*
G03X6210300Y-3469386I-61214J0D01*
G03X6195060Y-3471313I0J-61214D01*
G01Y-2649685D01*
G01X6420866Y-2875491D01*
G01Y-3322365D01*
G03X6403086Y-3365500I43434J-43135D01*
G03X6464300Y-3426714I61214J0D01*
G03X6525514Y-3365500I0J61214D01*
G03X6507734Y-3322365I-61214J0D01*
G01Y-2857500D01*
G03X6495012Y-2826788I-43434J0D01*
G01X5972259Y-2304034D01*
G01X7112000D01*
G03X7142734Y-2273300I0J30734D01*
G01Y-1954784D01*
G01X7429814D01*
G01X7529722Y-2054692D01*
G03X7590135Y-2105934I60413J9992D01*
G03X7651369Y-2044700I0J61234D01*
G03X7600127Y-1984287I-61234J0D01*
G01X7485638Y-1869797D01*
G03X7450435Y-1855216I-35203J-35203D01*
G01X7142734D01*
G01Y-1701800D01*
G03X7112000Y-1671066I-30734J0D01*
G01X6949912D01*
G01Y-1313628D01*
G03X6947076Y-1300734I-30734J0D01*
G01X7543770D01*
G01X7814168Y-1571132D01*
G03X7835900Y-1580134I21732J21732D01*
G01X8497368D01*
G03X8528102Y-1549400I0J30734D01*
G01Y-1342032D01*
G01X8528940D01*
G01X8591829Y-1404921D01*
G01Y-1562119D01*
G03X8576589Y-1559657I-15240J-45922D01*
G03X8528205Y-1608041I0J-48384D01*
G01Y-1718140D01*
G03X8576589Y-1766524I48384J0D01*
G03X8609101Y-1753973I0J48384D01*
G03X8641613Y-1766524I32512J35833D01*
G03X8674113Y-1753985I0J48384D01*
G03X8706612Y-1766524I32499J35845D01*
G03X8754996Y-1718140I0J48384D01*
G01Y-1674812D01*
G03X8756396Y-1663090I-48384J11721D01*
G01Y-1410509D01*
G01X8783066Y-1383839D01*
G01Y-1533970D01*
G03X8813800Y-1564704I30734J0D01*
G01X9093200D01*
G03X9123934Y-1533970I0J30734D01*
G01Y-1463415D01*
G01X9330160Y-1257189D01*
G01X9499600D01*
G03X9530334Y-1226455I0J30734D01*
G01Y-596477D01*
G03X9499600Y-565743I-30734J0D01*
G01X8814223D01*
G03X8792491Y-574744I0J-30734D01*
G01X8792068Y-575168D01*
G03X8783066Y-596900I21732J-21732D01*
G01Y-1247197D01*
G03X8769050Y-1257045I21186J-45051D01*
G01X8676907Y-1349188D01*
G01X8676816Y-1349097D01*
G01X8584764Y-1257045D01*
G03X8549561Y-1242464I-35203J-35203D01*
G01X8528102D01*
G01Y-590715D01*
G03X8497368Y-559981I-30734J0D01*
G01X7810500D01*
G03X7788768Y-568983I0J-30734D01*
G01X7715385Y-642366D01*
G01X6515100D01*
G03X6484366Y-673100I0J-30734D01*
G01Y-721602D01*
G03X6477000Y-720707I-7366J-29838D01*
G01X5954159D01*
G03X5923425Y-751441I0J-30734D01*
G01Y-2259137D01*
G03X5905500Y-2255266I-17925J-39563D01*
G01X4818634D01*
G01Y-762000D01*
G03X4787900Y-731266I-30734J0D01*
G01X4318000D01*
G03X4297934Y-738721I0J-30734D01*
G01Y-698500D01*
G03X4267200Y-667766I-30734J0D01*
G01X3232055D01*
G01X2974357Y-410068D01*
G03X2952625Y-401066I-21732J-21732D01*
G01X2603530D01*
G01X2485532Y-283068D01*
G03X2463800Y-274066I-21732J-21732D01*
G01X1905000D01*
G03X1874266Y-304800I0J-30734D01*
G01Y-1333500D01*
G03X1883268Y-1355232I30734J0D01*
G01X2048368Y-1520332D01*
G03X2070100Y-1529334I21732J21732D01*
G01X3048000D01*
G03X3069732Y-1520332I0J30734D01*
G01X3283802Y-1306262D01*
G01X3588821D01*
G01X3588766Y-1308100D01*
G01Y-2246582D01*
G03X3590018Y-2255266I30734J0D01*
G01X2723091D01*
G01X2088112Y-1620288D01*
G03X2057400Y-1607566I-30712J-30712D01*
G01X2037064D01*
G03X1993900Y-1589766I-43164J-43434D01*
G03X1932666Y-1651000I0J-61234D01*
G03X1993900Y-1712234I61234J0D01*
G03X2037064Y-1694434I0J61234D01*
G01X2039409D01*
G01X2674388Y-2329412D01*
G03X2705100Y-2342134I30712J30712D01*
G01X4292570D01*
G01X4321668Y-2371232D01*
G03X4343400Y-2380234I21732J21732D01*
G01X4787900D01*
G03X4818634Y-2349500I0J30734D01*
G01Y-2342134D01*
G01X5887509D01*
G01X6143541Y-2598166D01*
G01X5104238D01*
G03X5061102Y-2580386I-43135J-43434D01*
G03X5017967Y-2598166I0J-61214D01*
G01X4974037D01*
G03X4921098Y-2567686I-52939J-30734D01*
G03X4868158Y-2598166I0J-61214D01*
G01X4521200D01*
G03X4490466Y-2628900I0J-30734D01*
G01Y-2767926D01*
G01X2692693D01*
G03X2661981Y-2780647I0J-43434D01*
G01X2651202Y-2791426D01*
G01X2596893D01*
G03X2566159Y-2822160I0J-30734D01*
G01Y-2824060D01*
G01X2550570D01*
G03X2519994Y-2796436I-30576J-3110D01*
G01X2433593D01*
G03X2402859Y-2827170I0J-30734D01*
G01Y-2907817D01*
G03X2433593Y-2938551I30734J0D01*
G01X2519994D01*
G03X2550570Y-2910928I0J30734D01*
G01X2567437D01*
G03X2596893Y-2932894I29457J8768D01*
G01X2686893D01*
G03X2717627Y-2902160I0J30734D01*
G01Y-2854794D01*
G01X4490466D01*
G01Y-2948666D01*
G01X4158000D01*
G03X4127287Y-2961388I0J-43434D01*
G01X4033288Y-3055388D01*
G03X4020566Y-3086100I30712J-30712D01*
G01Y-3253220D01*
G03X4003866Y-3294809I43434J-41589D01*
G01Y-3440509D01*
G03X4056220Y-3500138I60135J0D01*
G03X4053586Y-3517900I58580J-17762D01*
G03X4063165Y-3550779I61214J0D01*
G01X3867527D01*
G03X3836793Y-3581513I0J-30734D01*
G01Y-3584868D01*
G01X3769044Y-3517119D01*
G03X3809091Y-3523667I40047J119186D01*
G03X3934825Y-3397933I0J125734D01*
G03X3809091Y-3272199I-125734J0D01*
G03X3683357Y-3397933I0J-125734D01*
G03X3735527Y-3499900I125734J0D01*
G01X3733800Y-3499866D01*
G01X3635398D01*
G03X3642634Y-3470991I-53998J28875D01*
G03X3581400Y-3409756I-61234J0D01*
G03X3520166Y-3470991I0J-61234D01*
G03X3527402Y-3499866I61234J0D01*
G01X3358091D01*
G01X2951955Y-3093730D01*
G03X2971410Y-3096904I19455J58040D01*
G03X3004498Y-3087191I0J61214D01*
G03X2999466Y-3111500I56202J-24309D01*
G03X3060700Y-3172734I61234J0D01*
G03X3121934Y-3111500I0J61234D01*
G03X3060700Y-3050266I-61234J0D01*
G03X3027596Y-3059985I0J-61234D01*
G03X3032624Y-3035690I-56186J24296D01*
G03X2971410Y-2974476I-61214J0D01*
G03X2910196Y-3035690I0J-61214D01*
G03X2915261Y-3060071I61214J0D01*
G03X2895600Y-3055366I-19661J-38729D01*
G01X2722864D01*
G03X2679700Y-3037566I-43164J-43434D01*
G03X2618466Y-3098800I0J-61234D01*
G03X2679700Y-3160034I61234J0D01*
G03X2722864Y-3142234I0J61234D01*
G01X2877609D01*
G01X3309388Y-3574012D01*
G03X3340100Y-3586734I30712J30712D01*
G01X3715809D01*
G01X3768552Y-3639477D01*
G01X3314700D01*
G03X3301902Y-3642268I0J-30734D01*
G03X3289300Y-3639566I-12602J-28032D01*
G01X3097883D01*
G01Y-3635609D01*
G03X3102999Y-3636038I5116J30305D01*
G01X3222998D01*
G03X3253732Y-3605304I0J30734D01*
G01Y-3545304D01*
G03X3222998Y-3514570I-30734J0D01*
G01X3102999D01*
G03X3097748Y-3515022I0J-30734D01*
G03X3067149Y-3487166I-30599J-2878D01*
G01X2908300D01*
G03X2877747Y-3514570I0J-30734D01*
G01X2873002D01*
G03X2842268Y-3545304I0J-30734D01*
G01Y-3605304D01*
G03X2873002Y-3636038I30734J0D01*
G01X2877566D01*
G01Y-3704562D01*
G01X2873002D01*
G03X2842268Y-3735296I0J-30734D01*
G01Y-3795296D01*
G03X2873002Y-3826030I30734J0D01*
G01X2877566D01*
G01Y-3956119D01*
G01X2775019Y-4058666D01*
G01X2727981D01*
G03X2667000Y-4002786I-60981J-5334D01*
G03X2606019Y-4058666I0J-61214D01*
G01X2044700D01*
G03X2036359Y-4059820I0J-30734D01*
G01Y-3764076D01*
G03X2005625Y-3733342I-30734J0D01*
G01X1996570D01*
G03X1997710Y-3721100I-65154J12242D01*
G03X1931416Y-3654806I-66294J0D01*
G03X1865122Y-3721100I0J-66294D01*
G03X1866262Y-3733342I66294J0D01*
G01X1772158D01*
G03X1741424Y-3764076I0J-30734D01*
G01Y-4014724D01*
G01X1638300D01*
G03X1607566Y-4045458I0J-30734D01*
G01Y-4140200D01*
G03X1616568Y-4161932I30734J0D01*
G01X1633813Y-4179177D01*
G03X1662823Y-4208187I55287J26277D01*
G01X1683766Y-4229130D01*
G01Y-4343400D01*
G03X1714500Y-4374134I30734J0D01*
G01X1803400D01*
G03X1814291Y-4372140I0J30734D01*
G03X1825182Y-4374134I10891J28740D01*
G01X1898091D01*
G03X1895272Y-4386993I27914J-12859D01*
G01Y-4425939D01*
G03X1886896Y-4424775I-8376J-29571D01*
G01X1833696D01*
G03X1812798Y-4432974I0J-30734D01*
G03X1791900Y-4424775I-20898J-22536D01*
G01X1738700D01*
G03X1717802Y-4432974I0J-30734D01*
G03X1696904Y-4424775I-20898J-22536D01*
G01X1643704D01*
G03X1624459Y-4431547I0J-30734D01*
G01Y-4254500D01*
G03X1593725Y-4223766I-30734J0D01*
G01X1403762D01*
G01Y-4052728D01*
G03X1394760Y-4030996I-30734J0D01*
G01X1317132Y-3953368D01*
G03X1295400Y-3944366I-21732J-21732D01*
G01X1079331D01*
G01Y-3942534D01*
G01X1409730Y-3612134D01*
G01X1600200D01*
G03X1630934Y-3581400I0J30734D01*
G01Y-3124200D01*
G03X1625922Y-3107379I-30734J0D01*
G01X1649730D01*
G03X1680464Y-3076645I0J30734D01*
G01Y-2616143D01*
G03X1649730Y-2585409I-30734J0D01*
G01X1489216D01*
G01X1548665Y-2525960D01*
G01X1793341D01*
G03X1788257Y-2547550I43300J-21590D01*
G03X1836641Y-2595935I48384J0D01*
G01X1946740D01*
G03X1995124Y-2547550I0J48384D01*
G03X1982573Y-2515038I-48384J0D01*
G03X1995124Y-2482526I-35833J32512D01*
G03X1982585Y-2450027I-48384J0D01*
G03X1995124Y-2417528I-35845J32499D01*
G03X1946740Y-2369143I-48384J0D01*
G01X1836641D01*
G03X1815321Y-2374094I0J-48384D01*
G01X1546519D01*
G01X1492119Y-2319694D01*
G01X1659835D01*
G03X1690411Y-2292074I0J30734D01*
G03X1732788Y-2309114I42377J44174D01*
G03X1794002Y-2247900I0J61214D01*
G03X1732788Y-2186686I-61214J0D01*
G03X1690569Y-2203575I0J-61214D01*
G01Y-1843956D01*
G03X1689982Y-1837980I-30734J0D01*
G03X1694412Y-1834112I-26282J34580D01*
G01X1714711Y-1813814D01*
G03X1775714Y-1752600I-211J61214D01*
G03X1714500Y-1691386I-61214J0D01*
G03X1684684Y-1699138I0J-61214D01*
G01Y-660400D01*
G03X1653950Y-629666I-30734J0D01*
G01X1301018D01*
G03X1311463Y-593948I-55849J35718D01*
G03X1274390Y-534442I-66294J0D01*
G03X1309565Y-475906I-31119J58536D01*
G03X1274370Y-417359I-66294J0D01*
G03X1309565Y-358812I-31100J58547D01*
G03X1243271Y-292518I-66294J0D01*
G03X1176977Y-358812I0J-66294D01*
G03X1212171Y-417359I66294J0D01*
G03X1176977Y-475906I31100J-58547D01*
G03X1214049Y-535412I66294J0D01*
G03X1178875Y-593948I31119J-58536D01*
G03X1189320Y-629666I66294J0D01*
G01X422692D01*
G03X391958Y-660400I0J-30734D01*
G01Y-1771055D01*
G03X422692Y-1801789I30734J0D01*
G01X495522D01*
G01X495492Y-1803400D01*
G01Y-1813222D01*
G01X393700D01*
G03X362966Y-1843956I0J-30734D01*
G01Y-2288960D01*
G03X393700Y-2319694I30734J0D01*
G01X1391666D01*
G01Y-2324100D01*
G03X1404388Y-2354813I43434J0D01*
G01X1497816Y-2448240D01*
G03X1500821Y-2450977I30712J30713D01*
G01X1499961Y-2451814D01*
G01X1404388Y-2547388D01*
G03X1391666Y-2578100I30712J-30712D01*
G01Y-2585409D01*
G01X266954D01*
G01Y-266700D01*
G02X495300Y-38354I228346J-0D01*
G01X9334500D01*
G02X9562846Y-266700I0J-228346D01*
G01Y-4584700D01*
G01X6719457Y-3396413D02*
G03X6845191Y-3522147I125734J0D01*
G03X6970925Y-3396413I0J125734D01*
G03X6894975Y-3280955I-125734J0D01*
G01Y-2908191D01*
G03X6880394Y-2872989I-49784J0D01*
G01X6626503Y-2619097D01*
G03X6591300Y-2604516I-35203J-35203D01*
G01X6541531D01*
G03X6505878Y-2593066I-35653J-49784D01*
G03X6444644Y-2654300I0J-61234D01*
G03X6505878Y-2715534I61234J0D01*
G03X6541531Y-2704084I0J61234D01*
G01X6570679D01*
G01X6795407Y-2928812D01*
G01Y-3280955D01*
G03X6719457Y-3396413I49784J-115458D01*
G01X501650Y-4769104D02*
G03X690828Y-4602817I0J190754D01*
G03X749300Y-4645914I58472J18117D01*
G03X810514Y-4584700I0J61214D01*
G03X792734Y-4541565I-61214J0D01*
G01Y-4259791D01*
G01X813011Y-4239514D01*
G03X874014Y-4178300I-211J61214D01*
G03X812800Y-4117086I-61214J0D01*
G03X751586Y-4178089I0J-61214D01*
G01X718588Y-4211088D01*
G03X705866Y-4241800I30712J-30712D01*
G01Y-4541565D01*
G03X691834Y-4563610I43434J-43135D01*
G03X501650Y-4387596I-190184J-14740D01*
G03X310896Y-4578350I0J-190754D01*
G03X501650Y-4769104I190754J0D01*
G01X310896Y-273050D02*
G03X501650Y-463804I190754J0D01*
G03X692404Y-273050I0J190754D01*
G03X501650Y-82296I-190754J0D01*
G03X310896Y-273050I0J-190754D01*
G01X9137396Y-273050D02*
G03X9328150Y-463804I190754J0D01*
G03X9518904Y-273050I0J190754D01*
G03X9328150Y-82296I-190754J0D01*
G03X9137396Y-273050I0J-190754D01*
G01X2275586Y-2417528D02*
G03X2336800Y-2478742I61214J0D01*
G03X2379935Y-2460962I0J61214D01*
G01X2400741D01*
G03X2422060Y-2465912I21320J43434D01*
G01X2532159D01*
G03X2580543Y-2417528I0J48384D01*
G03X2568004Y-2385029I-48384J0D01*
G03X2580543Y-2352529I-35845J32499D01*
G03X2532159Y-2304145I-48384J0D01*
G01X2519934D01*
G01Y-2273300D01*
G03X2507212Y-2242588I-43434J0D01*
G01X2431012Y-2166388D01*
G03X2400300Y-2153666I-30712J-30712D01*
G01X2324832D01*
G01Y-2152100D01*
G03X2294098Y-2121366I-30734J0D01*
G01X2214098D01*
G03X2183364Y-2152100I0J-30734D01*
G01Y-2242100D01*
G03X2214098Y-2272834I30734J0D01*
G01X2294098D01*
G03X2324832Y-2242100I0J30734D01*
G01Y-2240534D01*
G01X2382309D01*
G01X2433066Y-2291291D01*
G01Y-2304145D01*
G01X2422060D01*
G03X2373676Y-2352529I0J-48384D01*
G03X2377798Y-2372071I48384J0D01*
G03X2336800Y-2356314I-40998J-45457D01*
G03X2275586Y-2417528I0J-61214D01*
G01X8938675Y-2448814D02*
G03X8999889Y-2387600I0J61214D01*
G03X8988459Y-2351981I-61214J0D01*
G01Y-2325230D01*
G03X9009409Y-2296095I-9784J29135D01*
G01Y-2206095D01*
G03X8978675Y-2175361I-30734J0D01*
G01X8898675D01*
G03X8868838Y-2198726I0J-30734D01*
G01X8819995D01*
G01Y-2193460D01*
G03X8771611Y-2145076I-48384J0D01*
G03X8739111Y-2157615I0J-48384D01*
G03X8706612Y-2145076I-32499J-35845D01*
G03X8658228Y-2193460I0J-48384D01*
G01Y-2236788D01*
G03X8656828Y-2248510I48384J-11721D01*
G03X8658228Y-2260231I49784J0D01*
G01Y-2303559D01*
G03X8706612Y-2351943I48384J0D01*
G03X8739111Y-2339404I0J48384D01*
G03X8771611Y-2351943I32499J35845D01*
G03X8819995Y-2303559I0J48384D01*
G01Y-2298294D01*
G01X8868020D01*
G03X8888891Y-2325230I30655J2198D01*
G01Y-2351981D01*
G03X8877461Y-2387600I49784J-35619D01*
G03X8938675Y-2448814I61214J0D01*
G01X8485002Y-2519455D02*
G03X8515736Y-2550189I30734J0D01*
G01X8602137D01*
G03X8632871Y-2519455I0J30734D01*
G01Y-2438808D01*
G03X8626373Y-2419909I-30734J0D01*
G01Y-2248510D01*
G03X8624974Y-2236788I-49784J0D01*
G01Y-2193460D01*
G03X8576589Y-2145076I-48384J0D01*
G03X8528205Y-2193460I0J-48384D01*
G01Y-2236788D01*
G03X8526805Y-2248510I48384J-11721D01*
G01Y-2408074D01*
G01X8515736D01*
G03X8485002Y-2438808I0J-30734D01*
G01Y-2519455D01*
G01X2402859Y-2757145D02*
G03X2433593Y-2787879I30734J0D01*
G01X2519994D01*
G03X2550728Y-2757145I0J30734D01*
G01Y-2676497D01*
G03X2520544Y-2645768I-30734J0D01*
G01Y-2595935D01*
G01X2532159D01*
G03X2580543Y-2547550I0J48384D01*
G03X2532159Y-2499166I-48384J0D01*
G01X2422060D01*
G03X2373676Y-2547550I0J-48384D01*
G03X2422060Y-2595935I48384J0D01*
G01X2433676D01*
G01Y-2645763D01*
G01X2433593D01*
G03X2402859Y-2676497I0J-30734D01*
G01Y-2757145D01*
G01X1828800Y-3574034D02*
G03X1897634Y-3505200I0J68834D01*
G03X1868745Y-3449142I-68834J0D01*
G03X1897634Y-3393084I-39945J56058D01*
G03X1865488Y-3334842I-68834J0D01*
G03X1897634Y-3276600I-36688J58242D01*
G03X1828800Y-3207766I-68834J0D01*
G03X1759966Y-3276600I0J-68834D01*
G03X1792112Y-3334842I68834J0D01*
G03X1759966Y-3393084I36688J-58242D01*
G03X1788855Y-3449142I68834J0D01*
G03X1759966Y-3505200I39945J-56058D01*
G03X1828800Y-3574034I68834J0D01*
G01X3148644Y-2959100D02*
G03X3209879Y-3020334I61234J0D01*
G03X3266048Y-2983484I0J61234D01*
G01X3380647D01*
G03X3416300Y-2994934I35653J49784D01*
G03X3477534Y-2933700I0J61234D01*
G03X3416300Y-2872466I-61234J0D01*
G03X3380647Y-2883916I0J-61234D01*
G01X3235279D01*
G03X3200076Y-2898497I0J-49784D01*
G01X3199887Y-2898687D01*
G03X3148644Y-2959100I9992J-60413D01*
G01X6667500Y-3337834D02*
G03X6728734Y-3276600I0J61234D01*
G03X6667500Y-3215366I-61234J0D01*
G03X6606266Y-3276600I0J-61234D01*
G03X6667500Y-3337834I61234J0D01*
G01X3304266Y-2184400D02*
G03X3365500Y-2245634I61234J0D01*
G03X3426734Y-2184400I0J61234D01*
G03X3365500Y-2123166I-61234J0D01*
G03X3304266Y-2184400I0J-61234D01*
G01X3505200Y-3362891D02*
G03X3566434Y-3301657I0J61234D01*
G03X3505200Y-3240423I-61234J0D01*
G03X3443966Y-3301657I0J-61234D01*
G03X3505200Y-3362891I61234J0D01*
G01X677852Y-3871214D02*
G03X739066Y-3810000I0J61214D01*
G03X677852Y-3748786I-61214J0D01*
G03X616638Y-3810000I0J-61214D01*
G03X677852Y-3871214I61214J0D01*
G01X3394235Y-2679700D02*
G03X3455449Y-2740914I61214J0D01*
G03X3516663Y-2679700I0J61214D01*
G03X3455449Y-2618486I-61214J0D01*
G03X3394235Y-2679700I0J-61214D01*
G01X2059686Y-3911600D02*
G03X2120900Y-3972814I61214J0D01*
G03X2182114Y-3911600I0J61214D01*
G03X2120900Y-3850386I-61214J0D01*
G03X2059686Y-3911600I0J-61214D01*
G01X2705100Y-3782314D02*
G03X2766314Y-3721100I0J61214D01*
G03X2705100Y-3659886I-61214J0D01*
G03X2643886Y-3721100I0J-61214D01*
G03X2705100Y-3782314I61214J0D01*
G01X266954Y-3066485D02*
G01X266954Y-2626303D01*
G01X1639570D01*
G01Y-3066485D01*
G01X266954D01*
G01X1649675Y-1854116D02*
G01X1649675Y-2278800D01*
G01X1323901D01*
G03X1282700Y-2262866I-41201J-45300D01*
G03X1241499Y-2278800I0J-61234D01*
G01X403860D01*
G01Y-1854116D01*
G01X470773D01*
G01X470691Y-1856357D01*
G01Y-1956357D01*
G03X501425Y-1987091I30734J0D01*
G01X576427D01*
G03X607161Y-1956357I0J30734D01*
G01Y-1856357D01*
G01X607079Y-1854116D01*
G01X1065105D01*
G03X1064769Y-1858648I30398J-4532D01*
G01Y-1958648D01*
G03X1095503Y-1989382I30734J0D01*
G01X1170504D01*
G03X1201238Y-1958648I0J30734D01*
G01Y-1858648D01*
G03X1200902Y-1854116I-30734J0D01*
G01X1649675D01*
G01X432852Y-1760895D02*
G01X432852Y-670560D01*
G01X1643790D01*
G01Y-1112065D01*
G03X1606555Y-1168400I23999J-56335D01*
G03X1643790Y-1224735I61234J0D01*
G01Y-1759966D01*
G01X1155700D01*
G01X538926D01*
G03X529989Y-1760895I0J-43434D01*
G01X432852D01*
G01X924560Y-4104640D02*
G01X924560Y-3522108D01*
G01X1018968Y-3427700D01*
G03X1066800Y-3447034I47832J49500D01*
G03X1123950Y-3416567I0J68834D01*
G03X1181100Y-3447034I57150J38367D01*
G03X1249934Y-3378200I0J68834D01*
G03X1219467Y-3321050I-68834J0D01*
G03X1249934Y-3263900I-38367J57150D01*
G03X1230600Y-3216068I-68834J0D01*
G01X1312308Y-3134360D01*
G01X1590040D01*
G01Y-3571240D01*
G01X1397000D01*
G03X1389816Y-3574216I0J-10160D01*
G01X1041413Y-3922619D01*
G03X1038437Y-3929803I7184J-7184D01*
G01Y-4104640D01*
G01X924560D01*
G01X1222439Y-4230865D02*
G01X1222439Y-4157632D01*
G03X1219463Y-4150448I-10160J0D01*
G01X1176631Y-4107616D01*
G03X1169446Y-4104640I-7184J-7184D01*
G01X1058757D01*
G01Y-3985260D01*
G01X1291192D01*
G01X1362868Y-4056937D01*
G01Y-4230865D01*
G01X1222439D01*
G01X1583565Y-4264660D02*
G01X1583565Y-4765040D01*
G01X1407160D01*
G01Y-4264660D01*
G01X1583565D01*
G01X1793240Y-4098880D02*
G01X1793240Y-4333240D01*
G01X1727636D01*
G01X1727638Y-4332891D01*
G01Y-4225690D01*
G03X1710690Y-4198221I-30734J0D01*
G01X1648460Y-4135992D01*
G01Y-4055618D01*
G01X1749987D01*
G01X1750426Y-4056066D01*
G01X1793240Y-4098880D01*
G01X1835342Y-4333240D02*
G01X1835342Y-4087358D01*
G03X1832366Y-4080174I-10160J0D01*
G01X1782318Y-4030125D01*
G01Y-3774236D01*
G01X1995465D01*
G01Y-4333240D01*
G01X1835342D01*
G01X2074308Y-1488440D02*
G01X1915160Y-1329292D01*
G01Y-314960D01*
G01X2459592D01*
G01X2583616Y-438984D01*
G03X2590800Y-441960I7184J7184D01*
G01X2948416D01*
G01X3212141Y-705684D01*
G03X3219325Y-708660I7184J7184D01*
G01X4257040D01*
G01Y-1247140D01*
G01X3708400D01*
G03X3701216Y-1250116I0J-10160D01*
G01X3685963Y-1265368D01*
G01X3271072D01*
G03X3263887Y-1268344I0J-10160D01*
G01X3043792Y-1488440D01*
G01X2074308D01*
G01X1936166Y-4655134D02*
G01X1936166Y-4397153D01*
G01X2044700D01*
G03X2054860Y-4386993I0J10160D01*
G01Y-4188460D01*
G01X2275840D01*
G01Y-4371066D01*
G01X2246540D01*
G03X2221849Y-4383499I0J-30734D01*
G03X2197100Y-4378706I-24749J-61501D01*
G03X2130806Y-4445000I0J-66294D01*
G03X2197100Y-4511294I66294J0D01*
G03X2221849Y-4506501I0J66294D01*
G03X2246540Y-4518934I24691J18301D01*
G01X2275840D01*
G01Y-4655134D01*
G01X1936166D01*
G01X2515464Y-4294866D02*
G03X2458300Y-4334147I0J-61234D01*
G01X2452471D01*
G01X2443712Y-4325388D01*
G03X2419399Y-4313140I-30712J-30712D01*
G03X2375764Y-4294866I-43635J-42960D01*
G03X2318600Y-4334147I0J-61234D01*
G01X2296160D01*
G01Y-4178300D01*
G03X2286000Y-4168140I-10160J0D01*
G01X2054860D01*
G01Y-4099560D01*
G01X2617174D01*
G03X2667000Y-4125214I49826J35560D01*
G03X2716826Y-4099560I0J61214D01*
G01X2809240D01*
G01Y-4334147D01*
G01X2630271D01*
G01X2621512Y-4325388D01*
G03X2590800Y-4312666I-30712J-30712D01*
G01X2558627D01*
G03X2515464Y-4294866I-43164J-43434D01*
G01X2889000Y-4259431D02*
G01X2829560Y-4318872D01*
G01Y-4089400D01*
G03X2819400Y-4079240I-10160J0D01*
G01X2812277D01*
G01X2915484Y-3976033D01*
G03X2918460Y-3968849I-7184J7184D01*
G01Y-3731034D01*
G01X2993001D01*
G03X3023735Y-3700300I0J30734D01*
G01Y-3640300D01*
G03X2993001Y-3609566I-30734J0D01*
G01X2918460D01*
G01Y-3528060D01*
G01X3056989D01*
G01Y-4091443D01*
G01X2913231Y-4235200D01*
G03X2889000Y-4259431I33169J-57400D01*
G01X2908300Y-4188714D02*
G03X2969514Y-4127500I0J61214D01*
G03X2908300Y-4066286I-61214J0D01*
G03X2847086Y-4127500I0J-61214D01*
G03X2908300Y-4188714I61214J0D01*
G01X3279140Y-4041735D02*
G03X3251642Y-4053840I10160J-60365D01*
G01X3107616D01*
G01Y-3680460D01*
G01X3279140D01*
G01Y-4041735D01*
G01X3349722Y-4111917D02*
G03X3350514Y-4102100I-60422J9817D01*
G03X3324860Y-4052274I-61214J0D01*
G01Y-3680371D01*
G01X3809446D01*
G01X3817620Y-3688545D01*
G01Y-4111917D01*
G01X3349722D01*
G01X3382772Y-4701623D02*
G01X3382772Y-4168477D01*
G01X3857367D01*
G01Y-4701623D01*
G01X3382772D01*
G01X3629660Y-2236422D02*
G01X3629660Y-1318260D01*
G01X4053840D01*
G01Y-1701800D01*
G03X4064000Y-1711960I10160J0D01*
G01X4231640D01*
G01Y-2236422D01*
G01X3629660D01*
G01X3877687Y-4701540D02*
G01X3877687Y-4248484D01*
G03X3924300Y-4270019I46613J39679D01*
G03X3985514Y-4208805I0J61214D01*
G03X3924300Y-4147591I-61214J0D01*
G03X3877687Y-4169126I0J-61214D01*
G01Y-3746302D01*
G03X3898900Y-3751834I21213J37902D01*
G01X4013200D01*
G03X4043912Y-3739112I0J43434D01*
G01X4191352Y-3591673D01*
G01X7069748D01*
G03X7073900Y-3591814I4152J61073D01*
G03X7078052Y-3591673I0J61214D01*
G01X9243840D01*
G01Y-4394539D01*
G03X9137396Y-4565650I84310J-171111D01*
G03X9194281Y-4701540I190754J0D01*
G01X5959700D01*
G03X5976155Y-4656214I-54200J45326D01*
G03X5905500Y-4585559I-70655J0D01*
G03X5834845Y-4656214I0J-70655D01*
G03X5851300Y-4701540I70655J0D01*
G01X3877687D01*
G01X4117086Y-4483100D02*
G03X4178300Y-4544314I61214J0D01*
G03X4239514Y-4483311I0J61214D01*
G01X4360549Y-4362276D01*
G03X4373270Y-4331564I-30712J30712D01*
G01Y-4201277D01*
G03X4397975Y-4183774I-3110J30576D01*
G01X4526289D01*
G03X4557002Y-4171052I0J43434D01*
G01X4601596Y-4126458D01*
G01X4610214D01*
G01X4815326Y-4331571D01*
G03X4846039Y-4344292I30712J30712D01*
G01X4978451D01*
G03X5006093Y-4361592I27642J13434D01*
G01X5176093D01*
G03X5206827Y-4330858I0J30734D01*
G01Y-4270858D01*
G03X5176093Y-4240124I-30734J0D01*
G01X5006093D01*
G03X4978451Y-4257424I0J-30734D01*
G01X4864030D01*
G01X4744269Y-4137664D01*
G03X4749800Y-4137914I5531J60964D01*
G03X4811014Y-4076700I0J61214D01*
G03X4749800Y-4015486I-61214J0D01*
G03X4699139Y-4042339I0J-61214D01*
G01Y-4025724D01*
G03X4668405Y-3994990I-30734J0D01*
G01X4543404D01*
G03X4512670Y-4025724I0J-30734D01*
G01Y-4092534D01*
G01X4508298Y-4096906D01*
G01X4400894D01*
G01Y-4084300D01*
G03X4370160Y-4053566I-30734J0D01*
G01X4361434D01*
G01Y-4036580D01*
G03X4378135Y-3994991I-43434J41589D01*
G01Y-3849291D01*
G03X4318000Y-3789157I-60134J0D01*
G03X4257866Y-3849291I0J-60134D01*
G01Y-3994991D01*
G03X4274566Y-4036580I60135J0D01*
G01Y-4057445D01*
G03X4258779Y-4084300I14947J-26855D01*
G01Y-4170700D01*
G03X4286402Y-4201277I30734J0D01*
G01Y-4313573D01*
G01X4178089Y-4421886D01*
G03X4117086Y-4483100I211J-61214D01*
G01X4178300Y-4264914D02*
G03X4239514Y-4203700I0J61214D01*
G03X4238831Y-4194583I-61214J0D01*
G03X4250221Y-4170700I-19344J23883D01*
G01Y-4084300D01*
G03X4234434Y-4057445I-30734J0D01*
G01Y-4036580D01*
G03X4251135Y-3994991I-43434J41589D01*
G01Y-3849291D01*
G03X4237976Y-3811749I-60134J0D01*
G01X4285191Y-3764534D01*
G01X4438282D01*
G01X4467121Y-3793373D01*
G03X4445000Y-3789157I-22121J-55918D01*
G03X4384866Y-3849291I0J-60134D01*
G01Y-3994991D01*
G03X4445000Y-4055125I60135J0D01*
G03X4505135Y-3994991I0J60135D01*
G01Y-3849291D01*
G03X4500918Y-3827170I-60134J0D01*
G01X4512670Y-3838922D01*
G01Y-3905732D01*
G03X4543404Y-3936466I30734J0D01*
G01X4668405D01*
G03X4697960Y-3914166I0J30734D01*
G01X4932241D01*
G01X4934966Y-3916891D01*
G01Y-4063172D01*
G03X4947688Y-4093884I43434J0D01*
G01X4981387Y-4127584D01*
G03X4975359Y-4145865I24706J-18281D01*
G01Y-4205865D01*
G03X5006093Y-4236599I30734J0D01*
G01X5176093D01*
G03X5206827Y-4205865I0J30734D01*
G01Y-4145865D01*
G03X5176093Y-4115131I-30734J0D01*
G01X5091784D01*
G01X5021834Y-4045181D01*
G01Y-3898900D01*
G03X5009112Y-3868188I-43434J0D01*
G01X4980945Y-3840020D01*
G03X4950232Y-3827298I-30712J-30712D01*
G01X4697960D01*
G03X4668405Y-3804998I-29554J-8434D01*
G01X4601596D01*
G01X4486986Y-3690388D01*
G03X4456273Y-3677666I-30713J-30712D01*
G01X4267200D01*
G03X4236488Y-3690388I0J-43434D01*
G01X4160288Y-3766588D01*
G03X4147566Y-3797300I30712J-30712D01*
G01Y-3807702D01*
G03X4130866Y-3849291I43434J-41589D01*
G01Y-3994991D01*
G03X4147566Y-4036580I60135J0D01*
G01Y-4053566D01*
G01X4138840D01*
G03X4108106Y-4084300I0J-30734D01*
G01Y-4170700D01*
G03X4117981Y-4193272I30734J0D01*
G03X4117086Y-4203700I60319J-10428D01*
G03X4178300Y-4264914I61214J0D01*
G01X5521084Y-4566606D02*
G03X5551818Y-4535872I0J30734D01*
G01Y-4435872D01*
G03X5521084Y-4405138I-30734J0D01*
G01X5241085D01*
G03X5210351Y-4435872I0J-30734D01*
G01Y-4535872D01*
G03X5241085Y-4566606I30734J0D01*
G01X5521084D01*
G01X5210351Y-4040876D02*
G03X5241085Y-4071610I30734J0D01*
G01X5521084D01*
G03X5551818Y-4040876I0J30734D01*
G01Y-3940877D01*
G03X5521084Y-3910143I-30734J0D01*
G01X5241085D01*
G03X5210351Y-3940877I0J-30734D01*
G01Y-4040876D01*
G01X4064000Y-4055125D02*
G03X4124135Y-3994991I0J60135D01*
G01Y-3849291D01*
G03X4064000Y-3789157I-60134J0D01*
G03X4003866Y-3849291I0J-60134D01*
G01Y-3994991D01*
G03X4064000Y-4055125I60135J0D01*
G01X5834845Y-4386186D02*
G03X5905500Y-4456841I70655J0D01*
G03X5976155Y-4386186I0J70655D01*
G03X5905500Y-4315531I-70655J0D01*
G03X5834845Y-4386186I0J-70655D01*
G01X7800066Y-4470400D02*
G03X7861300Y-4531634I61234J0D01*
G03X7922534Y-4470400I0J61234D01*
G03X7861300Y-4409166I-61234J0D01*
G03X7800066Y-4470400I0J-61234D01*
G01X7264400Y-4569734D02*
G03X7325634Y-4508500I0J61234D01*
G03X7264400Y-4447266I-61234J0D01*
G03X7203166Y-4508500I0J-61234D01*
G03X7264400Y-4569734I61234J0D01*
G01X6654800Y-4609010D02*
G03X6716014Y-4547796I0J61214D01*
G03X6654800Y-4486582I-61214J0D01*
G03X6593586Y-4547796I0J-61214D01*
G03X6654800Y-4609010I61214J0D01*
G01X6197600Y-4029812D02*
G03X6258814Y-3968598I0J61214D01*
G03X6197600Y-3907384I-61214J0D01*
G03X6136386Y-3968598I0J-61214D01*
G03X6197600Y-4029812I61214J0D01*
G01X4263534Y-2255266D02*
G01X4251960Y-2243692D01*
G01Y-1706008D01*
G01X4325184Y-1632784D01*
G03X4328160Y-1625600I-7184J7184D01*
G01Y-772160D01*
G01X4777740D01*
G01Y-2255266D01*
G01X4263534D01*
G01X5455307Y-3571353D02*
G03X5461212Y-3566413I-24807J35653D01*
G01X5473891Y-3553734D01*
G03X5534934Y-3492500I-191J61234D01*
G03X5473700Y-3431266I-61234J0D01*
G03X5412466Y-3492266I0J-61234D01*
G01X5076435D01*
G03X5103134Y-3441700I-34535J50566D01*
G03X5094936Y-3411093I-61234J0D01*
G01X5104435D01*
G03X5135147Y-3398371I0J43434D01*
G01X5238906Y-3294612D01*
G03X5251628Y-3263900I-30712J30712D01*
G01Y-3218164D01*
G03X5269428Y-3175000I-43434J43164D01*
G03X5208194Y-3113766I-61234J0D01*
G03X5163147Y-3133522I0J-61234D01*
G03X5118291Y-3113766I-45047J-41478D01*
G01X4965913Y-2961388D01*
G03X4935200Y-2948666I-30712J-30712D01*
G01X4531360D01*
G01Y-2854794D01*
G01X5078458D01*
G03X5046980Y-2908300I29736J-53506D01*
G03X5108194Y-2969514I61214J0D01*
G03X5169408Y-2908300I0J61214D01*
G03X5137930Y-2854794I-61214J0D01*
G01X5409569D01*
G01X5450566Y-2895791D01*
G03X5511800Y-2956834I61234J191D01*
G03X5573034Y-2895600I0J61234D01*
G03X5511991Y-2834366I-61234J0D01*
G01X5458272Y-2780647D01*
G03X5427560Y-2767926I-30712J-30712D01*
G01X4531360D01*
G01Y-2639060D01*
G01X4860733D01*
G03X4921098Y-2690114I60365J10160D01*
G03X4981463Y-2639060I0J61214D01*
G01X6154166D01*
G01Y-3571353D01*
G01X5455307D01*
G01X5905500Y-3503320D02*
G03X5966714Y-3442106I0J61214D01*
G03X5905500Y-3380892I-61214J0D01*
G03X5844286Y-3442106I0J-61214D01*
G03X5905500Y-3503320I61214J0D01*
G01X6078315Y-3210814D02*
G03X6139529Y-3149600I0J61214D01*
G03X6078315Y-3088386I-61214J0D01*
G03X6017101Y-3149600I0J-61214D01*
G03X6078315Y-3210814I61214J0D01*
G01X5964319Y-2263140D02*
G01X5964319Y-761601D01*
G01X6466840D01*
G01Y-1313628D01*
G03X6477000Y-1323788I10160J0D01*
G01X6909018D01*
G01Y-1701800D01*
G03X6919178Y-1711960I10160J0D01*
G01X7101840D01*
G01Y-2263140D01*
G01X5964319D01*
G01X8487208Y-600875D02*
G01X8487208Y-1539240D01*
G01X7840108D01*
G01X7563684Y-1262816D01*
G03X7556500Y-1259840I-7184J-7184D01*
G01X6525260D01*
G01Y-683260D01*
G01X7728115D01*
G03X7735299Y-680284I0J10160D01*
G01X7814708Y-600875D01*
G01X8487208D01*
G01X7652766Y-2717339D02*
G01X7652766Y-3550779D01*
G01X7549827D01*
G03X7592314Y-3492500I-18727J58279D01*
G03X7531100Y-3431286I-61214J0D01*
G03X7469886Y-3492500I0J-61214D01*
G03X7512373Y-3550779I61214J0D01*
G01X7422827D01*
G03X7465314Y-3492500I-18727J58279D01*
G03X7404100Y-3431286I-61214J0D01*
G03X7342886Y-3492500I0J-61214D01*
G03X7385373Y-3550779I61214J0D01*
G01X7295827D01*
G03X7338314Y-3492500I-18727J58279D01*
G03X7277100Y-3431286I-61214J0D01*
G03X7215886Y-3492500I0J-61214D01*
G03X7258373Y-3550779I61214J0D01*
G01X7131692D01*
G03X7134289Y-3540616I-57792J20179D01*
G01X7629803Y-3045103D01*
G03X7644384Y-3009900I-35203J35203D01*
G01Y-2725721D01*
G01X7652766Y-2717339D01*
G01X7693660Y-3571353D02*
G01X7693660Y-3160135D01*
G03X7759700Y-3199384I66040J35935D01*
G03X7834884Y-3124200I0J75184D01*
G03X7759700Y-3049016I-75184J0D01*
G03X7693660Y-3088265I0J-75184D01*
G01Y-2689860D01*
G01X8492173D01*
G03X8515736Y-2700862I23563J19732D01*
G01X8602137D01*
G03X8625700Y-2689860I0J30734D01*
G01X9222740D01*
G01Y-3571353D01*
G01X7693660D01*
G01X8149316Y-2851601D02*
G03X8210530Y-2912815I61214J0D01*
G03X8271744Y-2851601I0J61214D01*
G03X8248707Y-2803750I-61214J0D01*
G03X8271744Y-2755900I-38177J47850D01*
G03X8210530Y-2694686I-61214J0D01*
G03X8149316Y-2755900I0J-61214D01*
G03X8172353Y-2803750I61214J0D01*
G03X8149316Y-2851601I38177J-47850D01*
G01X8760750Y-2982234D02*
G03X8821984Y-2921000I0J61234D01*
G03X8760750Y-2859766I-61234J0D01*
G03X8699515Y-2921000I0J-61234D01*
G03X8760750Y-2982234I61234J0D01*
G01X8823960Y-1523810D02*
G01X8823960Y-606637D01*
G01X9489440D01*
G01Y-1216295D01*
G01X9317430D01*
G03X9310245Y-1219271I0J-10160D01*
G01X9086016Y-1443500D01*
G03X9083040Y-1450685I7184J-7184D01*
G01Y-1523810D01*
G01X8823960D01*
G04 Copper End*

G04 Pad Start*
G54D10*
G01X2705100Y-787400D03*
G01X2705100Y-279400D03*
G01X2705100Y-1333500D03*
G01X2705100Y-1841500D03*
G01X8089900Y-787400D03*
G01X8089900Y-279400D03*
G01X8089900Y-1333500D03*
G01X8089900Y-1841500D03*
G54D11*
G01X538926Y-1906357D03*
G01X665926Y-1906357D03*
G01X792926Y-1906357D03*
G01X919926Y-1906357D03*
G54D12*
G01X729426Y-1531356D03*
G54D13*
G01X563088Y-3319535D03*
G01X563088Y-2819536D03*
G54D15*
G01X965200Y-897699D03*
G01X965200Y-397700D03*
G54D13*
G01X9296400Y-1528000D03*
G01X9296400Y-1028001D03*
G54D16*
G01X1891690Y-2547550D03*
G01X1891690Y-2482526D03*
G01X1891690Y-2417528D03*
G01X1891690Y-2352529D03*
G01X2477110Y-2547550D03*
G01X2477110Y-2482526D03*
G01X2477110Y-2417528D03*
G01X2477110Y-2352529D03*
G54D17*
G01X2254098Y-2197100D03*
G01X2114093Y-2197100D03*
G54D18*
G01X1440959Y-2156137D03*
G01X1440959Y-2769395D03*
G01X977900Y-2157171D03*
G01X977900Y-2770429D03*
G54D19*
G01X3181858Y-3962400D03*
G01X3500374Y-3962400D03*
G54D20*
G01X3739998Y-4051300D03*
G01X3739998Y-4191305D03*
G54D21*
G01X3498342Y-4279900D03*
G01X3179826Y-4279900D03*
G54D22*
G01X4064000Y-3367659D03*
G01X4191000Y-3367659D03*
G01X4318000Y-3367659D03*
G01X4445000Y-3367659D03*
G01X4064000Y-3922141D03*
G01X4191000Y-3922141D03*
G01X4318000Y-3922141D03*
G01X4445000Y-3922141D03*
G54D23*
G01X4184498Y-3124200D03*
G01X4324502Y-3124200D03*
G54D24*
G01X4179164Y-4127500D03*
G01X4329836Y-4127500D03*
G54D25*
G01X4605905Y-4060724D03*
G01X4605905Y-3870732D03*
G01X4805905Y-3965728D03*
G54D26*
G01X2767736Y-4445000D03*
G01X2617064Y-4445000D03*
G54D24*
G01X2286864Y-4445000D03*
G01X2437536Y-4445000D03*
G54D27*
G01X3809091Y-3397933D03*
G01X6845191Y-3396413D03*
G54D28*
G01X2476793Y-2867494D03*
G01X2476793Y-2716821D03*
G54D20*
G01X2641893Y-2722155D03*
G01X2641893Y-2862160D03*
G54D11*
G01X1133003Y-1908648D03*
G01X1260003Y-1908648D03*
G01X1387003Y-1908648D03*
G01X1514003Y-1908648D03*
G54D12*
G01X1323503Y-1533647D03*
G54D29*
G01X8953790Y-835690D03*
G01X8340532Y-835690D03*
G01X8953790Y-1292248D03*
G01X8340532Y-1292248D03*
G54D30*
G01X8576589Y-1663090D03*
G01X8641613Y-1663090D03*
G01X8706612Y-1663090D03*
G01X8771611Y-1663090D03*
G01X8576589Y-2248510D03*
G01X8641613Y-2248510D03*
G01X8706612Y-2248510D03*
G01X8771611Y-2248510D03*
G54D23*
G01X8938675Y-2251095D03*
G01X9078680Y-2251095D03*
G54D28*
G01X8558936Y-2629804D03*
G01X8558936Y-2479131D03*
G54D20*
G01X8734490Y-2477343D03*
G01X8734490Y-2617348D03*
G54D31*
G01X5091093Y-4175865D03*
G01X5091093Y-4300858D03*
G54D32*
G01X5381085Y-3990876D03*
G01X5381085Y-4485872D03*
G54D33*
G01X1670304Y-4279290D03*
G01X1765300Y-4279290D03*
G01X1860296Y-4279290D03*
G01X1860296Y-4509110D03*
G01X1765300Y-4509110D03*
G01X1670304Y-4509110D03*
G54D17*
G01X1835302Y-3873500D03*
G01X1695298Y-3873500D03*
G01X1678389Y-4710664D03*
G01X1538384Y-4710664D03*
G54D26*
G01X2437536Y-4610100D03*
G01X2286864Y-4610100D03*
G01X2767736Y-4610100D03*
G01X2617064Y-4610100D03*
G54D34*
G01X2679700Y-3891026D03*
G01X2679700Y-4209542D03*
G01X2425700Y-3891026D03*
G01X2425700Y-4209542D03*
G54D35*
G01X2933002Y-3765296D03*
G01X2933002Y-3670300D03*
G01X2933002Y-3575304D03*
G01X3162999Y-3575304D03*
G01X3162999Y-3765296D03*
G54D36*
G01X501650Y-273050D03*
G01X9328150Y-4565650D03*
G01X9328150Y-273050D03*
G01X508000Y-4572000D03*
G04 Pad End*

G04 Via Start*
G54D37*
G01X2616200Y-2482526D03*
G01X1739900Y-2349500D03*
G01X1828800Y-2171700D03*
G01X1667789Y-1168400D03*
G01X3365500Y-2184400D03*
G54D38*
G01X4229100Y-1587500D03*
G54D37*
G01X3416300Y-2933700D03*
G01X3209879Y-2959100D03*
G01X7251700Y-2692400D03*
G01X6667500Y-3276600D03*
G01X6388100Y-3009900D03*
G01X6261100Y-3149600D03*
G01X6261100Y-2501900D03*
G01X7162800Y-2755797D03*
G01X7493000Y-2768600D03*
G01X7594600Y-3352800D03*
G01X3213100Y-2590800D03*
G01X3060700Y-3111500D03*
G54D38*
G01X3683000Y-2197100D03*
G54D37*
G01X6769100Y-2552700D03*
G01X6505878Y-2654300D03*
G01X7590135Y-2044700D03*
G01X7073900Y-1905000D03*
G01X8760750Y-2921000D03*
G01X7861300Y-4470400D03*
G01X5511800Y-2895600D03*
G01X2641600Y-2641600D03*
G01X2114093Y-2349500D03*
G01X1282700Y-2324100D03*
G01X7264400Y-4508500D03*
G01X1993900Y-1651000D03*
G01X4178300Y-2933700D03*
G01X4406900Y-2933700D03*
G01X546100Y-1246236D03*
G01X546100Y-1147176D03*
G01X546100Y-1048116D03*
G01X546100Y-949056D03*
G01X546100Y-849996D03*
G01X546100Y-750936D03*
G01X630937Y-949056D03*
G01X630937Y-849996D03*
G01X630937Y-750936D03*
G01X2679700Y-3098800D03*
G01X5473700Y-3492500D03*
G01X3988664Y-2628900D03*
G01X4584700Y-3213100D03*
G01X5208194Y-3175000D03*
G01X5118100Y-3175000D03*
G01X3975100Y-3640324D03*
G01X3581400Y-3470991D03*
G01X3505200Y-3301657D03*
G01X5041900Y-3441700D03*
G01X4711700Y-3441700D03*
G01X5016500Y-3302000D03*
G01X2515464Y-4356100D03*
G01X2375764Y-4356100D03*
G54D39*
G01X3962400Y-3429000D03*
G01X5358206Y-3746500D03*
G01X3575050Y-4489210D03*
G01X3721100Y-4489210D03*
G01X3429000Y-4489210D03*
G01X3575050Y-4590810D03*
G01X3721100Y-4590810D03*
G01X3429000Y-4590810D03*
G01X9017000Y-4203700D03*
G01X8890000Y-4203700D03*
G01X9144000Y-4203700D03*
G01X8509000Y-4343400D03*
G01X8636000Y-4343400D03*
G01X8636000Y-4203700D03*
G01X8509000Y-4203700D03*
G01X8763000Y-4203700D03*
G01X8763000Y-4343400D03*
G01X8509000Y-4622800D03*
G01X8636000Y-4622800D03*
G01X8636000Y-4483100D03*
G01X8509000Y-4483100D03*
G01X8763000Y-4483100D03*
G01X8763000Y-4622800D03*
G01X8890000Y-4076700D03*
G01X9017000Y-4076700D03*
G01X9017000Y-3937000D03*
G01X8890000Y-3937000D03*
G01X9144000Y-3937000D03*
G01X9144000Y-4076700D03*
G01X7277100Y-4051300D03*
G01X7404100Y-4051300D03*
G01X7404100Y-3911600D03*
G01X7277100Y-3911600D03*
G01X7531100Y-3911600D03*
G01X7531100Y-4051300D03*
G01X6921500Y-4597400D03*
G01X6921500Y-4457700D03*
G01X7048500Y-4457700D03*
G01X7048500Y-4597400D03*
G01X6667500Y-4330700D03*
G01X6794500Y-4330700D03*
G01X6794500Y-4191000D03*
G01X6667500Y-4191000D03*
G01X6921500Y-4191000D03*
G01X6921500Y-4330700D03*
G01X5092700Y-4597400D03*
G01X5219700Y-4597400D03*
G01X5346700Y-4597400D03*
G01X4965700Y-4597400D03*
G01X6210300Y-3657600D03*
G01X6337300Y-3657600D03*
G01X6464300Y-3657600D03*
G01X6083300Y-3657600D03*
G01X7277100Y-3632200D03*
G01X7277100Y-3492500D03*
G01X7404100Y-3632200D03*
G01X7404100Y-3492500D03*
G01X7531100Y-3492500D03*
G01X7531100Y-3632200D03*
G01X7759700Y-2895600D03*
G01X7759700Y-2755900D03*
G01X7886700Y-2895600D03*
G01X7886700Y-2755900D03*
G01X8013700Y-2755900D03*
G01X8013700Y-2895600D03*
G01X8953500Y-2730500D03*
G01X8826500Y-2730500D03*
G01X8699500Y-2730500D03*
G54D38*
G01X1245169Y-732066D03*
G01X1245169Y-831126D03*
G01X1245169Y-930186D03*
G01X1243271Y-358812D03*
G01X1243271Y-475906D03*
G01X1245169Y-593948D03*
G01X2230756Y-691503D03*
G01X2230756Y-564503D03*
G01X2230756Y-437503D03*
G01X2370456Y-437503D03*
G01X2370456Y-564503D03*
G01X2370456Y-691503D03*
G01X2235200Y-1130300D03*
G01X2235200Y-1003300D03*
G01X2235200Y-876300D03*
G01X2374900Y-876300D03*
G01X2374900Y-1003300D03*
G01X2374900Y-1130300D03*
G01X2374900Y-1422400D03*
G01X2247900Y-1422400D03*
G01X2120900Y-1422400D03*
G01X2120900Y-1282700D03*
G01X2247900Y-1282700D03*
G01X2374900Y-1282700D03*
G01X2908300Y-901700D03*
G01X2908300Y-774700D03*
G01X2908300Y-647700D03*
G01X3048000Y-647700D03*
G01X3048000Y-774700D03*
G01X3048000Y-901700D03*
G01X2908300Y-1320800D03*
G01X2908300Y-1193800D03*
G01X2908300Y-1066800D03*
G01X3048000Y-1066800D03*
G01X3048000Y-1193800D03*
G01X3048000Y-1320800D03*
G54D39*
G01X6464300Y-3365500D03*
G01X5346700Y-2679700D03*
G01X5473700Y-2679700D03*
G01X5600700Y-2679700D03*
G01X5108194Y-2908300D03*
G01X6337300Y-3530600D03*
G01X6464300Y-3530600D03*
G01X6210300Y-3530600D03*
G01X6083300Y-3530600D03*
G01X5892800Y-3352800D03*
G01X5892800Y-3606800D03*
G01X3365500Y-3709186D03*
G01X3485773Y-3708400D03*
G01X3365500Y-3822700D03*
G01X3485773Y-3821914D03*
G01X3619500Y-3708400D03*
G01X3739773Y-3707614D03*
G01X3619500Y-3822700D03*
G01X3739773Y-3821914D03*
G01X3365500Y-4013200D03*
G01X2120900Y-3911600D03*
G01X6197600Y-3968598D03*
G01X6654800Y-4547796D03*
G01X4575242Y-4191000D03*
G01X4699000Y-3784294D03*
G01X4749800Y-4076700D03*
G01X8210530Y-2755900D03*
G01X8210530Y-2851601D03*
G01X2336800Y-2417528D03*
G01X1732788Y-2247900D03*
G01X3924300Y-4208805D03*
G01X2908300Y-4127500D03*
G54D40*
G01X7759700Y-3124200D03*
G54D39*
G01X5061102Y-2641600D03*
G01X3455449Y-2679700D03*
G01X2971410Y-3035690D03*
G54D38*
G01X4433545Y-1070590D03*
G01X4433545Y-1184890D03*
G01X4433545Y-1302015D03*
G01X4694436Y-1070590D03*
G01X4694436Y-1184890D03*
G01X4694436Y-1302015D03*
G01X4563991Y-1302015D03*
G01X4563991Y-1184890D03*
G01X4563991Y-1070590D03*
G01X4433192Y-1723871D03*
G01X4433192Y-1606745D03*
G01X4433192Y-1492445D03*
G01X4563637Y-1492445D03*
G01X4563637Y-1606745D03*
G01X4563637Y-1723871D03*
G01X4694083Y-1723871D03*
G01X4694083Y-1606745D03*
G01X4694083Y-1492445D03*
G01X4434605Y-2177369D03*
G01X4434605Y-2060243D03*
G01X4434605Y-1945943D03*
G01X4565050Y-1945943D03*
G01X4565050Y-2060243D03*
G01X4565050Y-2177369D03*
G01X4695496Y-2177369D03*
G01X4695496Y-2060243D03*
G01X4695496Y-1945943D03*
G01X3828528Y-2109203D03*
G01X3828528Y-1992077D03*
G01X3828528Y-1877777D03*
G01X3958974Y-1877777D03*
G01X3958974Y-1992077D03*
G01X3958974Y-2109203D03*
G01X4089419Y-2109203D03*
G01X4089419Y-1992077D03*
G01X4089419Y-1877777D03*
G01X3702792Y-1523173D03*
G01X3833237Y-1523173D03*
G01X3833237Y-1637473D03*
G01X3702792Y-1637473D03*
G01X6063038Y-1064465D03*
G01X6323929Y-1064465D03*
G01X6193484Y-1064465D03*
G01X6063038Y-1178765D03*
G01X6323929Y-1178765D03*
G01X6193484Y-1178765D03*
G01X6063038Y-1295891D03*
G01X6323929Y-1295891D03*
G01X6193484Y-1295891D03*
G01X6062685Y-1717746D03*
G01X6193130Y-1717746D03*
G01X6323576Y-1717746D03*
G01X6064098Y-2171244D03*
G01X6064098Y-2054119D03*
G01X6064098Y-1939819D03*
G01X6194543Y-1939819D03*
G01X6194543Y-2054119D03*
G01X6194543Y-2171244D03*
G01X6324989Y-2171244D03*
G01X6324989Y-2054119D03*
G01X6324989Y-1939819D03*
G01X6323576Y-1600621D03*
G01X6323576Y-1486321D03*
G01X6062685Y-1600621D03*
G01X6062685Y-1486321D03*
G01X6193130Y-1486321D03*
G01X6193130Y-1600621D03*
G01X6671366Y-1893879D03*
G01X6932257Y-1893879D03*
G01X6801812Y-1893879D03*
G01X6671366Y-2008179D03*
G01X6932257Y-2008179D03*
G01X6801812Y-2008179D03*
G01X6671366Y-2125305D03*
G01X6932257Y-2125305D03*
G01X6801812Y-2125305D03*
G01X6679137Y-918364D03*
G01X6940028Y-918364D03*
G01X6809582Y-918364D03*
G01X6679137Y-1032664D03*
G01X6940028Y-1032664D03*
G01X6809582Y-1032664D03*
G01X6679137Y-1149790D03*
G01X6940028Y-1149790D03*
G01X6809582Y-1149790D03*
G54D39*
G01X3822700Y-177800D03*
G01X3822700Y-292100D03*
G01X3822700Y-409225D03*
G01X3953146Y-409225D03*
G01X3953146Y-292100D03*
G01X3953146Y-177800D03*
G01X4083591Y-177800D03*
G01X4083591Y-292100D03*
G01X4083591Y-409225D03*
G01X4229100Y-177800D03*
G01X4229100Y-292100D03*
G01X4229100Y-409225D03*
G01X4359546Y-409225D03*
G01X4359546Y-292100D03*
G01X4359546Y-177800D03*
G01X4489991Y-177800D03*
G01X4489991Y-292100D03*
G01X4489991Y-409225D03*
G01X4622800Y-177800D03*
G01X4622800Y-292100D03*
G01X4622800Y-409225D03*
G01X4753246Y-409225D03*
G01X4753246Y-292100D03*
G01X4753246Y-177800D03*
G01X4883691Y-177800D03*
G01X4883691Y-292100D03*
G01X4883691Y-409225D03*
G01X5969000Y-177800D03*
G01X5969000Y-292100D03*
G01X5969000Y-409225D03*
G01X6099446Y-409225D03*
G01X6099446Y-292100D03*
G01X6099446Y-177800D03*
G01X6229891Y-177800D03*
G01X6229891Y-292100D03*
G01X6229891Y-409225D03*
G01X6375400Y-177800D03*
G01X6375400Y-292100D03*
G01X6375400Y-409225D03*
G01X6505846Y-409225D03*
G01X6505846Y-292100D03*
G01X6505846Y-177800D03*
G01X6636291Y-177800D03*
G01X6636291Y-292100D03*
G01X6636291Y-409225D03*
G01X6781800Y-177800D03*
G01X6781800Y-292100D03*
G01X6781800Y-409225D03*
G01X6912246Y-409225D03*
G01X6912246Y-292100D03*
G01X6912246Y-177800D03*
G01X7042691Y-177800D03*
G01X7042691Y-292100D03*
G01X7042691Y-409225D03*
G54D38*
G01X1308599Y-2750495D03*
G01X1308599Y-2864795D03*
G01X1308599Y-2981920D03*
G01X1439044Y-2981920D03*
G01X1439044Y-2864795D03*
G01X1439044Y-2750495D03*
G01X1569490Y-2750495D03*
G01X1569490Y-2864795D03*
G01X1569490Y-2981920D03*
G01X855101Y-2750495D03*
G01X855101Y-2864795D03*
G01X855101Y-2981920D03*
G01X985546Y-2981920D03*
G01X985546Y-2864795D03*
G01X985546Y-2750495D03*
G01X1115992Y-2750495D03*
G01X1115992Y-2864795D03*
G01X1115992Y-2981920D03*
G54D39*
G01X2667000Y-4064000D03*
G01X3289300Y-4102100D03*
G01X2705100Y-3721100D03*
G01X4559300Y-3060700D03*
G01X4114800Y-3517900D03*
G01X4921098Y-2628900D03*
G01X6078315Y-3149600D03*
G01X2908300Y-1612900D03*
G01X3038746Y-1612900D03*
G01X3169191Y-1612900D03*
G01X3169191Y-1727200D03*
G01X3038746Y-1727200D03*
G01X2908300Y-1727200D03*
G01X2908300Y-1844325D03*
G01X3038746Y-1844325D03*
G01X3169191Y-1844325D03*
G01X2908300Y-1993900D03*
G01X3038746Y-1993900D03*
G01X3169191Y-1993900D03*
G01X3169191Y-2108200D03*
G01X3038746Y-2108200D03*
G01X2908300Y-2108200D03*
G01X2619646Y-1993900D03*
G01X2750091Y-1993900D03*
G01X2750091Y-2108200D03*
G01X1854200Y-2832100D03*
G01X1984646Y-2832100D03*
G01X2115091Y-2832100D03*
G01X2115091Y-2946400D03*
G01X1984646Y-2946400D03*
G01X1854200Y-2946400D03*
G01X1854200Y-3063525D03*
G01X1984646Y-3063525D03*
G01X2115091Y-3063525D03*
G01X368300Y-2377725D03*
G01X498746Y-2377725D03*
G01X629191Y-2377725D03*
G01X7772400Y-2044700D03*
G01X7902846Y-2044700D03*
G01X8033291Y-2044700D03*
G01X8033291Y-2159000D03*
G01X7902846Y-2159000D03*
G01X7772400Y-2159000D03*
G01X7772400Y-2276125D03*
G01X7902846Y-2276125D03*
G01X8033291Y-2276125D03*
G01X8153400Y-2044700D03*
G01X8283846Y-2044700D03*
G01X8414291Y-2044700D03*
G01X8414291Y-2159000D03*
G01X8283846Y-2159000D03*
G01X8153400Y-2159000D03*
G01X8153400Y-2276125D03*
G01X8283846Y-2276125D03*
G01X8414291Y-2276125D03*
G01X7772400Y-2400300D03*
G01X7902846Y-2400300D03*
G01X8033291Y-2400300D03*
G01X8033291Y-2514600D03*
G01X7902846Y-2514600D03*
G01X7772400Y-2514600D03*
G01X8153400Y-2400300D03*
G01X8283846Y-2400300D03*
G01X8414291Y-2400300D03*
G01X8414291Y-2514600D03*
G01X8283846Y-2514600D03*
G01X8153400Y-2514600D03*
G01X7607300Y-1625600D03*
G01X7737746Y-1625600D03*
G01X7868191Y-1625600D03*
G01X7868191Y-1739900D03*
G01X7737746Y-1739900D03*
G01X7607300Y-1739900D03*
G01X7607300Y-1857025D03*
G01X7737746Y-1857025D03*
G01X7868191Y-1857025D03*
G01X8382000Y-152400D03*
G01X8512446Y-152400D03*
G01X8642891Y-152400D03*
G01X8642891Y-266700D03*
G01X8512446Y-266700D03*
G01X8382000Y-266700D03*
G01X8382000Y-383825D03*
G01X8512446Y-383825D03*
G01X8642891Y-383825D03*
G01X7632700Y-152400D03*
G01X7763146Y-152400D03*
G01X7893591Y-152400D03*
G01X7893591Y-266700D03*
G01X7763146Y-266700D03*
G01X7632700Y-266700D03*
G01X7632700Y-383825D03*
G01X7763146Y-383825D03*
G01X7893591Y-383825D03*
G01X7200900Y-152400D03*
G01X7331346Y-152400D03*
G01X7461791Y-152400D03*
G01X7461791Y-266700D03*
G01X7331346Y-266700D03*
G01X7200900Y-266700D03*
G01X7200900Y-383825D03*
G01X7331346Y-383825D03*
G01X7461791Y-383825D03*
G01X3214586Y-101600D03*
G01X3345032Y-101600D03*
G01X3475477Y-101600D03*
G01X3475477Y-215900D03*
G01X3345032Y-215900D03*
G01X3214586Y-215900D03*
G01X3214586Y-333025D03*
G01X3345032Y-333025D03*
G01X3475477Y-333025D03*
G01X2369091Y-88900D03*
G01X2238646Y-88900D03*
G01X2108200Y-88900D03*
G01X2108200Y-206025D03*
G01X2238646Y-206025D03*
G01X2369091Y-206025D03*
G01X1886491Y-88900D03*
G01X1756046Y-88900D03*
G01X1625600Y-88900D03*
G01X1625600Y-206025D03*
G01X1756046Y-206025D03*
G01X1886491Y-206025D03*
G01X362491Y-685800D03*
G01X362491Y-800100D03*
G01X362491Y-917225D03*
G01X362491Y-1021455D03*
G01X362491Y-1135755D03*
G01X362491Y-1252881D03*
G01X362491Y-1358900D03*
G01X362491Y-1473200D03*
G01X362491Y-1590325D03*
G01X5537200Y-3416300D03*
G01X5410200Y-3416300D03*
G01X5283200Y-3416300D03*
G01X5283200Y-3302000D03*
G01X5410200Y-3302000D03*
G01X5537200Y-3302000D03*
G01X5410200Y-3644900D03*
G01X5283200Y-3644900D03*
G01X5537200Y-3644900D03*
G54D37*
G01X2247900Y-1968500D03*
G54D39*
G01X1930400Y-1778000D03*
G01X2060846Y-1778000D03*
G01X2060846Y-1892300D03*
G01X1930400Y-1892300D03*
G01X368300Y-2489200D03*
G01X498746Y-2489200D03*
G01X629191Y-2489200D03*
G01X774700Y-2374900D03*
G01X905146Y-2374900D03*
G01X1035591Y-2374900D03*
G01X774700Y-2489200D03*
G01X905146Y-2489200D03*
G01X1035591Y-2489200D03*
G01X431800Y-2044700D03*
G01X548798Y-2044700D03*
G01X665796Y-2044700D03*
G01X782794Y-2044700D03*
G01X431800Y-2171700D03*
G01X548798Y-2171700D03*
G01X665796Y-2171700D03*
G01X782794Y-2171700D03*
G01X1714500Y-1752600D03*
G01X330200Y-1841500D03*
G01X8938675Y-2387600D03*
G01X9194800Y-2251095D03*
G01X8839200Y-2477343D03*
G01X7073900Y-3530600D03*
G01X5905500Y-3442106D03*
G01X8837889Y-1663090D03*
G01X8851900Y-736600D03*
G01X8997950Y-736600D03*
G01X9144000Y-736600D03*
G01X9144000Y-1107032D03*
G01X8851900Y-1107032D03*
G01X8997950Y-1107032D03*
G01X9144000Y-921816D03*
G01X8851900Y-921816D03*
G01X8997950Y-921816D03*
G01X9144000Y-1292248D03*
G01X8851900Y-1292248D03*
G01X8997950Y-1292248D03*
G01X9271000Y-736600D03*
G01X9417050Y-736600D03*
G54D38*
G01X7819707Y-823662D03*
G01X7819707Y-954107D03*
G01X7934007Y-954107D03*
G01X7934007Y-823662D03*
G01X7819707Y-693217D03*
G01X7934007Y-693217D03*
G01X7823200Y-1228455D03*
G01X7823200Y-1358900D03*
G01X7937500Y-1358900D03*
G01X7937500Y-1228455D03*
G01X7823200Y-1098009D03*
G01X7937500Y-1098009D03*
G01X8299268Y-1227068D03*
G01X8299268Y-1357513D03*
G01X8413568Y-1357513D03*
G01X8413568Y-1227068D03*
G01X8299268Y-1096622D03*
G01X8413568Y-1096622D03*
G01X8299268Y-821319D03*
G01X8299268Y-951764D03*
G01X8413568Y-951764D03*
G01X8413568Y-821319D03*
G01X8299268Y-690873D03*
G01X8413568Y-690873D03*
G01X7579123Y-997381D03*
G01X7579123Y-1127826D03*
G01X7693423Y-1127826D03*
G01X7693423Y-997381D03*
G01X7579123Y-866935D03*
G01X7693423Y-866935D03*
G01X7305776Y-1008770D03*
G01X7305776Y-1139215D03*
G01X7420076Y-1139215D03*
G01X7420076Y-1008770D03*
G01X7305776Y-878324D03*
G01X7420076Y-878324D03*
G54D39*
G01X8999848Y-1447904D03*
G01X8853798Y-1447904D03*
G01X2798144Y-2503983D03*
G01X2798144Y-2389683D03*
G01X2928589Y-2389683D03*
G01X2928589Y-2503983D03*
G01X2798144Y-2727501D03*
G01X2798144Y-2613201D03*
G01X2928589Y-2613201D03*
G01X2928589Y-2727501D03*
G01X9493933Y-4164789D03*
G01X9366933Y-4164789D03*
G01X9498204Y-3754769D03*
G01X9371204Y-3754769D03*
G01X9371204Y-3894469D03*
G01X9498204Y-3894469D03*
G01X9498204Y-4021469D03*
G01X9371204Y-4021469D03*
G01X9496780Y-3341902D03*
G01X9369780Y-3341902D03*
G01X9369780Y-3481602D03*
G01X9496780Y-3481602D03*
G01X9496780Y-3608602D03*
G01X9369780Y-3608602D03*
G01X9498204Y-2886324D03*
G01X9371204Y-2886324D03*
G01X9371204Y-3026024D03*
G01X9498204Y-3026024D03*
G01X9498204Y-3153024D03*
G01X9371204Y-3153024D03*
G01X9496780Y-2453525D03*
G01X9369780Y-2453525D03*
G01X9369780Y-2593225D03*
G01X9496780Y-2593225D03*
G01X9496780Y-2720225D03*
G01X9369780Y-2720225D03*
G01X9496780Y-2026421D03*
G01X9369780Y-2026421D03*
G01X9369780Y-2166121D03*
G01X9496780Y-2166121D03*
G01X9496780Y-2293121D03*
G01X9369780Y-2293121D03*
G54D38*
G01X4089419Y-1145925D03*
G01X3828528Y-914500D03*
G01X3958974Y-914500D03*
G01X3828528Y-1145925D03*
G01X3828528Y-1028800D03*
G01X3958974Y-1028800D03*
G01X3958974Y-1145925D03*
G01X4089419Y-1028800D03*
G01X4089419Y-914500D03*
G54D39*
G01X952500Y-4013200D03*
G01X1016000Y-4013200D03*
G01X952500Y-4076700D03*
G01X1016000Y-4076700D03*
G54D38*
G01X1498498Y-3352800D03*
G01X1498498Y-3238500D03*
G01X1498498Y-3469925D03*
G01X1333500Y-3378200D03*
G01X1333500Y-3263900D03*
G01X1333500Y-3495325D03*
G54D39*
G01X1282971Y-4111638D03*
G01X1282971Y-4032305D03*
G01X677852Y-3810000D03*
G01X749300Y-4584700D03*
G01X812800Y-4178300D03*
G54D38*
G01X1460602Y-4549425D03*
G01X1460602Y-4432300D03*
G01X1460602Y-4318000D03*
G01X1931416Y-3721100D03*
G01X1930400Y-4007358D03*
G01X1930392Y-3866860D03*
G01X2120900Y-4216400D03*
G01X2235200Y-4216400D03*
G01X2120900Y-4318000D03*
G01X2235200Y-4318000D03*
G01X1981200Y-4432300D03*
G01X1981200Y-4584700D03*
G01X2946400Y-4292600D03*
G01X2197100Y-4445000D03*
G54D41*
G01X1828800Y-3505200D03*
G01X1828800Y-3276600D03*
G01X1828800Y-3393084D03*
G01X1333500Y-3784600D03*
G01X1447800Y-3784600D03*
G01X1447800Y-3911600D03*
G01X1333500Y-3911600D03*
G01X1066800Y-3378200D03*
G01X1066800Y-3149600D03*
G01X1181100Y-3149600D03*
G01X1181100Y-3263900D03*
G01X1066800Y-3263900D03*
G01X1181100Y-3378200D03*
G54D39*
G01X4178300Y-4203700D03*
G01X4178300Y-4483100D03*
G01X1689100Y-4152900D03*
G01X1765300Y-4152900D03*
G01X1765300Y-4232300D03*
G54D41*
G01X355600Y-4191000D03*
G01X495300Y-4191000D03*
G01X495300Y-4305300D03*
G01X355600Y-4305300D03*
G04 Via End*

G04 Track Start*
G54D42*
G01X1891690Y-2417528D02*
G01X1528528Y-2417528D01*
G01X1435100Y-2324100D01*
G01Y-2161996D01*
G01X1440959Y-2156137D01*
G01X1435100Y-2763536D02*
G01X1440959Y-2769395D01*
G01X1891690Y-2482526D02*
G01X1530674Y-2482526D01*
G01X1435100Y-2578100D01*
G01Y-2763536D01*
G01X2477110Y-2482526D02*
G01X2616200Y-2482526D01*
G01X1891690Y-2352529D02*
G01X1888661Y-2349500D01*
G01X1739900D01*
G01X1891690Y-2352529D02*
G01X1891690Y-2261210D01*
G01X1955800Y-2197100D01*
G01X2114093D01*
G01X2254098Y-2197100D02*
G01X2400300Y-2197100D01*
G01X2476500Y-2273300D01*
G01Y-2351920D01*
G01X2477110Y-2417528D02*
G01X2477110Y-2352529D01*
G01X2476500Y-2351920D01*
G54D43*
G01X3209879Y-2959100D02*
G01X3235279Y-2933700D01*
G01X3416300D01*
G01X7162800Y-2755797D02*
G01X7226403Y-2819400D01*
G01X7442200D01*
G01X7493000Y-2768600D01*
G01X6845191Y-3396413D02*
G01X6845191Y-2908191D01*
G01X6591300Y-2654300D01*
G01X6505878D01*
G01X7590135Y-2044700D02*
G01X7450435Y-1905000D01*
G01X7073900D01*
G54D42*
G01X2477110Y-2547551D02*
G01X2477110Y-2716505D01*
G01X2476793Y-2716821D01*
G01X2476793Y-2867494D02*
G01X2636559Y-2867494D01*
G01X2641893Y-2862160D01*
G01X2641600Y-2641600D02*
G01X2641600Y-2721861D01*
G01X2641893Y-2722155D01*
G01X2114093Y-2197100D02*
G01X2114093Y-2349500D01*
G01X4191000Y-3922141D02*
G01X4191000Y-4115664D01*
G01X4179164Y-4127500D01*
G01X4318000Y-3922141D02*
G01X4318000Y-4115664D01*
G01X4329836Y-4127500D01*
G01X4605905Y-3870732D02*
G01X4456273Y-3721100D01*
G01X4267200D01*
G01X4191000Y-3797300D01*
G01Y-3922141D01*
G01X4605905Y-4060724D02*
G01X4526289Y-4140340D01*
G01X5208194Y-3175000D02*
G01X5208194Y-3263900D01*
G01X5104435Y-3367659D01*
G01X4445000D01*
G01X4064000Y-3086100D02*
G01X4064000Y-3367659D01*
G01X4184498Y-3124200D02*
G01X4191000Y-3130702D01*
G01Y-3367659D01*
G01X4324502Y-3124200D02*
G01X4324502Y-3361157D01*
G01X4318000Y-3367659D01*
G01X1993900Y-1651000D02*
G01X2057400Y-1651000D01*
G01X2705100Y-2298700D01*
G01X5905500D01*
G01X6464300Y-2857500D02*
G01X6464300Y-3365500D01*
G01X5905500Y-2298700D02*
G01X6464300Y-2857500D01*
G01X2641893Y-2862160D02*
G01X2692693Y-2811360D01*
G01X5427560D01*
G01X5511800Y-2895600D01*
G01X2477110Y-2417528D02*
G01X2336800Y-2417528D01*
G01X5118100Y-3175000D02*
G01X4935200Y-2992100D01*
G01X4158000D01*
G01X4064000Y-3086100D01*
G01X4324502Y-3124200D02*
G01X4495800Y-3124200D01*
G01X4559300Y-3060700D01*
G01X4191000Y-3367659D02*
G01X4191000Y-3441700D01*
G01X4114800Y-3517900D01*
G01X1714500Y-1752600D02*
G01X1663700Y-1803400D01*
G01X1155700D01*
G01Y-1885951D01*
G01X1133003Y-1908648D01*
G01X538926Y-1906357D02*
G01X538926Y-1803400D01*
G01X1155700D01*
G54D43*
G01X8641613Y-1663090D02*
G01X8641613Y-1384300D01*
G01X8549561Y-1292248D01*
G01X8340532D01*
G01X8706612Y-1663090D02*
G01X8706612Y-1389888D01*
G01X8804252Y-1292248D01*
G01X8938675Y-2251095D02*
G01X8938675Y-2387600D01*
G01X8938675Y-2251095D02*
G01X8936090Y-2248510D01*
G01X8771611D01*
G01X8706612D01*
G01X8576589Y-2248510D02*
G01X8576589Y-2461478D01*
G01X8558936Y-2479131D01*
G01X8641613Y-2248510D02*
G01X8641613Y-2384467D01*
G01X8734490Y-2477343D01*
G01X9078680Y-2251095D02*
G01X9194800Y-2251095D01*
G01X8734490Y-2477343D02*
G01X8839200Y-2477343D01*
G01X8734490Y-2617348D02*
G01X8722034Y-2629804D01*
G01X8558936D01*
G01X7669896D01*
G01X7594600Y-2705100D01*
G01Y-3009900D01*
G01X7073900Y-3530600D01*
G54D42*
G01X8837889Y-1663090D02*
G01X8771611Y-1663090D01*
G54D43*
G01X8804252Y-1292248D02*
G01X8851900Y-1292248D01*
G01X8953790D01*
G54D42*
G01X5091093Y-4175865D02*
G01X4978400Y-4063172D01*
G01Y-3898900D01*
G01X4950232Y-3870732D01*
G01X4605905D01*
G01X4329836Y-4127500D02*
G01X4316997Y-4140340D01*
G01X4526289Y-4140340D02*
G01X4329836Y-4140340D01*
G01X4316997D01*
G01X5091093Y-4300858D02*
G01X4846039Y-4300858D01*
G01X4605905Y-4060724D01*
G01X749300Y-4241800D02*
G01X812800Y-4178300D01*
G01X749300Y-4584700D02*
G01X749300Y-4241800D01*
G01X2375764Y-4356100D02*
G01X2413000Y-4356100D01*
G01X2438400Y-4381500D01*
G01Y-4444136D01*
G01X2437536Y-4445000D01*
G01X2515464Y-4356100D02*
G01X2590800Y-4356100D01*
G01X2617064Y-4382364D01*
G01Y-4445000D01*
G01X2286864Y-4610100D02*
G01X2261464Y-4584700D01*
G01X1981200D01*
G01X2437536Y-4610100D02*
G01X2617064Y-4610100D01*
G01X2437536Y-4610100D02*
G01X2437536Y-4661764D01*
G01X2387600Y-4711700D01*
G01X1930400D01*
G01X1860296Y-4641596D01*
G01Y-4509110D01*
G01X2767736Y-4445000D02*
G01X2870200Y-4445000D01*
G01X2946400Y-4368800D01*
G01Y-4292600D01*
G01X2197100Y-4445000D02*
G01X2286864Y-4445000D01*
G01X1670304Y-4509110D02*
G01X1670304Y-4702579D01*
G01X1678389Y-4710664D01*
G01X5473700Y-3492500D02*
G01X5430500Y-3535700D01*
G01X4185900D01*
G01X4013200Y-3708400D01*
G01X3898900D01*
G01X3733800Y-3543300D01*
G01X3340100D01*
G01X2895600Y-3098800D01*
G01X2679700D01*
G01X4178300Y-4203700D02*
G01X4178300Y-4128364D01*
G01X4179164Y-4127500D01*
G01X4178300Y-4483100D02*
G01X4329836Y-4331564D01*
G01X4329836Y-4127500D02*
G01X4329836Y-4140340D01*
G01X4329836Y-4331564D02*
G01X4329836Y-4140340D01*
G04 Track End*

M02*
