G04 Layer: TopSolderMaskLayer*
G04 EasyEDA Pro v2.1.51.8c9149c1.e57db4, 2024-03-19 13:05:20*
G04 Gerber Generator version 0.3*
G04 Scale: 100 percent, Rotated: No, Reflected: No*
G04 Dimensions in millimeters*
G04 Leading zeros omitted, absolute positions, 3 integers and 5 decimals*
%FSLAX35Y35*%
%MOMM*%
%AMRoundRect*1,1,$1,$2,$3*1,1,$1,$4,$5*1,1,$1,0-$2,0-$3*1,1,$1,0-$4,0-$5*20,1,$1,$2,$3,$4,$5,0*20,1,$1,$4,$5,0-$2,0-$3,0*20,1,$1,0-$2,0-$3,0-$4,0-$5,0*20,1,$1,0-$4,0-$5,$2,$3,0*4,1,4,$2,$3,$4,$5,0-$2,0-$3,0-$4,0-$5,$2,$3,0*%
%AMOval*1,1,$1,$2,$3*1,1,$1,$4,$5*20,1,$1,$2,$3,$4,$5,0*%
%ADD10RoundRect,0.08756X0.40702X-0.27302X-0.40702X-0.27302*%
%ADD11RoundRect,0.09138X-0.43712X-0.40835X-0.43712X0.40835*%
%ADD12RoundRect,0.09131X0.45514X0.40514X0.45514X-0.40514*%
%ADD13RoundRect,0.09598X1.35281X0.82031X1.35281X-0.82031*%
%ADD14RoundRect,0.09598X-1.35281X-0.82031X-1.35281X0.82031*%
%ADD15C,1.7028*%
%ADD16C,1.7016*%
%ADD17RoundRect,0.09138X-0.40835X0.43712X0.40835X0.43712*%
%ADD18RoundRect,0.09138X0.43712X0.40835X0.43712X-0.40835*%
%ADD19RoundRect,0.09077X-0.38042X0.50541X0.38042X0.50541*%
%ADD20C,2.6016*%
%ADD21C,3.30159*%
%ADD22RoundRect,0.09691X1.00234X-1.65234X-1.00234X-1.65234*%
%ADD23RoundRect,0.09904X-1.91379X6.17628X1.91379X6.17628*%
%ADD24RoundRect,0.09904X-1.91379X6.16128X1.91379X6.16128*%
%ADD25Oval,0.45461X0.0X-0.55049X0.0X0.55049*%
%ADD26RoundRect,0.09131X-0.45514X-0.40514X-0.45514X0.40514*%
%ADD27RoundRect,0.08875X0.78143X0.30643X0.78143X-0.30643*%
%ADD28RoundRect,0.09792X-1.30184X1.55184X1.30184X1.55184*%
%ADD29RoundRect,0.08875X-0.78143X-0.30643X-0.78143X0.30643*%
%ADD30RoundRect,0.09792X1.30184X-1.55184X-1.30184X-1.55184*%
%ADD31O,0.37003X1.60002*%
%ADD32O,1.60002X0.37003*%
%ADD33RoundRect,0.09424X0.70368X-0.60368X-0.70368X-0.60368*%
%ADD34RoundRect,0.09131X0.40514X0.40514X0.40514X-0.40514*%
%ADD35RoundRect,0.09131X0.40514X-0.45514X-0.40514X-0.45514*%
%ADD36RoundRect,0.09302X-0.72929X-0.50429X-0.72929X0.50429*%
%ADD37RoundRect,0.08752X-0.30625X0.85625X0.30625X0.85625*%
%ADD38RoundRect,0.09169X-0.50417X1.40417X0.50417X1.40417*%
%ADD39RoundRect,0.08875X0.30643X-0.85642X-0.30643X-0.85642*%
%ADD40RoundRect,0.09473X-0.65343X1.50343X0.65343X1.50343*%
%ADD41C,2.0016*%
%ADD42RoundRect,0.09549X-0.86705X-0.74556X-0.86705X0.74556*%
%ADD43Oval,0.6966X0.0X-0.68626X0.0X0.68626*%
%ADD44RoundRect,0.08756X0.27302X-0.54302X-0.27302X-0.54302*%
%ADD45RoundRect,0.09138X0.40835X-0.43712X-0.40835X-0.43712*%
%ADD46RoundRect,0.09691X1.00234X2.25234X1.00234X-2.25234*%
%ADD47RoundRect,0.09549X0.74556X-0.86705X-0.74556X-0.86705*%
%ADD48C,3.4036*%
G75*


G04 Pad Start*
G54D10*
G01X1064477Y-1558884D03*
G01X1064477Y-1653880D03*
G01X1064477Y-1748876D03*
G01X1304482Y-1748876D03*
G01X1304482Y-1653880D03*
G01X1304482Y-1558884D03*
G54D11*
G01X722035Y-1570860D03*
G01X722035Y-1721533D03*
G54D12*
G01X899835Y-1712269D03*
G01X899835Y-1572264D03*
G54D13*
G01X3409480Y-861990D03*
G01X3409480Y-558510D03*
G54D14*
G01X3409480Y-1179490D03*
G01X3409480Y-1482969D03*
G54D13*
G01X7367526Y-849290D03*
G01X7367526Y-545810D03*
G54D14*
G01X7367526Y-1166790D03*
G01X7367526Y-1470269D03*
G54D16*
G01X2705100Y-787400D03*
G01X2705100Y-279400D03*
G01X2705100Y-1333500D03*
G01X2705100Y-1841500D03*
G54D17*
G01X4139336Y-2552700D03*
G01X3988664Y-2552700D03*
G01X4139336Y-1587500D03*
G01X3988664Y-1587500D03*
G01X6992556Y-1587500D03*
G01X6841883Y-1587500D03*
G01X6992556Y-2552700D03*
G01X6841883Y-2552700D03*
G54D16*
G01X8089900Y-787400D03*
G01X8089900Y-279400D03*
G01X8089900Y-1333500D03*
G01X8089900Y-1841500D03*
G54D18*
G01X4317136Y-2743200D03*
G01X4317136Y-2592527D03*
G01X3365500Y-2501036D03*
G01X3365500Y-2350364D03*
G54D11*
G01X7416800Y-2451964D03*
G01X7416800Y-2602636D03*
G01X7252564Y-2452827D03*
G01X7252564Y-2603500D03*
G54D19*
G01X4142160Y-1381173D03*
G01X4015160Y-1381173D03*
G01X3888160Y-1381173D03*
G01X3761160Y-1381173D03*
G36*
G01X4184740Y-1232672D02*
G02X4179660Y-1237752I-5080J0D01*
G01X3723659D01*
G02X3718579Y-1232672I0J5080D01*
G01Y-1195253D01*
G01X3674160D01*
G02X3669080Y-1190173I0J5080D01*
G01Y-1099673D01*
G02X3674160Y-1094593I5080J0D01*
G01X3718579D01*
G01Y-779673D01*
G02X3723659Y-774593I5080J0D01*
G01X3798660D01*
G02X3803740Y-779673I0J-5080D01*
G01Y-824593D01*
G01X4099579D01*
G01Y-779673D01*
G02X4104659Y-774593I5080J0D01*
G01X4179660D01*
G02X4184740Y-779673I0J-5080D01*
G01Y-1094593D01*
G01X4229160D01*
G02X4234240Y-1099673I0J-5080D01*
G01Y-1190173D01*
G02X4229160Y-1195253I-5080J0D01*
G01X4184740D01*
G01Y-1232672D01*
G37*
G01X4133661Y-2319050D03*
G01X4006661Y-2319050D03*
G01X3879661Y-2319050D03*
G01X3752661Y-2319050D03*
G36*
G01X4176241Y-2170549D02*
G02X4171161Y-2175629I-5080J0D01*
G01X3715160D01*
G02X3710080Y-2170549I0J5080D01*
G01Y-2133130D01*
G01X3665661D01*
G02X3660581Y-2128050I0J5080D01*
G01Y-2037550D01*
G02X3665661Y-2032470I5080J0D01*
G01X3710080D01*
G01Y-1717551D01*
G02X3715160Y-1712471I5080J0D01*
G01X3790161D01*
G02X3795241Y-1717551I0J-5080D01*
G01Y-1762470D01*
G01X4091080D01*
G01Y-1717551D01*
G02X4096160Y-1712471I5080J0D01*
G01X4171161D01*
G02X4176241Y-1717551I0J-5080D01*
G01Y-2032470D01*
G01X4220661D01*
G02X4225741Y-2037550I0J-5080D01*
G01Y-2128050D01*
G02X4220661Y-2133130I-5080J0D01*
G01X4176241D01*
G01Y-2170549D01*
G37*
G01X6995379Y-1393873D03*
G01X6868379Y-1393873D03*
G01X6741379Y-1393873D03*
G01X6614379Y-1393873D03*
G36*
G01X7037960Y-1245372D02*
G02X7032880Y-1250452I-5080J0D01*
G01X6576878D01*
G02X6571798Y-1245372I0J5080D01*
G01Y-1207953D01*
G01X6527379D01*
G02X6522299Y-1202873I0J5080D01*
G01Y-1112373D01*
G02X6527379Y-1107293I5080J0D01*
G01X6571798D01*
G01Y-792373D01*
G02X6576878Y-787293I5080J0D01*
G01X6651880D01*
G02X6656960Y-792373I0J-5080D01*
G01Y-837293D01*
G01X6952798D01*
G01Y-792373D01*
G02X6957878Y-787293I5080J0D01*
G01X7032880D01*
G02X7037960Y-792373I0J-5080D01*
G01Y-1107293D01*
G01X7082379D01*
G02X7087459Y-1112373I0J-5080D01*
G01Y-1202873D01*
G02X7082379Y-1207953I-5080J0D01*
G01X7037960D01*
G01Y-1245372D01*
G37*
G01X6995379Y-2357150D03*
G01X6868379Y-2357150D03*
G01X6741379Y-2357150D03*
G01X6614379Y-2357150D03*
G36*
G01X7037960Y-2208649D02*
G02X7032880Y-2213729I-5080J0D01*
G01X6576878D01*
G02X6571798Y-2208649I0J5080D01*
G01Y-2171230D01*
G01X6527379D01*
G02X6522299Y-2166150I0J5080D01*
G01Y-2075650D01*
G02X6527379Y-2070570I5080J0D01*
G01X6571798D01*
G01Y-1755651D01*
G02X6576878Y-1750571I5080J0D01*
G01X6651880D01*
G02X6656960Y-1755651I0J-5080D01*
G01Y-1800570D01*
G01X6952798D01*
G01Y-1755651D01*
G02X6957878Y-1750571I5080J0D01*
G01X7032880D01*
G02X7037960Y-1755651I0J-5080D01*
G01Y-2070570D01*
G01X7082379D01*
G02X7087459Y-2075650I0J-5080D01*
G01Y-2166150D01*
G02X7082379Y-2171230I-5080J0D01*
G01X7037960D01*
G01Y-2208649D01*
G37*
G54D20*
G01X563088Y-3319535D03*
G01X563088Y-2819536D03*
G54D21*
G01X965200Y-897699D03*
G01X965200Y-397700D03*
G54D20*
G01X9296400Y-1528000D03*
G01X9296400Y-1028001D03*
G54D22*
G01X2040095Y-1009609D03*
G01X1426837Y-1009609D03*
G01X2040095Y-553052D03*
G01X1426837Y-553052D03*
G54D23*
G01X4560516Y-1612900D03*
G54D24*
G01X6196022Y-1612900D03*
G54D25*
G01X1862811Y-1447190D03*
G01X1797787Y-1447190D03*
G01X1732788Y-1447190D03*
G01X1667789Y-1447190D03*
G01X1862811Y-2032610D03*
G01X1797787Y-2032610D03*
G01X1732788Y-2032610D03*
G01X1667789Y-2032610D03*
G54D12*
G01X1473200Y-2197100D03*
G01X1473200Y-2057095D03*
G01X7590135Y-2914802D03*
G01X7590135Y-2774798D03*
G01X7590135Y-3242280D03*
G01X7590135Y-3102275D03*
G54D26*
G01X3209879Y-3035379D03*
G01X3209879Y-3175384D03*
G01X3213100Y-2698598D03*
G01X3213100Y-2838602D03*
G54D27*
G01X7045882Y-3136797D03*
G01X7045882Y-3009797D03*
G01X7045882Y-2882797D03*
G01X7045882Y-2755797D03*
G01X6505878Y-2755797D03*
G01X6505878Y-2882797D03*
G01X6505878Y-3009797D03*
G01X6505878Y-3136797D03*
G54D28*
G01X6775880Y-2946297D03*
G54D29*
G01X3525658Y-2803477D03*
G01X3525658Y-2930477D03*
G01X3525658Y-3057477D03*
G01X3525658Y-3184477D03*
G01X4065662Y-3184477D03*
G01X4065662Y-3057477D03*
G01X4065662Y-2930477D03*
G01X4065662Y-2803477D03*
G54D30*
G01X3795660Y-2993977D03*
G54D18*
G01X6261100Y-2742336D03*
G01X6261100Y-2591664D03*
G54D11*
G01X6261100Y-2896464D03*
G01X6261100Y-3047136D03*
G54D18*
G01X4311399Y-3055244D03*
G01X4311399Y-2904571D03*
G54D11*
G01X4311399Y-3204113D03*
G01X4311399Y-3354786D03*
G54D31*
G01X5008194Y-3892093D03*
G01X5058207Y-3892093D03*
G01X5108194Y-3892093D03*
G01X5158207Y-3892093D03*
G01X5208194Y-3892093D03*
G01X5258206Y-3892093D03*
G01X5308194Y-3892093D03*
G01X5358206Y-3892093D03*
G01X5408193Y-3892093D03*
G01X5458206Y-3892093D03*
G01X5508193Y-3892093D03*
G01X5558206Y-3892093D03*
G54D32*
G01X5708193Y-3742106D03*
G01X5708193Y-3692093D03*
G01X5708193Y-3642106D03*
G01X5708193Y-3592093D03*
G01X5708193Y-3542106D03*
G01X5708193Y-3492094D03*
G01X5708193Y-3442106D03*
G01X5708193Y-3392094D03*
G01X5708193Y-3342107D03*
G01X5708193Y-3292094D03*
G01X5708193Y-3242107D03*
G01X5708193Y-3192094D03*
G54D31*
G01X5558206Y-3042107D03*
G01X5508193Y-3042107D03*
G01X5458206Y-3042107D03*
G01X5408193Y-3042107D03*
G01X5358206Y-3042107D03*
G01X5308194Y-3042107D03*
G01X5258206Y-3042107D03*
G01X5208194Y-3042107D03*
G01X5158207Y-3042107D03*
G01X5108194Y-3042107D03*
G01X5058207Y-3042107D03*
G01X5008194Y-3042107D03*
G54D32*
G01X4858207Y-3192094D03*
G01X4858207Y-3242107D03*
G01X4858207Y-3292094D03*
G01X4858207Y-3342107D03*
G01X4858207Y-3392094D03*
G01X4858207Y-3442106D03*
G01X4858207Y-3492094D03*
G01X4858207Y-3542106D03*
G01X4858207Y-3592093D03*
G01X4858207Y-3642106D03*
G01X4858207Y-3692093D03*
G01X4858207Y-3742106D03*
G54D18*
G01X6515100Y-4583836D03*
G01X6515100Y-4433164D03*
G54D26*
G01X6350000Y-4438498D03*
G01X6350000Y-4578502D03*
G54D11*
G01X4577042Y-3633621D03*
G01X4577042Y-3784294D03*
G54D33*
G01X5234738Y-4205097D03*
G01X5014723Y-4205097D03*
G01X5014723Y-4380103D03*
G01X5234738Y-4380103D03*
G54D12*
G01X4826000Y-4432066D03*
G01X4826000Y-4292062D03*
G01X5448300Y-4317766D03*
G01X5448300Y-4177762D03*
G54D34*
G01X2434654Y-3810343D03*
G01X2594547Y-3809657D03*
G54D17*
G01X2279433Y-3810000D03*
G01X2128760Y-3810000D03*
G54D34*
G01X2434654Y-3641009D03*
G01X2594547Y-3640324D03*
G54D17*
G01X2279433Y-3640093D03*
G01X2128760Y-3640093D03*
G54D34*
G01X2434654Y-3471676D03*
G01X2594547Y-3470991D03*
G54D17*
G01X2279433Y-3470186D03*
G01X2128760Y-3470186D03*
G54D34*
G01X2434654Y-3302343D03*
G01X2594547Y-3301657D03*
G54D17*
G01X2279433Y-3300279D03*
G01X2128760Y-3300279D03*
G54D35*
G01X4921098Y-2755900D03*
G01X5061102Y-2755900D03*
G54D26*
G01X6078315Y-3253175D03*
G01X6078315Y-3393179D03*
G01X4575242Y-3951374D03*
G01X4575242Y-4091379D03*
G54D36*
G01X5645506Y-4436199D03*
G01X6165494Y-4436199D03*
G01X5645506Y-4606201D03*
G01X6165494Y-4606201D03*
G54D37*
G01X4179303Y-4338091D03*
G01X4304297Y-4338091D03*
G54D38*
G01X3994315Y-4628083D03*
G01X4489310Y-4628083D03*
G54D39*
G01X3292335Y-4348505D03*
G01X3417303Y-4348505D03*
G01X3542271Y-4348505D03*
G01X3667239Y-4348505D03*
G54D40*
G01X3862311Y-4668495D03*
G01X3097289Y-4668495D03*
G54D39*
G01X2377935Y-4348505D03*
G01X2502903Y-4348505D03*
G01X2627871Y-4348505D03*
G01X2752839Y-4348505D03*
G54D40*
G01X2947911Y-4668495D03*
G01X2182889Y-4668495D03*
G54D41*
G01X3809091Y-3397933D03*
G01X6845191Y-3396413D03*
G54D18*
G01X8604443Y-3204039D03*
G01X8604443Y-3053366D03*
G01X8760750Y-3204039D03*
G01X8760750Y-3053366D03*
G01X8448137Y-3204039D03*
G01X8448137Y-3053366D03*
G01X8917056Y-3204039D03*
G01X8917056Y-3053366D03*
G54D11*
G01X9073363Y-3053366D03*
G01X9073363Y-3204039D03*
G54D26*
G01X9071563Y-2749398D03*
G01X9071563Y-2889402D03*
G54D11*
G01X8020452Y-4217264D03*
G01X8020452Y-4367936D03*
G01X8178800Y-4217264D03*
G01X8178800Y-4367936D03*
G01X7862103Y-4217264D03*
G01X7862103Y-4367936D03*
G54D18*
G01X7545406Y-4367936D03*
G01X7545406Y-4217264D03*
G54D11*
G01X7703755Y-4217264D03*
G01X7703755Y-4367936D03*
G54D12*
G01X7376494Y-4357030D03*
G01X7376494Y-4217025D03*
G54D42*
G01X8210530Y-2851593D03*
G01X8210530Y-3170109D03*
G54D26*
G01X8001000Y-3051578D03*
G01X8001000Y-3191582D03*
G54D18*
G01X2062965Y-2209242D03*
G01X2062965Y-2058570D03*
G54D26*
G01X2254402Y-2069795D03*
G01X2254402Y-2209800D03*
G54D43*
G01X8699500Y-3447720D03*
G01X8572500Y-3447720D03*
G01X8445500Y-3447720D03*
G01X8318500Y-3447720D03*
G01X8191500Y-3447720D03*
G01X8064500Y-3447720D03*
G01X7937500Y-3447720D03*
G01X8699500Y-3994480D03*
G01X8572500Y-3994480D03*
G01X8445500Y-3994480D03*
G01X8318500Y-3994480D03*
G01X8191500Y-3994480D03*
G01X8064500Y-3994480D03*
G01X7937500Y-3994480D03*
G54D26*
G01X6078315Y-3968598D03*
G01X6078315Y-4108602D03*
G54D18*
G01X673100Y-4355236D03*
G01X673100Y-4204564D03*
G54D12*
G01X495300Y-4057802D03*
G01X495300Y-3917798D03*
G54D44*
G01X1072896Y-4177690D03*
G01X977900Y-4177690D03*
G01X882904Y-4177690D03*
G01X882904Y-4407510D03*
G01X977900Y-4407510D03*
G01X1072896Y-4407510D03*
G54D35*
G01X907898Y-3886200D03*
G01X1047902Y-3886200D03*
G54D45*
G01X826364Y-4584700D03*
G01X977036Y-4584700D03*
G01X1129436Y-4584700D03*
G01X1280109Y-4584700D03*
G54D12*
G01X1282700Y-4337202D03*
G01X1282700Y-4197198D03*
G54D18*
G01X677852Y-4062031D03*
G01X677852Y-3911359D03*
G54D46*
G01X1930298Y-4432300D03*
G01X1600302Y-4432300D03*
G01X1828495Y-3352800D03*
G01X1498498Y-3352800D03*
G54D47*
G01X831342Y-3670300D03*
G01X1149858Y-3670300D03*
G01X1612900Y-3721100D03*
G01X1931416Y-3721100D03*
G01X1611884Y-4007358D03*
G01X1930400Y-4007358D03*
G54D48*
G01X501650Y-273050D03*
G01X9328150Y-4565650D03*
G01X9328150Y-273050D03*
G01X508000Y-4572000D03*
G04 Pad End*

M02*
